<svg width="133" height="48" viewBox="0 0 133 48" fill="none" xmlns="http://www.w3.org/2000/svg">
<rect width="48" height="48" rx="4" fill="#FF2626"/>
<path d="M24.1211 14.5938C24.1523 14.7774 24.75 18.2852 24.75 19.625C24.75 21.668 23.664 23.125 22.0586 23.711L22.5625 33.0117C22.5898 33.5469 22.164 34 21.625 34H19.125C18.5898 34 18.1602 33.5508 18.1875 33.0117L18.6914 23.711C17.082 23.125 16 21.6641 16 19.625C16 18.2813 16.5977 14.7774 16.6289 14.5938C16.7539 13.8008 18.3984 13.7891 18.5 14.6368V20.1524C18.5508 20.2852 19.0898 20.2774 19.125 20.1524C19.1797 19.1641 19.4336 14.7149 19.4375 14.6133C19.5664 13.8008 21.1836 13.8008 21.3086 14.6133C21.3164 14.7188 21.5664 19.1641 21.6211 20.1524C21.6562 20.2774 22.1992 20.2852 22.2461 20.1524V14.6368C22.3476 13.793 23.9961 13.8008 24.1211 14.5938ZM28.7773 25.7539L28.1914 32.9844C28.1445 33.5313 28.5781 34 29.125 34H31.3125C31.832 34 32.25 33.582 32.25 33.0625V14.9376C32.25 14.4219 31.832 14.0001 31.3125 14.0001C28.0898 14.0001 22.664 20.9727 28.7773 25.7539Z" fill="white"/>
<path d="M72 18.832V20.64H67.344V23.504H70.912V25.28H67.344V30H65.104V18.832H72ZM77.5244 30.144C76.671 30.144 75.903 29.9573 75.2204 29.584C74.5377 29.2 73.999 28.6613 73.6044 27.968C73.2204 27.2747 73.0284 26.4747 73.0284 25.568C73.0284 24.6613 73.2257 23.8613 73.6204 23.168C74.0257 22.4747 74.575 21.9413 75.2684 21.568C75.9617 21.184 76.735 20.992 77.5884 20.992C78.4417 20.992 79.215 21.184 79.9084 21.568C80.6017 21.9413 81.1457 22.4747 81.5404 23.168C81.9457 23.8613 82.1484 24.6613 82.1484 25.568C82.1484 26.4747 81.9404 27.2747 81.5244 27.968C81.119 28.6613 80.5644 29.2 79.8604 29.584C79.167 29.9573 78.3884 30.144 77.5244 30.144ZM77.5244 28.192C77.9297 28.192 78.3084 28.096 78.6604 27.904C79.023 27.7013 79.311 27.4027 79.5244 27.008C79.7377 26.6133 79.8444 26.1333 79.8444 25.568C79.8444 24.7253 79.6204 24.08 79.1724 23.632C78.735 23.1733 78.1964 22.944 77.5564 22.944C76.9164 22.944 76.3777 23.1733 75.9404 23.632C75.5137 24.08 75.3004 24.7253 75.3004 25.568C75.3004 26.4107 75.5084 27.0613 75.9244 27.52C76.351 27.968 76.8844 28.192 77.5244 28.192ZM87.7275 30.144C86.8742 30.144 86.1062 29.9573 85.4235 29.584C84.7408 29.2 84.2022 28.6613 83.8075 27.968C83.4235 27.2747 83.2315 26.4747 83.2315 25.568C83.2315 24.6613 83.4288 23.8613 83.8235 23.168C84.2288 22.4747 84.7782 21.9413 85.4715 21.568C86.1648 21.184 86.9382 20.992 87.7915 20.992C88.6448 20.992 89.4182 21.184 90.1115 21.568C90.8048 21.9413 91.3488 22.4747 91.7435 23.168C92.1488 23.8613 92.3515 24.6613 92.3515 25.568C92.3515 26.4747 92.1435 27.2747 91.7275 27.968C91.3222 28.6613 90.7675 29.2 90.0635 29.584C89.3702 29.9573 88.5915 30.144 87.7275 30.144ZM87.7275 28.192C88.1328 28.192 88.5115 28.096 88.8635 27.904C89.2262 27.7013 89.5142 27.4027 89.7275 27.008C89.9408 26.6133 90.0475 26.1333 90.0475 25.568C90.0475 24.7253 89.8235 24.08 89.3755 23.632C88.9382 23.1733 88.3995 22.944 87.7595 22.944C87.1195 22.944 86.5808 23.1733 86.1435 23.632C85.7168 24.08 85.5035 24.7253 85.5035 25.568C85.5035 26.4107 85.7115 27.0613 86.1275 27.52C86.5542 27.968 87.0875 28.192 87.7275 28.192ZM93.4186 25.536C93.4186 24.64 93.5946 23.8453 93.9466 23.152C94.3093 22.4587 94.8 21.9253 95.4186 21.552C96.0373 21.1787 96.7253 20.992 97.4826 20.992C98.0586 20.992 98.608 21.12 99.1306 21.376C99.6533 21.6213 100.069 21.952 100.379 22.368V18.16H102.651V30H100.379V28.688C100.101 29.1253 99.712 29.4773 99.2106 29.744C98.7093 30.0107 98.128 30.144 97.4666 30.144C96.72 30.144 96.0373 29.952 95.4186 29.568C94.8 29.184 94.3093 28.6453 93.9466 27.952C93.5946 27.248 93.4186 26.4427 93.4186 25.536ZM100.395 25.568C100.395 25.024 100.288 24.56 100.075 24.176C99.8613 23.7813 99.5733 23.4827 99.2106 23.28C98.848 23.0667 98.4586 22.96 98.0426 22.96C97.6266 22.96 97.2426 23.0613 96.8906 23.264C96.5386 23.4667 96.2506 23.7653 96.0266 24.16C95.8133 24.544 95.7066 25.0027 95.7066 25.536C95.7066 26.0693 95.8133 26.5387 96.0266 26.944C96.2506 27.3387 96.5386 27.6427 96.8906 27.856C97.2533 28.0693 97.6373 28.176 98.0426 28.176C98.4586 28.176 98.848 28.0747 99.2106 27.872C99.5733 27.6587 99.8613 27.36 100.075 26.976C100.288 26.5813 100.395 26.112 100.395 25.568Z" fill="#171717"/>
<path d="M111.174 24.272C111.804 24.3893 112.321 24.704 112.726 25.216C113.132 25.728 113.334 26.3147 113.334 26.976C113.334 27.5733 113.185 28.1013 112.886 28.56C112.598 29.008 112.177 29.36 111.622 29.616C111.068 29.872 110.412 30 109.654 30H104.838V18.832H109.446C110.204 18.832 110.854 18.9547 111.398 19.2C111.953 19.4453 112.369 19.7867 112.646 20.224C112.934 20.6613 113.078 21.1573 113.078 21.712C113.078 22.3627 112.902 22.9067 112.55 23.344C112.209 23.7813 111.75 24.0907 111.174 24.272ZM107.078 23.44H109.126C109.66 23.44 110.07 23.3227 110.358 23.088C110.646 22.8427 110.79 22.496 110.79 22.048C110.79 21.6 110.646 21.2533 110.358 21.008C110.07 20.7627 109.66 20.64 109.126 20.64H107.078V23.44ZM109.334 28.176C109.878 28.176 110.3 28.048 110.598 27.792C110.908 27.536 111.062 27.1733 111.062 26.704C111.062 26.224 110.902 25.8507 110.582 25.584C110.262 25.3067 109.83 25.168 109.286 25.168H107.078V28.176H109.334ZM119.056 30.144C118.202 30.144 117.434 29.9573 116.752 29.584C116.069 29.2 115.53 28.6613 115.136 27.968C114.752 27.2747 114.56 26.4747 114.56 25.568C114.56 24.6613 114.757 23.8613 115.152 23.168C115.557 22.4747 116.106 21.9413 116.8 21.568C117.493 21.184 118.266 20.992 119.12 20.992C119.973 20.992 120.746 21.184 121.44 21.568C122.133 21.9413 122.677 22.4747 123.072 23.168C123.477 23.8613 123.68 24.6613 123.68 25.568C123.68 26.4747 123.472 27.2747 123.056 27.968C122.65 28.6613 122.096 29.2 121.392 29.584C120.698 29.9573 119.92 30.144 119.056 30.144ZM119.056 28.192C119.461 28.192 119.84 28.096 120.192 27.904C120.554 27.7013 120.842 27.4027 121.056 27.008C121.269 26.6133 121.376 26.1333 121.376 25.568C121.376 24.7253 121.152 24.08 120.704 23.632C120.266 23.1733 119.728 22.944 119.088 22.944C118.448 22.944 117.909 23.1733 117.472 23.632C117.045 24.08 116.832 24.7253 116.832 25.568C116.832 26.4107 117.04 27.0613 117.456 27.52C117.882 27.968 118.416 28.192 119.056 28.192ZM130.219 30L128.395 27.248L126.779 30H124.379L127.275 25.552L124.347 21.136H126.875L128.683 23.872L130.315 21.136H132.715L129.803 25.552L132.747 30H130.219Z" fill="#FF2626"/>
</svg>
