<svg width="101" height="96" viewBox="0 0 101 96" fill="none" xmlns="http://www.w3.org/2000/svg">
<g clip-path="url(#clip0_34_894)">
<path d="M69.7766 93.1391C69.1198 93.2064 68.4366 93.2823 67.8781 93.6055C67.3196 93.9287 66.9313 94.575 67.1662 95.1347C67.4563 95.8309 68.4486 95.9979 69.2684 95.9979C71.0662 95.9979 72.8495 95.7029 74.5921 95.2995C75.3783 95.1173 76.2149 94.8787 76.6991 94.2931C76.8861 94.0653 77.0059 93.7421 76.8357 93.5035C76.6152 93.1955 76.1094 93.2541 75.7139 93.3278C73.7028 93.7118 71.5863 93.6272 69.6232 93.0806" fill="#F5F5F5"/>
<path d="M37.7551 19.8315H2.74939V40.6588H37.7551V19.8315Z" fill="#E0E0E0"/>
<path d="M36.5206 20.6841H3.96704V39.7283H36.5206V20.6841Z" fill="#FAFAFA"/>
<path d="M25.552 27.625H14.9333V32.8654H25.552V27.625Z" fill="#E0E0E0"/>
<path d="M97.366 1.80908H56.5763V68.117H97.366V1.80908Z" fill="#EBEBEB"/>
<path d="M95.3141 3.73291H58.2039V66.143H95.3141V3.73291Z" fill="#FAFAFA"/>
<path d="M95.3141 4.46822L58.2039 47.1833V3.73291H95.3141V4.46822Z" fill="#F5F5F5"/>
<path d="M96.1195 21.6863H58.2039V22.35H96.1195V21.6863Z" fill="#EBEBEB"/>
<path d="M96.1195 36.5464H58.2039V37.2101H96.1195V36.5464Z" fill="#EBEBEB"/>
<path d="M96.1195 51.4087H58.2039V52.0724H96.1195V51.4087Z" fill="#EBEBEB"/>
<path d="M75.8218 22.0181V67.9109H77.6962V22.0181H75.8218Z" fill="#EBEBEB"/>
<path d="M66.2003 3.73291H65.3517V22.018H66.2003V3.73291Z" fill="#EBEBEB"/>
<path d="M73.5254 3.73291H72.6769V22.018H73.5254V3.73291Z" fill="#EBEBEB"/>
<path d="M80.8507 3.73291H80.0021V22.018H80.8507V3.73291Z" fill="#EBEBEB"/>
<path d="M88.1759 3.73291H87.3273V22.018H88.1759V3.73291Z" fill="#EBEBEB"/>
<path d="M56.5763 0.685547H54.8505V68.5269H56.5763V0.685547Z" fill="#E0E0E0"/>
<path d="M99.0894 68.7135L97.3636 68.117V0.685547H99.0894V68.7135Z" fill="#E0E0E0"/>
<path d="M99.0894 0H54.8505V1.80899H99.0894V0Z" fill="#E0E0E0"/>
<path d="M100.257 68.9368H53.6256V70.6221H100.257V68.9368Z" fill="#E0E0E0"/>
<path d="M97.3636 68.1169L100.257 68.9368H53.6256L56.5763 68.1169H97.3636Z" fill="#EBEBEB"/>
<path d="M98.8737 86.4541C98.8737 86.4845 76.7374 86.5105 49.438 86.5105C22.1387 86.5105 -0.00238037 86.4845 -0.00238037 86.4541C-0.00238037 86.4237 22.1291 86.3977 49.438 86.3977C76.747 86.3977 98.8737 86.4237 98.8737 86.4541Z" fill="#263238"/>
<path d="M89.6836 69.1971C88.2933 69.3554 82.2074 69.1363 82.2074 69.1363L79.8871 69.4161L78.7173 64.026C80.2562 63.6812 83.147 62.6097 83.5065 62.2778C83.8445 61.9676 84.1945 61.6661 84.4486 61.2952C84.7554 60.844 85.1365 60.228 85.2324 59.8354C85.3498 59.3496 86.0522 59.2324 86.2487 59.6402C86.4453 60.048 86.1552 61.3972 85.0958 62.6899C84.0363 63.9827 87.9817 63.3428 88.9597 63.1237C89.6932 63.4751 89.8826 64.3471 89.3504 64.924L89.0892 65.2082L89.6836 69.1949V69.1971Z" fill="#FFBE9D"/>
<path d="M84.3191 67.7829C84.2952 67.7894 84.2472 67.6398 84.077 67.4337C83.914 67.232 83.6 66.9739 83.1518 66.8871L82.9409 66.8459L83.123 66.7375C83.3603 66.5965 83.5904 66.4013 83.7822 66.1648C84.1993 65.6573 84.3479 65.0738 84.3575 64.6617C84.3767 64.243 84.2808 63.9893 84.3143 63.9806C84.3287 63.9741 84.4773 64.2192 84.4941 64.6617C84.5205 65.0955 84.3863 65.7245 83.938 66.2689C83.7319 66.5227 83.4778 66.731 83.2189 66.8763L83.1901 66.7288C83.6959 66.8416 84.0195 67.1474 84.1681 67.3795C84.3215 67.6181 84.3335 67.7829 84.3167 67.7851L84.3191 67.7829Z" fill="#EB996E"/>
<path d="M86.4261 59.983L86.0953 64.9306C85.9179 66.2168 85.5104 67.4814 84.7098 68.542C84.6044 68.683 84.4965 68.811 84.391 68.9216C83.7342 69.6049 83.1901 70.7978 83.1901 72.4268V86.4519C83.3507 86.4801 91.5892 86.4996 91.7642 86.4519L91.7546 72.5201C91.7546 72.5201 91.9416 70.4248 90.64 69.0127C89.7219 68.0171 89.0604 66.8328 88.9932 64.9501C88.9573 63.9133 88.7823 59.9678 88.7823 59.9678L86.4237 59.9786L86.4261 59.983Z" fill="#E8505B"/>
<path opacity="0.2" d="M86.4261 59.983L86.0953 64.9306C85.9179 66.2168 85.5104 67.4814 84.7098 68.542C84.6044 68.683 84.4965 68.811 84.391 68.9216C83.7342 69.6049 83.1901 70.7978 83.1901 72.4268V86.4519C83.3507 86.4801 91.5892 86.4996 91.7642 86.4519L91.7546 72.5201C91.7546 72.5201 91.9416 70.4248 90.64 69.0127C89.7219 68.0171 89.0604 66.8328 88.9932 64.9501C88.9573 63.9133 88.7823 59.9678 88.7823 59.9678L86.4237 59.9786L86.4261 59.983Z" fill="black"/>
<path d="M91.7546 72.8477H85.2084V81.1031H91.7546V72.8477Z" fill="#EBEBEB"/>
<g opacity="0.3">
<path d="M86.3997 65.1799C86.2583 65.3578 86.22 65.5986 86.2991 65.8046C86.3782 66.0107 86.5747 66.1777 86.8072 66.2384C86.5412 66.451 86.4165 66.7981 86.4908 67.1104C86.5651 67.4249 86.8384 67.6939 87.1764 67.7871C86.963 68.132 87.1476 68.6005 87.5119 68.8196C87.8763 69.0365 88.3605 69.0322 88.768 68.8934C89.1755 68.7524 89.5182 68.4921 89.8298 68.2188L89.8922 68.1537L89.5782 67.5377L89.0364 63.8677L86.4021 65.1799H86.3997Z" fill="black"/>
</g>
<path d="M88.9621 63.2061C88.0872 63.577 87.2914 64.1019 86.6346 64.7439C86.3949 64.9782 86.16 65.284 86.2583 65.5898C86.359 65.9022 86.7832 66.054 87.1356 65.9933C87.4903 65.9347 87.7876 65.7243 88.0656 65.5183C88.3437 65.3122 89.0148 64.7808 89.0556 64.8372C88.4372 65.2298 87.7852 65.8566 87.2434 66.336C87.0157 66.5377 86.776 66.7893 86.8192 67.0778C86.8743 67.4487 87.5383 67.594 87.8499 67.3489C88.1855 67.0865 88.9142 66.5703 88.9142 66.5703C88.9741 66.5811 87.8787 67.4465 87.6198 67.8804C87.4927 68.0951 87.4136 68.3988 87.6222 68.5506C87.8475 68.7154 88.1735 68.5506 88.3988 68.3879C88.7464 68.1385 89.0939 67.889 89.4415 67.6396C89.6524 67.4878 89.8777 67.3164 89.9257 67.0756C89.9736 66.8349 89.7459 66.195 89.5014 66.2969C89.8106 66.054 90.024 65.72 90.0192 65.5118C90.012 65.143 89.6836 64.822 89.3456 64.8697" fill="#FFBE9D"/>
<path d="M87.7469 77.8952C87.7469 77.8952 87.8116 77.8843 87.9194 77.9212C88.0249 77.9559 88.1711 78.0427 88.279 78.2054C88.3869 78.3594 88.4396 78.6196 88.2934 78.8431C88.1567 79.06 87.8595 79.2378 87.5263 79.1966C87.1955 79.1467 86.9654 78.8994 86.9055 78.6543C86.8384 78.4006 86.9726 78.1663 87.1236 78.047C87.277 77.9212 87.4472 77.8778 87.5599 77.8713C87.6749 77.8648 87.7349 77.8865 87.7325 77.893C87.7325 77.9017 87.6701 77.8973 87.5671 77.9147C87.464 77.9321 87.3154 77.9841 87.186 78.1034C87.0565 78.2184 86.9534 78.4179 87.0182 78.6283C87.0733 78.8344 87.277 79.0426 87.5455 79.0817C87.814 79.1164 88.0776 78.971 88.1951 78.7867C88.3245 78.6023 88.291 78.3854 88.2047 78.2401C88.1184 78.0904 87.9937 78.0015 87.9027 77.9581C87.8092 77.9125 87.7492 77.9017 87.7516 77.893L87.7469 77.8952Z" fill="#263238"/>
<path d="M87.6342 76.611C87.6342 76.611 87.6989 76.6002 87.8068 76.637C87.9122 76.6717 88.0585 76.7585 88.1663 76.9212C88.2742 77.0752 88.3269 77.3355 88.1807 77.5589C88.0441 77.7758 87.7468 77.9536 87.4137 77.9124C87.0829 77.8625 86.8528 77.6153 86.7928 77.3702C86.7257 77.1164 86.86 76.8821 87.011 76.7628C87.1644 76.637 87.3346 76.5936 87.4472 76.5871C87.5623 76.5806 87.6222 76.6023 87.6198 76.6088C87.6198 76.6175 87.5575 76.6132 87.4544 76.6305C87.3513 76.6479 87.2027 76.6999 87.0733 76.8192C86.9438 76.9342 86.8408 77.1337 86.9055 77.3441C86.9606 77.5502 87.1644 77.7584 87.4328 77.7975C87.7013 77.8322 87.965 77.6869 88.0824 77.5025C88.2119 77.3181 88.1783 77.1012 88.092 76.9559C88.0057 76.8062 87.8811 76.7173 87.79 76.6739C87.6965 76.6284 87.6366 76.6175 87.639 76.6088L87.6342 76.611Z" fill="#263238"/>
<path d="M88.9022 77.1315C88.9022 77.1315 88.9669 77.1207 89.0748 77.1575C89.1802 77.1922 89.3264 77.279 89.4343 77.4417C89.5422 77.5957 89.5949 77.856 89.4487 78.0794C89.3121 78.2963 89.0148 78.4742 88.6817 78.4329C88.3509 78.3831 88.1208 78.1358 88.0608 77.8907C87.9937 77.6369 88.128 77.4026 88.279 77.2833C88.4324 77.1575 88.6026 77.1142 88.7152 77.1076C88.8303 77.1011 88.8902 77.1228 88.8878 77.1293C88.8878 77.138 88.8255 77.1337 88.7224 77.151C88.6193 77.1684 88.4707 77.2204 88.3413 77.3397C88.2118 77.4547 88.1088 77.6543 88.1735 77.8647C88.2286 78.0707 88.4324 78.2789 88.7008 78.318C88.9693 78.3527 89.233 78.2074 89.3504 78.023C89.4799 77.8386 89.4463 77.6217 89.36 77.4764C89.2737 77.3267 89.1491 77.2378 89.058 77.1944C88.9645 77.1489 88.9046 77.138 88.907 77.1293L88.9022 77.1315Z" fill="#263238"/>
<path d="M88.7895 75.8388C88.7895 75.8388 88.8542 75.8279 88.9621 75.8648C89.0676 75.8995 89.2138 75.9863 89.3216 76.149C89.4295 76.303 89.4822 76.5633 89.336 76.7867C89.1994 77.0036 88.9022 77.1814 88.569 77.1402C88.2382 77.0903 88.0081 76.8431 87.9482 76.598C87.8811 76.3442 88.0153 76.1099 88.1663 75.9906C88.3197 75.8648 88.4899 75.8214 88.6026 75.8149C88.7176 75.8084 88.7775 75.8301 88.7751 75.8366C88.7751 75.8453 88.7128 75.841 88.6097 75.8583C88.5067 75.8757 88.3581 75.9277 88.2286 76.047C88.0992 76.162 87.9961 76.3615 88.0608 76.5719C88.116 76.778 88.3197 76.9862 88.5882 77.0253C88.8566 77.06 89.1203 76.9146 89.2378 76.7303C89.3672 76.5459 89.3336 76.329 89.2473 76.1837C89.161 76.034 89.0364 75.9451 88.9453 75.9017C88.8518 75.8561 88.7919 75.8453 88.7943 75.8366L88.7895 75.8388Z" fill="#263238"/>
<path d="M90.0767 76.3984C90.0767 76.3984 90.1415 76.3875 90.2493 76.4244C90.3548 76.4591 90.501 76.5459 90.6089 76.7085C90.7167 76.8625 90.7695 77.1228 90.6233 77.3462C90.4866 77.5631 90.1894 77.741 89.8562 77.6998C89.5254 77.6499 89.2953 77.4026 89.2354 77.1575C89.1683 76.9037 89.3025 76.6695 89.4535 76.5502C89.6069 76.4244 89.7771 76.381 89.8898 76.3745C90.0048 76.368 90.0648 76.3897 90.0624 76.3962C90.0624 76.4049 90 76.4005 89.897 76.4179C89.7939 76.4352 89.6453 76.4873 89.5159 76.6066C89.3864 76.7215 89.2833 76.9211 89.3481 77.1315C89.4032 77.3376 89.6069 77.5458 89.8754 77.5848C90.1439 77.6195 90.4075 77.4742 90.525 77.2898C90.6544 77.1055 90.6209 76.8886 90.5346 76.7432C90.4483 76.5936 90.3236 76.5046 90.2326 76.4613C90.1391 76.4157 90.0791 76.4049 90.0815 76.3962L90.0767 76.3984Z" fill="#263238"/>
<path d="M87.4928 75.3249C87.4928 75.3249 87.5575 75.314 87.6653 75.3509C87.7708 75.3856 87.917 75.4724 88.0249 75.635C88.1328 75.789 88.1855 76.0493 88.0393 76.2727C87.9026 76.4897 87.6054 76.6675 87.2722 76.6263C86.9415 76.5764 86.7113 76.3291 86.6514 76.084C86.5843 75.8303 86.7185 75.596 86.8695 75.4767C87.023 75.3509 87.1931 75.3075 87.3058 75.301C87.4209 75.2945 87.4808 75.3162 87.4784 75.3227C87.4784 75.3314 87.4161 75.327 87.313 75.3444C87.2099 75.3617 87.0613 75.4138 86.9319 75.5331C86.8024 75.6481 86.6994 75.8476 86.7641 76.058C86.8192 76.2641 87.023 76.4723 87.2914 76.5113C87.5599 76.546 87.8235 76.4007 87.941 76.2163C88.0704 76.032 88.0369 75.8151 87.9506 75.6697C87.8643 75.5201 87.7397 75.4312 87.6486 75.3878C87.5551 75.3422 87.4952 75.3314 87.4976 75.3227L87.4928 75.3249Z" fill="#263238"/>
<path d="M89.0125 75.8734C89.0939 75.6782 89.1035 75.457 89.0388 75.2553C89.1491 75.2401 89.3001 75.2466 89.3289 75.3442C89.3408 75.3789 89.3288 75.4179 89.3193 75.4526C89.2641 75.6153 89.1754 75.7672 89.0532 75.8973" fill="#263238"/>
<path d="M91.0811 76.4094C91.0547 76.4137 91.0715 76.186 90.8917 75.8975C90.8006 75.7587 90.6352 75.6155 90.4027 75.5873C90.2901 75.5722 90.1654 75.5852 90.0647 75.6394C89.9617 75.6893 89.8898 75.7999 89.9089 75.8953C89.9257 75.9908 90.0671 76.0081 90.1486 75.9474C90.2253 75.8932 90.223 75.7717 90.1654 75.6958C90.1103 75.6177 90.0048 75.5787 89.9042 75.57C89.8035 75.5613 89.7076 75.583 89.6237 75.6134C89.4583 75.6763 89.3241 75.7544 89.2282 75.7956C89.1323 75.8389 89.0796 75.8606 89.0748 75.852C89.07 75.8455 89.1179 75.8107 89.2042 75.7565C89.2929 75.7045 89.4104 75.6199 89.5878 75.5396C89.6764 75.5027 89.7867 75.4702 89.9089 75.4767C90.0288 75.4811 90.1702 75.5244 90.2565 75.6372C90.338 75.7413 90.3644 75.9214 90.223 76.032C90.1558 76.0819 90.0671 76.1036 89.9785 76.0906C89.885 76.0775 89.8035 76.0038 89.7867 75.9192C89.7531 75.75 89.8706 75.609 90.0024 75.544C90.1367 75.4745 90.2901 75.4615 90.4219 75.4832C90.6952 75.5244 90.8821 75.7001 90.9684 75.8585C91.0595 76.019 91.0811 76.1621 91.0907 76.2597C91.0979 76.3573 91.0907 76.4116 91.0811 76.4116V76.4094Z" fill="#263238"/>
<path d="M87.5766 74.0754C87.5766 74.0754 87.5143 74.1122 87.4472 74.2077C87.3777 74.2988 87.3345 74.468 87.4017 74.661C87.464 74.8497 87.6366 75.0579 87.905 75.1534C88.0369 75.2011 88.1927 75.2098 88.3341 75.1642C88.4755 75.1208 88.6002 75.0124 88.6026 74.8757C88.605 74.8085 88.581 74.7456 88.5306 74.7044C88.4827 74.6653 88.4108 74.648 88.3413 74.6545C88.1975 74.6653 88.0824 74.7608 88.056 74.8801C88.0249 74.9994 88.0584 75.1252 88.1184 75.225C88.1807 75.3247 88.2694 75.4028 88.3581 75.4657C88.5402 75.5829 88.7032 75.687 88.8183 75.6935C88.9405 75.6978 88.9813 75.6284 88.9885 75.6349C88.9981 75.6306 88.9693 75.726 88.8183 75.7369C88.7464 75.7412 88.6625 75.713 88.581 75.674C88.4995 75.6349 88.4036 75.5915 88.3053 75.5286C88.2094 75.4657 88.1064 75.3855 88.0297 75.2705C87.9554 75.1577 87.9098 75.0102 87.9434 74.8562C87.9626 74.7803 88.0009 74.7022 88.0728 74.6458C88.1423 74.5894 88.231 74.5526 88.3269 74.5439C88.4228 74.533 88.5306 74.5547 88.6121 74.6198C88.6936 74.6849 88.7296 74.7846 88.7248 74.8779C88.72 75.0731 88.5426 75.2163 88.3724 75.2662C88.1975 75.3182 88.0105 75.3052 87.8619 75.2466C87.5551 75.1317 87.3729 74.8909 87.3154 74.6805C87.2506 74.4658 87.3154 74.2727 87.4065 74.1816C87.4951 74.0862 87.5742 74.071 87.5766 74.0754Z" fill="#263238"/>
<path d="M90.6376 75.5786C90.6376 75.5786 90.7479 75.6068 90.9396 75.6589C91.0355 75.6827 91.1554 75.7066 91.2896 75.6979C91.4214 75.6893 91.5796 75.6437 91.6755 75.5287L91.7067 75.6003C91.582 75.5851 91.4502 75.57 91.3112 75.5548L91.1098 75.5309L91.2992 75.4593C91.4574 75.3986 91.6204 75.2554 91.6659 75.0971C91.6707 75.0559 91.6587 75.0364 91.6491 75.0385C91.6372 75.032 91.582 75.0602 91.5317 75.0863C91.431 75.1362 91.3303 75.1882 91.2273 75.2403L91.0331 75.3379L91.1434 75.1622C91.1554 75.1427 91.1673 75.1231 91.1769 75.1014C91.2369 74.98 91.2512 74.8455 91.2249 74.7197C91.2129 74.659 91.1865 74.5939 91.1554 74.5787C91.1362 74.5613 91.0954 74.5852 91.0427 74.6351C90.8485 74.8108 90.7359 75.032 90.6951 75.2359L90.6808 75.3053L90.616 75.2663C90.4986 75.1925 90.3883 75.1253 90.2853 75.0602L90.3524 75.0234C90.3763 75.2511 90.4842 75.4181 90.5681 75.5201C90.6544 75.622 90.7167 75.6676 90.7119 75.6762C90.7071 75.6806 90.6328 75.648 90.5321 75.5483C90.4339 75.4507 90.3044 75.2793 90.2661 75.032L90.2541 74.9496L90.3356 74.9952C90.4411 75.0559 90.5537 75.121 90.676 75.1904L90.5969 75.2207C90.6352 74.9973 90.7503 74.7566 90.9612 74.5614C90.9876 74.5375 91.0115 74.5115 91.0547 74.4876C91.0954 74.4616 91.1697 74.4551 91.2201 74.4876C91.316 74.5483 91.3279 74.6329 91.3471 74.7023C91.3783 74.8498 91.3615 75.0082 91.292 75.1513C91.28 75.1774 91.2656 75.2012 91.2512 75.2251L91.1673 75.147C91.2704 75.0949 91.3735 75.0429 91.4742 74.993C91.5245 74.9735 91.5653 74.9279 91.6707 74.9323C91.7187 74.9366 91.7666 74.9756 91.7786 75.0147C91.793 75.0516 91.793 75.0863 91.7882 75.1166C91.7187 75.3444 91.5365 75.4789 91.3447 75.5548L91.3303 75.4593C91.4694 75.4789 91.6012 75.4984 91.7259 75.5157L91.8121 75.5287L91.757 75.5895C91.6276 75.7283 91.443 75.7695 91.2968 75.7738C91.1458 75.776 91.0235 75.7435 90.9276 75.7109C90.7359 75.6437 90.64 75.5895 90.6424 75.583L90.6376 75.5786Z" fill="#263238"/>
<path d="M86.7521 59.9808V57.4734C86.7521 57.4734 87.9194 57.2998 88.4372 57.4734L88.5139 59.9699L86.7521 59.9786V59.9808Z" fill="#455A64"/>
<path d="M84.1058 72.8477H83.1901V81.1031H84.1058V72.8477Z" fill="#EBEBEB"/>
<path d="M56.0154 46.0557L64.5679 64.28L80.1244 63.3191L81.1551 69.8545C81.1551 69.8545 62.8972 75.5157 59.376 73.5419C57.0078 72.2144 51.5139 59.404 51.5139 59.404L56.0154 46.0557Z" fill="#E8505B"/>
<path d="M43.5343 39.7632H35.8471C35.8471 39.7632 22.1651 41.2381 23.3516 53.1137C24.0467 60.0655 26.3454 70.5051 27.6638 77.7259C28.5986 82.8405 29.3249 86.4867 29.3249 86.4867L61.9959 86.4563L58.4604 75.2207L55.711 47.8971C54.9488 43.225 50.5191 39.7654 45.3032 39.7654H43.5367L43.5343 39.7632Z" fill="#E8505B"/>
<path d="M61.9935 86.4541C61.9935 86.4541 61.9552 86.3825 61.9049 86.2415C61.8521 86.094 61.7802 85.8836 61.6867 85.6168C61.5046 85.0637 61.2409 84.2699 60.9149 83.2786C60.2653 81.2831 59.3664 78.4785 58.3429 75.2466V75.2401L58.3405 75.2336C58.1488 74.0623 57.9546 72.8129 57.7844 71.5224C57.5016 69.4054 57.2954 67.3838 57.1085 65.5466C56.9215 63.7094 56.7489 62.0545 56.5835 60.6684C56.4205 59.2802 56.2671 58.161 56.1617 57.3867C56.1113 57.0049 56.0706 56.7056 56.0418 56.4952C56.0178 56.2913 56.0082 56.1828 56.0178 56.1807C56.0274 56.1807 56.0514 56.2848 56.0921 56.4865C56.1305 56.6969 56.1856 56.9941 56.2575 57.3736C56.3918 58.1458 56.5715 59.2629 56.7585 60.6489C56.9479 62.0349 57.1396 63.6899 57.3386 65.5249C57.5375 67.3621 57.7533 69.3815 58.0337 71.4942C58.2039 72.7826 58.3957 74.0298 58.5826 75.1989V75.1859C59.5894 78.4199 60.4571 81.2332 61.0683 83.2396C61.3679 84.2395 61.6052 85.0399 61.773 85.5952C61.8497 85.8663 61.9097 86.0789 61.9504 86.2285C61.9888 86.3738 62.0055 86.4498 61.9983 86.4519L61.9935 86.4541Z" fill="#263238"/>
<path d="M62.4777 66.807C62.4178 66.7831 62.7174 66.0739 63.3263 65.3255C63.9303 64.575 64.5871 64.1022 64.6302 64.1456C64.6806 64.1933 64.1173 64.7269 63.5276 65.4578C62.9356 66.1866 62.5449 66.833 62.4777 66.8048V66.807Z" fill="#263238"/>
<path d="M64.5271 67.5879C64.4672 67.6074 64.1699 66.8743 64.1747 65.9199C64.1747 64.9677 64.4744 64.2345 64.5343 64.254C64.6062 64.2714 64.4216 65.0045 64.424 65.9199C64.4168 66.8352 64.599 67.5705 64.5271 67.5857V67.5879Z" fill="#263238"/>
<path d="M45.6052 52.4151C45.6052 52.4151 45.4926 52.4347 45.2912 52.4477C45.0635 52.4607 44.7759 52.478 44.4307 52.4976C43.7044 52.5344 42.7001 52.5757 41.5903 52.6169C40.4805 52.6559 39.4737 52.6863 38.7474 52.7036C38.4023 52.708 38.1146 52.7123 37.8845 52.7166C37.6808 52.7166 37.5681 52.7145 37.5681 52.7058C37.5681 52.6971 37.6808 52.6863 37.8821 52.6733C38.1098 52.6602 38.3975 52.6429 38.7426 52.6234C39.4689 52.5865 40.4733 52.5453 41.5831 52.5041C42.6929 52.465 43.6972 52.4347 44.4259 52.4173C44.7711 52.413 45.0587 52.4086 45.2888 52.4043C45.4926 52.4043 45.6052 52.4065 45.6052 52.4151Z" fill="#FAFAFA"/>
<path d="M28.3877 65.4036C28.3877 65.4361 27.7549 65.4947 26.9782 65.6032C26.2016 65.7094 25.576 65.8266 25.5664 65.794C25.5592 65.7658 26.1752 65.5988 26.9591 65.4904C27.7429 65.3819 28.3853 65.3732 28.3877 65.4036Z" fill="#FAFAFA"/>
<path d="M56.3222 64.0457C56.3222 64.076 55.3682 64.1172 54.1889 64.1368C53.0096 64.1563 52.0532 64.1454 52.0532 64.1151C52.0532 64.0847 53.0072 64.0435 54.1865 64.024C55.3658 64.0044 56.3222 64.0153 56.3222 64.0457Z" fill="#FAFAFA"/>
<path d="M60.5002 56.7924C60.5122 56.8206 59.6924 57.1287 58.6689 57.48C57.6454 57.8314 56.8064 58.0917 56.7944 58.0613C56.7825 58.0331 57.6022 57.7251 58.6257 57.3738C59.6493 57.0224 60.4882 56.7621 60.5002 56.7924Z" fill="#FAFAFA"/>
<path d="M64.3186 64.3017C64.3186 64.3017 64.2347 64.3624 64.0741 64.4557C63.9135 64.549 63.6738 64.6748 63.3718 64.8223C62.7678 65.1151 61.9024 65.473 60.9053 65.7615C59.9081 66.0499 58.9733 66.217 58.295 66.2951C57.9546 66.3363 57.6789 66.3601 57.4872 66.3688C57.2954 66.3796 57.1899 66.3796 57.1899 66.3731C57.1899 66.3666 57.293 66.3493 57.4824 66.3254C57.6717 66.3037 57.945 66.2669 58.2806 66.217C58.9541 66.1172 59.877 65.9415 60.8669 65.653C61.8569 65.3645 62.7198 65.0218 63.331 64.7485C63.6379 64.6119 63.8824 64.4969 64.0501 64.4167C64.2179 64.3364 64.3138 64.2952 64.3186 64.3017Z" fill="#FAFAFA"/>
<path d="M67.4323 73.0842C67.4323 73.0842 67.3676 72.9714 67.2693 72.761C67.219 72.6569 67.1615 72.5268 67.1015 72.3728C67.0416 72.2188 66.9673 72.0474 66.905 71.85C66.766 71.4596 66.6317 70.9889 66.5143 70.4575C66.4016 69.9261 66.3105 69.3361 66.265 68.7114C66.2242 68.0867 66.2314 67.4902 66.2698 66.9501C66.3129 66.41 66.38 65.9263 66.4639 65.5229C66.4975 65.3212 66.5478 65.1411 66.5862 64.9828C66.6221 64.8245 66.6629 64.6878 66.6964 64.5794C66.7636 64.3581 66.8043 64.2388 66.8139 64.241C66.8211 64.241 66.7971 64.3668 66.7444 64.5902C66.7156 64.7008 66.6845 64.8375 66.6533 64.998C66.6221 65.1563 66.579 65.3364 66.5502 65.5381C66.4783 65.9394 66.4208 66.4209 66.3848 66.9588C66.3561 67.4946 66.3489 68.0867 66.3896 68.7071C66.4352 69.3252 66.5239 69.9109 66.6293 70.4401C66.742 70.9672 66.8666 71.4401 66.9937 71.8305C67.0512 72.0279 67.1183 72.2014 67.1711 72.3554C67.2238 72.5094 67.2741 72.6417 67.3173 72.748C67.4012 72.9627 67.4443 73.0842 67.4347 73.0864L67.4323 73.0842Z" fill="#FAFAFA"/>
<path d="M75.3544 71.2187C75.3544 71.2187 75.2801 71.1385 75.1674 70.9823C75.1099 70.9042 75.0404 70.8088 74.9709 70.6917C74.899 70.5767 74.8127 70.4466 74.7336 70.2947C74.5634 69.9976 74.3884 69.631 74.223 69.2145C74.0648 68.7959 73.921 68.3274 73.8155 67.8242C73.7172 67.321 73.6693 66.8351 73.6549 66.3926C73.6477 65.9501 73.6669 65.551 73.7101 65.2191C73.7244 65.0521 73.7556 64.9046 73.7796 64.7723C73.8011 64.64 73.8275 64.5294 73.8515 64.4383C73.897 64.2561 73.9258 64.1563 73.9354 64.1585C73.9593 64.1628 73.8611 64.5663 73.8011 65.2257C73.77 65.5553 73.758 65.9501 73.7724 66.3883C73.7939 66.8264 73.8443 67.3058 73.9402 67.8025C74.0432 68.2992 74.1823 68.7634 74.3333 69.1798C74.4891 69.5941 74.6545 69.9607 74.8127 70.2578C75.1267 70.8565 75.376 71.2036 75.3544 71.2144V71.2187Z" fill="#FAFAFA"/>
<path d="M31.5853 73.7152C31.59 73.7304 31.3432 73.7998 30.9357 73.8844C30.5282 73.9712 29.9625 74.071 29.3297 74.1447C28.6969 74.2206 28.1216 74.2553 27.7045 74.2683C27.2874 74.2792 27.0286 74.2705 27.0286 74.2553C27.0286 74.238 27.285 74.2206 27.6997 74.1881C28.1144 74.1556 28.6849 74.1078 29.3153 74.0319C29.9433 73.956 30.509 73.8714 30.9189 73.8042C31.3288 73.7391 31.5829 73.6957 31.5853 73.7131V73.7152Z" fill="#FAFAFA"/>
<path d="M57.6813 73.1102C57.6813 73.1406 55.747 73.1384 53.3643 73.1037C50.9793 73.069 49.0473 73.0148 49.0497 72.9844C49.0497 72.954 50.9841 72.9562 53.3667 72.9909C55.7493 73.0256 57.6813 73.0798 57.6813 73.1102Z" fill="#FAFAFA"/>
<path d="M60.0879 80.396C60.0879 80.396 60.0591 80.4003 60.0064 80.4025C59.9465 80.4025 59.8674 80.4068 59.7667 80.409C59.5486 80.4133 59.2394 80.4198 58.8462 80.4263C58.4459 80.4307 57.957 80.4437 57.3889 80.4589C56.8208 80.4697 56.1736 80.4914 55.4593 80.5153C52.5997 80.6064 48.6494 80.8081 44.2893 81.0293C39.9268 81.2528 35.9741 81.4154 33.1121 81.4762C31.6811 81.5065 30.521 81.5217 29.7204 81.5152C29.3273 81.5152 29.018 81.5109 28.7975 81.5109C28.6968 81.5109 28.6177 81.5087 28.5578 81.5065C28.5027 81.5065 28.4763 81.5022 28.4763 81.5022C28.4763 81.5022 28.5051 81.4979 28.5578 81.4957C28.6177 81.4957 28.6968 81.4913 28.7975 81.4892C29.0156 81.4848 29.3249 81.4805 29.718 81.4718C30.5186 81.4631 31.6763 81.435 33.1073 81.3959C35.9693 81.3157 39.9196 81.14 44.2821 80.9165C48.6422 80.6953 52.5925 80.5066 55.4569 80.435C56.1736 80.4155 56.8208 80.4003 57.3889 80.3938C57.957 80.3851 58.4483 80.3786 58.8486 80.3808C59.2417 80.3808 59.551 80.383 59.7715 80.3851C59.8722 80.3851 59.9513 80.3873 60.0112 80.3895C60.0663 80.3895 60.0927 80.3916 60.0927 80.3938L60.0879 80.396Z" fill="#FAFAFA"/>
<path d="M35.7704 42.52C35.7728 42.5374 35.4444 42.5959 34.9171 42.6979C34.3897 42.7998 33.6635 42.9495 32.87 43.1447C32.0766 43.3399 31.3647 43.5417 30.8542 43.6957C30.3412 43.8475 30.0248 43.9473 30.02 43.9321C30.0176 43.9256 30.0919 43.8909 30.231 43.8366C30.37 43.7824 30.5737 43.7065 30.8254 43.6219C31.3312 43.4484 32.0407 43.2336 32.8389 43.0384C33.6371 42.8432 34.3682 42.7044 34.9027 42.622C35.1688 42.5808 35.3869 42.5526 35.5355 42.5352C35.6865 42.52 35.7704 42.5135 35.7704 42.5222V42.52Z" fill="#FAFAFA"/>
<path d="M50.905 42.5266C50.8931 42.5591 50.3154 42.3791 49.5771 42.2966C48.8388 42.212 48.23 42.2576 48.2276 42.2251C48.2204 42.1969 48.8364 42.0971 49.5939 42.186C50.3513 42.2684 50.9194 42.5027 50.9074 42.5266H50.905Z" fill="#FAFAFA"/>
<path d="M24.7011 54.1981C24.7011 54.1981 31.0627 72.5136 35.0944 75.8409C39.1262 79.1682 45.9336 77.5198 47.216 75.2162C48.4984 72.9127 57.3745 48.7473 57.3745 48.7473L47.6643 45.6347L40.713 64.7874L35.7896 47.6693C35.7896 47.6693 32.1054 41.789 27.1292 44.6088C22.1531 47.4285 24.7035 54.1981 24.7035 54.1981H24.7011Z" fill="#E8505B"/>
<path d="M25.4825 56.3737C25.4825 56.3737 25.4945 56.3975 25.5112 56.4474C25.528 56.4973 25.5544 56.571 25.5879 56.6665C25.6551 56.8617 25.7533 57.1502 25.8804 57.5276C26.1393 58.2868 26.518 59.4017 27.007 60.8376C27.5031 62.2735 28.1144 64.0282 28.8646 66.052C29.2386 67.0649 29.6509 68.1451 30.1135 69.2795C30.5785 70.4139 31.0747 71.6156 31.8034 72.7804C32.5272 73.943 33.4429 75.0969 34.651 76.06C35.8423 77.0295 37.3572 77.7952 39.0639 78.0533C39.9124 78.1835 40.8017 78.177 41.6838 78.0533C42.5635 77.9275 43.4384 77.6737 44.2438 77.2746C45.0515 76.8777 45.809 76.368 46.4993 75.7802C46.8469 75.4873 47.1729 75.1728 47.4773 74.8366C47.7841 74.5026 48.0622 74.1447 48.3019 73.7651C48.5464 73.3834 48.7381 72.9908 48.8748 72.5548C49.0258 72.1253 49.1768 71.6937 49.3278 71.2599C49.6322 70.3922 49.9414 69.5138 50.2506 68.6288C50.8738 66.8545 51.5091 65.0434 52.1562 63.1997C53.453 59.5123 54.7929 55.6948 56.1688 51.7861C56.5308 50.7558 56.8927 49.732 57.2499 48.7147L57.3242 48.8536C54.2632 47.8124 51.2646 46.793 48.3474 45.7995L48.508 45.728C47.9136 47.4307 47.2064 49.0575 46.5113 50.6517C45.8042 52.2416 45.1115 53.799 44.4331 55.3195C43.0836 58.3627 41.8036 61.2714 40.8065 64.0673L40.6914 64.3883L40.6027 64.0608C39.4929 59.9786 38.5509 56.2283 37.5489 52.9487C37.3021 52.1288 37.0432 51.3393 36.7867 50.5801C36.5278 49.821 36.257 49.0965 35.9478 48.4198C35.3341 47.0684 34.5215 45.8993 33.4836 45.1315C32.4577 44.3506 31.2688 44.0036 30.2429 43.9103C29.2074 43.804 28.3157 43.9472 27.6326 44.1315C26.9446 44.3224 26.4628 44.5697 26.1464 44.7432C25.9906 44.8321 25.878 44.9124 25.7989 44.958C25.7222 45.0057 25.679 45.0274 25.679 45.0274C25.679 45.0274 25.715 44.997 25.7893 44.9449C25.866 44.8951 25.9739 44.8105 26.1273 44.7172C26.4389 44.5328 26.9207 44.2769 27.6134 44.0751C28.3013 43.8799 29.2002 43.7259 30.2525 43.8257C31.2952 43.9125 32.5081 44.2552 33.5627 45.0469C34.627 45.8234 35.4588 47.0099 36.0868 48.3677C36.4032 49.0488 36.6788 49.7776 36.9425 50.5368C37.2062 51.2959 37.4675 52.0855 37.7191 52.9075C38.7355 56.1893 39.6943 59.9396 40.8113 64.0152L40.6075 64.0087C41.5999 61.1998 42.8751 58.2889 44.2198 55.2414C44.8957 53.7187 45.5861 52.1614 46.2908 50.5715C46.9835 48.9794 47.6882 47.3504 48.2779 45.6629L48.3163 45.5501L48.4361 45.5913C51.3532 46.5826 54.3519 47.602 57.4129 48.641L57.5231 48.6779L57.4872 48.7798C57.13 49.7971 56.7705 50.8209 56.4061 51.8512C55.0302 55.7598 53.6855 59.5774 52.3887 63.2647C51.7392 65.1084 51.1016 66.9174 50.4759 68.6917C50.1643 69.5788 49.8551 70.4551 49.5483 71.3228C49.3949 71.7566 49.2439 72.1882 49.0929 72.6155L48.9778 72.9365L48.8388 73.2575C48.7333 73.4636 48.6279 73.6697 48.4984 73.8649C48.2491 74.2553 47.9639 74.6241 47.6499 74.9646C47.3383 75.3073 47.0051 75.6283 46.6503 75.9255C45.9456 76.5241 45.1738 77.0404 44.3444 77.446C43.5151 77.8559 42.6162 78.1141 41.7149 78.242C40.8137 78.3678 39.9028 78.3722 39.0279 78.2355C37.2757 77.9666 35.7296 77.1792 34.5215 76.1879C33.2943 75.2032 32.3738 74.0319 31.6475 72.8541C30.9141 71.6741 30.4227 70.4616 29.9625 69.3251C29.5046 68.1863 29.0995 67.104 28.7304 66.0888C27.9921 64.0586 27.3929 62.2995 26.9111 60.8593C26.4317 59.419 26.0697 58.2976 25.83 57.5363C25.7126 57.1567 25.6215 56.866 25.5616 56.6687C25.5328 56.5711 25.5112 56.4973 25.4969 56.4474C25.4825 56.3975 25.4777 56.3715 25.4801 56.3715L25.4825 56.3737Z" fill="#263238"/>
<path d="M36.7244 50.1419C36.7244 50.1419 36.6812 50.1462 36.5997 50.1441C36.5039 50.1397 36.3864 50.1354 36.2426 50.1289C35.9334 50.1115 35.4851 50.0963 34.9338 50.0855C33.8288 50.0638 32.2971 50.1007 30.6216 50.2894C28.9461 50.4803 27.4528 50.7883 26.3861 51.0551C25.854 51.1874 25.4226 51.3045 25.1277 51.3891C24.9911 51.426 24.8784 51.4585 24.7873 51.4824C24.7082 51.5019 24.6675 51.5106 24.6651 51.5084C24.6651 51.504 24.7035 51.4889 24.7778 51.4607C24.8664 51.4303 24.9791 51.3934 25.1109 51.3457C25.401 51.2481 25.8276 51.1201 26.3598 50.977C27.4216 50.6885 28.9198 50.3675 30.6025 50.1766C32.2851 49.9879 33.824 49.964 34.9314 50.0052C35.4851 50.0248 35.9334 50.053 36.2426 50.0833C36.384 50.0985 36.5015 50.1094 36.5973 50.1202C36.6788 50.1289 36.7196 50.1375 36.7196 50.1397L36.7244 50.1419Z" fill="#FAFAFA"/>
<path d="M38.5845 56.1807C38.5917 56.211 35.8447 56.7446 32.4506 57.3736C29.0564 58.0005 26.2999 58.4864 26.2927 58.456C26.2855 58.4256 29.03 57.892 32.4266 57.263C35.8207 56.6362 38.5773 56.1503 38.5845 56.1828V56.1807Z" fill="#FAFAFA"/>
<path d="M52.384 61.651C52.384 61.651 52.2617 61.5968 52.0556 61.4797C51.8495 61.3626 51.5474 61.1955 51.1711 60.996C50.4184 60.5969 49.3542 60.085 48.1293 59.6186C46.9021 59.1545 45.7539 58.8248 44.9126 58.6187C44.4931 58.5146 44.1503 58.4365 43.913 58.3866C43.6757 58.3346 43.5463 58.302 43.5463 58.2955C43.5463 58.289 43.6805 58.3064 43.9226 58.3454C44.1647 58.3823 44.5099 58.4495 44.9341 58.5428C45.7827 58.7293 46.9428 59.0482 48.1773 59.5167C49.4093 59.9852 50.4736 60.5123 51.2143 60.9287C51.5858 61.137 51.8806 61.3148 52.0796 61.4428C52.2785 61.5708 52.3864 61.6445 52.3816 61.651H52.384Z" fill="#FAFAFA"/>
<path d="M54.6108 55.1502C54.6108 55.1502 54.5245 55.0613 54.3759 54.8943C54.2272 54.7272 54.0019 54.4952 53.6951 54.2327C53.0887 53.7056 52.1179 53.0983 50.9314 52.6428C49.7449 52.1873 48.6063 51.9292 47.7865 51.7405C47.391 51.6515 47.065 51.58 46.8133 51.5236C46.5832 51.4715 46.4562 51.439 46.4586 51.4303C46.4586 51.4238 46.5904 51.4411 46.8229 51.4802C47.0554 51.5192 47.3934 51.58 47.8057 51.6624C48.6327 51.8294 49.7808 52.0767 50.9793 52.5387C52.1778 52.9985 53.1558 53.6254 53.755 54.1741C54.0571 54.4474 54.2752 54.6904 54.4118 54.8661C54.4837 54.9528 54.5293 55.0244 54.5628 55.0721C54.5964 55.1198 54.6108 55.1459 54.6084 55.148L54.6108 55.1502Z" fill="#FAFAFA"/>
<path d="M40.5668 63.2041C40.5668 63.2041 40.526 63.2171 40.4469 63.2345C40.3535 63.2518 40.2408 63.2713 40.1018 63.2974C39.783 63.3538 39.3539 63.4297 38.8314 63.5208C37.7599 63.716 36.2858 64.011 34.6774 64.4101C33.069 64.8092 31.6332 65.2343 30.6025 65.5619C30.1015 65.7245 29.6892 65.8568 29.3824 65.9566C29.2482 66 29.1403 66.0347 29.0492 66.0629C28.9725 66.0868 28.9318 66.0954 28.9294 66.0933C28.9294 66.0889 28.9653 66.0716 29.0396 66.0412C29.1259 66.0065 29.2338 65.9653 29.3632 65.9154C29.6461 65.807 30.0584 65.6616 30.5713 65.4881C31.5972 65.1411 33.033 64.7029 34.6438 64.3016C36.257 63.9025 37.7383 63.6162 38.8146 63.4427C39.3539 63.3559 39.7902 63.2909 40.0946 63.254C40.2336 63.2366 40.3511 63.2236 40.4445 63.2128C40.5236 63.2041 40.5668 63.2019 40.5668 63.2063V63.2041Z" fill="#FAFAFA"/>
<path d="M40.2432 78.3245C40.2432 78.3245 40.2096 78.2811 40.1569 78.1965C40.0994 78.0989 40.0227 77.9731 39.9268 77.8169C39.8764 77.7323 39.8237 77.6412 39.7638 77.5414C39.7087 77.4395 39.6559 77.3245 39.596 77.2009C39.4809 76.9558 39.3299 76.6803 39.2173 76.3593C39.1549 76.201 39.0902 76.0339 39.0231 75.8604C38.9584 75.6869 38.9105 75.5004 38.8505 75.3095C38.7211 74.9299 38.642 74.5134 38.5437 74.0753C38.3855 73.1968 38.2944 72.2164 38.3304 71.1883C38.3807 70.1602 38.5557 69.1884 38.7858 68.323C38.92 67.8935 39.0351 67.4835 39.1957 67.1148C39.2724 66.9283 39.3347 66.7461 39.4162 66.5769C39.4977 66.4099 39.5768 66.2472 39.6511 66.0932C39.7925 65.7808 39.9627 65.5184 40.0994 65.2798C40.1689 65.1627 40.2312 65.052 40.2959 64.9523C40.363 64.8568 40.4254 64.7679 40.4829 64.6876C40.5907 64.538 40.677 64.4165 40.7442 64.3254C40.8041 64.243 40.8376 64.2018 40.8424 64.2039C40.8448 64.2039 40.8185 64.2517 40.7657 64.3384C40.7034 64.4339 40.6243 64.5575 40.526 64.7115C40.4733 64.7939 40.4134 64.8828 40.351 64.9805C40.2911 65.0802 40.2312 65.193 40.1641 65.3102C40.0346 65.5488 39.8693 65.8134 39.735 66.1257C39.6631 66.2797 39.5864 66.4424 39.5097 66.6094C39.433 66.7786 39.3731 66.9608 39.2988 67.1452C39.143 67.5139 39.0327 67.9217 38.9033 68.349C38.6803 69.2101 38.5102 70.1732 38.4598 71.1926C38.4239 72.2142 38.5102 73.186 38.6612 74.0579C38.7546 74.4917 38.8314 74.906 38.9536 75.2856C39.0111 75.4743 39.0567 75.6609 39.119 75.8344C39.1837 76.0079 39.246 76.1728 39.3036 76.3333C39.4114 76.6543 39.5528 76.9298 39.6631 77.1749C39.7206 77.2963 39.7686 77.4135 39.8213 77.5176C39.8764 77.6195 39.9268 77.7128 39.9747 77.7974C40.061 77.9579 40.1305 78.088 40.1833 78.1856C40.2288 78.2746 40.2528 78.3223 40.248 78.3245H40.2432Z" fill="#FAFAFA"/>
<path d="M50.5335 68.1862C50.5335 68.1862 50.4951 68.1905 50.4208 68.1862C50.3321 68.1819 50.2243 68.1754 50.0972 68.1689C49.9558 68.1623 49.7832 68.1493 49.5867 68.1211C49.3877 68.0929 49.16 68.0734 48.9155 68.0192C48.6686 67.9736 48.3977 67.9216 48.1125 67.8435C47.8249 67.7763 47.5252 67.6786 47.2112 67.5767C46.588 67.3576 45.9192 67.0778 45.2577 66.7134C44.6009 66.3447 44.0184 65.9347 43.5199 65.5313C43.2802 65.3209 43.0453 65.1257 42.8511 64.9218C42.7528 64.822 42.6521 64.7287 42.5635 64.6333C42.4772 64.5357 42.3957 64.4424 42.3166 64.3535C42.1536 64.1778 42.0313 64.0043 41.9163 63.8546C41.7988 63.7071 41.7101 63.5726 41.6406 63.462C41.5759 63.3601 41.5232 63.2755 41.48 63.2061C41.4441 63.1475 41.4273 63.115 41.4321 63.1128C41.4369 63.1128 41.4608 63.1388 41.5016 63.193C41.5519 63.2603 41.6095 63.3405 41.6814 63.436C41.7557 63.5444 41.8515 63.6724 41.9738 63.8156C42.0936 63.9609 42.2207 64.1301 42.3861 64.3014C42.4676 64.3882 42.5515 64.4793 42.6378 64.5747C42.7265 64.668 42.8271 64.7591 42.9278 64.8567C43.1244 65.0563 43.3593 65.245 43.599 65.4532C44.0951 65.8501 44.6752 66.2514 45.3248 66.6158C45.9768 66.9759 46.6383 67.2557 47.2544 67.4769C47.566 67.5789 47.8608 67.6808 48.1437 67.7502C48.4241 67.8327 48.6926 67.8869 48.9371 67.9389C49.1792 67.9975 49.4045 68.0235 49.601 68.0561C49.7976 68.0908 49.9678 68.1103 50.1068 68.1233C50.2338 68.1385 50.3393 68.1515 50.428 68.1623C50.5023 68.1732 50.5407 68.1797 50.5407 68.184L50.5335 68.1862Z" fill="#FAFAFA"/>
<g opacity="0.4">
<path d="M37.5394 53.2047C37.5394 53.2047 37.4962 53.2134 37.4123 53.2199C37.314 53.2264 37.1942 53.2329 37.048 53.2438C36.7316 53.259 36.2737 53.2893 35.7105 53.3349C34.5815 53.4238 33.0282 53.606 31.3407 53.9336C29.6509 54.2654 28.1527 54.6797 27.0861 55.0202C26.5515 55.1894 26.1201 55.3326 25.8252 55.4367C25.6886 55.4823 25.5736 55.5213 25.4825 55.5517C25.4034 55.5777 25.3626 55.5885 25.3602 55.5842C25.3602 55.5799 25.3986 55.5625 25.4729 55.53C25.5616 55.4931 25.6718 55.4497 25.8061 55.3955C26.0961 55.2784 26.5228 55.1244 27.0549 54.9443C28.1192 54.5843 29.6173 54.1548 31.3144 53.8229C33.009 53.4932 34.5719 53.324 35.7033 53.2546C36.269 53.2199 36.7292 53.2004 37.0456 53.1982C37.1918 53.1982 37.314 53.1982 37.4099 53.1982C37.4938 53.1982 37.537 53.2004 37.537 53.2047H37.5394Z" fill="black"/>
</g>
<g opacity="0.4">
<path d="M39.1957 60.2302C39.1957 60.2302 39.1573 60.2432 39.083 60.2563C38.9943 60.2693 38.8841 60.2866 38.7546 60.3083C38.4502 60.3539 38.0403 60.4146 37.5441 60.4883C36.523 60.6445 35.116 60.8831 33.5747 61.2041C32.0334 61.5273 30.6528 61.87 29.6604 62.1347C29.1786 62.2648 28.7807 62.3711 28.4835 62.4513C28.3565 62.4839 28.251 62.5121 28.1623 62.5359C28.088 62.5533 28.0496 62.562 28.0472 62.5576C28.0472 62.5533 28.0832 62.5381 28.1527 62.5142C28.239 62.486 28.3421 62.4513 28.4667 62.4101C28.74 62.3212 29.1379 62.1997 29.6317 62.0587C30.6216 61.7746 31.9999 61.4189 33.5436 61.0957C35.0872 60.7747 36.5014 60.5469 37.5274 60.4124C38.0403 60.343 38.4574 60.2953 38.745 60.2671C38.8769 60.2541 38.9871 60.2454 39.0782 60.2367C39.1549 60.2302 39.1957 60.2302 39.1957 60.2346V60.2302Z" fill="black"/>
</g>
<g opacity="0.2">
<path d="M27.3114 61.8721C28.1743 66.0345 29.7731 71.622 31.5733 75.5306C32.3067 77.1227 33.2056 78.4414 34.7469 79.4544C36.5758 80.656 38.5821 80.925 40.84 80.9445C42.4532 80.9597 43.8938 80.732 45.4638 80.3914C47.0339 80.0509 48.3354 78.6453 49.3158 77.4849C50.4999 76.0837 51.0081 73.2357 51.219 71.4831C51.7679 66.9455 51.8351 67.7372 52.384 63.1995C51.4875 65.4727 51.056 66.6245 50.2674 69.2425C49.4788 71.8606 49.0641 73.0796 47.2136 75.2161C45.3632 77.3504 42.1752 78.5369 39.1957 78.2419C35.6002 77.8862 32.9252 75.2031 31.5037 72.1946C30.0847 69.1861 28.8431 65.0324 27.3689 62.0434" fill="black"/>
</g>
<g opacity="0.4">
<path d="M40.0826 64.4902C40.0826 64.4902 40.0514 64.5184 39.9867 64.5639C39.9076 64.616 39.8117 64.681 39.6966 64.7591C39.4402 64.924 39.0782 65.1734 38.6372 65.4901C38.1961 65.8046 37.6856 66.1994 37.139 66.6527C36.5949 67.1104 36.0149 67.6309 35.4372 68.2057C34.8643 68.7827 34.3489 69.3575 33.8983 69.8933C33.4549 70.4334 33.0713 70.9301 32.7693 71.3595C32.4649 71.7868 32.2276 72.1382 32.0718 72.3855C31.9975 72.4983 31.9352 72.5916 31.8848 72.6675C31.8417 72.7304 31.8153 72.7629 31.8129 72.7629C31.8081 72.7629 31.8273 72.7239 31.8633 72.6566C31.9088 72.5785 31.9615 72.4809 32.0286 72.3638C32.1725 72.11 32.4002 71.75 32.695 71.3162C32.9898 70.8802 33.3638 70.3748 33.8048 69.8304C34.2507 69.2881 34.766 68.709 35.3413 68.1298C35.9214 67.5529 36.5062 67.0323 37.0575 66.5768C37.6137 66.1256 38.129 65.7374 38.5796 65.4293C39.0279 65.1192 39.3994 64.8806 39.6655 64.7244C39.7877 64.6528 39.8884 64.5943 39.9699 64.5465C40.0394 64.5075 40.0778 64.488 40.0802 64.4902H40.0826Z" fill="black"/>
</g>
<g opacity="0.4">
<path d="M47.4413 75.1339C47.4413 75.1339 47.3982 75.1143 47.3191 75.0645C47.2304 75.0081 47.1201 74.9365 46.9835 74.8497C46.8373 74.7564 46.6623 74.6393 46.4682 74.4918C46.274 74.3443 46.0439 74.186 45.8162 73.9843C45.6987 73.8867 45.5765 73.7825 45.4494 73.6763C45.3224 73.5678 45.2002 73.4463 45.0707 73.3249C44.8047 73.0863 44.5482 72.8065 44.2725 72.5158C43.7404 71.9237 43.2011 71.2382 42.7121 70.4747C42.2303 69.7069 41.8516 68.9391 41.5543 68.2233C41.4177 67.861 41.2811 67.5205 41.1876 67.1908C41.1396 67.026 41.0845 66.8698 41.0438 66.7158C41.0054 66.5618 40.9695 66.4143 40.9359 66.2733C40.8592 65.9935 40.8232 65.7332 40.7825 65.5076C40.737 65.282 40.7154 65.0847 40.701 64.9241C40.6866 64.7745 40.6746 64.6508 40.665 64.5532C40.6578 64.4686 40.6579 64.4231 40.6602 64.4231C40.665 64.4231 40.6746 64.4665 40.689 64.5511C40.7034 64.6465 40.7226 64.768 40.7465 64.9176C40.7681 65.0781 40.7969 65.2712 40.8496 65.4946C40.8975 65.718 40.9383 65.9761 41.0198 66.2538C41.0558 66.3948 41.0941 66.5401 41.1349 66.6919C41.1756 66.8438 41.2331 66.9999 41.2835 67.1604C41.3793 67.4858 41.5208 67.8242 41.6598 68.1821C41.9594 68.8892 42.3405 69.6505 42.8175 70.414C43.3017 71.171 43.8363 71.8543 44.3588 72.4464C44.6297 72.7349 44.8814 73.0147 45.1426 73.2555C45.2721 73.3769 45.3895 73.5006 45.5142 73.609C45.6388 73.7175 45.7587 73.8216 45.8737 73.9214C46.0966 74.1253 46.3219 74.2879 46.5113 74.4398C46.6983 74.5916 46.8685 74.7152 47.0099 74.8128C47.1393 74.9061 47.2472 74.9842 47.3311 75.0449C47.403 75.0992 47.4413 75.1295 47.4389 75.1317L47.4413 75.1339Z" fill="black"/>
</g>
<g opacity="0.4">
<path d="M51.2766 64.1866C51.2766 64.1866 51.1351 64.1974 50.8787 64.1974C50.7492 64.1974 50.5934 64.1974 50.4113 64.1822C50.2291 64.1692 50.0205 64.1627 49.7928 64.1302C49.5651 64.1041 49.3134 64.0738 49.0498 64.0217C48.7837 63.9805 48.5032 63.9133 48.2084 63.8439C47.6235 63.6942 46.9907 63.4925 46.3507 63.2235C45.7155 62.9502 45.1403 62.6379 44.6369 62.3255C44.39 62.1628 44.1551 62.011 43.949 61.8527C43.7356 61.7008 43.5511 61.5468 43.3833 61.4037C43.2107 61.2649 43.0717 61.126 42.9446 61.0067C42.8152 60.8896 42.7145 60.7812 42.633 60.6901C42.4676 60.5122 42.3813 60.4102 42.3861 60.4059C42.3909 60.4016 42.494 60.4927 42.669 60.6619C42.7553 60.7465 42.8631 60.8506 42.9949 60.9634C43.1268 61.0761 43.2682 61.2128 43.4432 61.3451C43.6134 61.4839 43.8003 61.6336 44.0137 61.7789C44.2198 61.9351 44.4571 62.0804 44.7016 62.2409C45.2026 62.5446 45.7731 62.8504 46.4035 63.1216C47.0339 63.3862 47.6595 63.5901 48.2372 63.7441C48.5296 63.8135 48.8053 63.8851 49.0689 63.9285C49.3302 63.9827 49.5771 64.0174 49.8024 64.0499C50.0277 64.0868 50.2339 64.0998 50.4136 64.1193C50.5934 64.141 50.7492 64.1497 50.8787 64.154C51.1351 64.1692 51.2766 64.1801 51.2766 64.1887V64.1866Z" fill="black"/>
</g>
<g opacity="0.4">
<path d="M53.9636 57.8638C53.9516 57.892 51.8806 57.1719 49.3422 56.2544C46.8013 55.3369 44.7543 54.5668 44.7663 54.5386C44.7783 54.5104 46.8493 55.2306 49.3877 56.1481C51.9261 57.0656 53.9755 57.8334 53.9636 57.8638Z" fill="black"/>
</g>
<g opacity="0.4">
<path d="M56.1401 51.7666C56.1401 51.7666 56.0154 51.7211 55.8045 51.6235C55.572 51.515 55.27 51.3719 54.908 51.2005C54.1506 50.8448 53.1007 50.3632 51.9237 49.86C50.7468 49.3568 49.6658 48.9295 48.882 48.628C48.5056 48.4827 48.1916 48.3634 47.9519 48.2701C47.7314 48.1855 47.6116 48.1335 47.6163 48.127C47.6187 48.1204 47.7458 48.1573 47.9711 48.2289C48.1964 48.3005 48.52 48.4111 48.9179 48.5543C49.7113 48.8384 50.7996 49.2549 51.9789 49.7581C53.1582 50.2613 54.2057 50.7558 54.9512 51.1311C55.3251 51.3176 55.6247 51.4738 55.8309 51.5844C56.037 51.695 56.1473 51.7601 56.1425 51.7666H56.1401Z" fill="black"/>
</g>
<g opacity="0.4">
<path d="M60.7423 83.7646C60.7423 83.795 53.6448 84.0878 44.8862 84.4175C36.1252 84.7472 29.0253 84.9902 29.0229 84.9576C29.0229 84.9273 36.1204 84.6344 44.8814 84.3047C53.64 83.975 60.7399 83.7321 60.7423 83.7646Z" fill="black"/>
</g>
<g opacity="0.4">
<path d="M62.8876 61.1457C62.8972 61.1761 61.5405 61.521 59.8602 61.9135C58.1799 62.3083 56.8088 62.6033 56.8016 62.5729C56.792 62.5426 58.1487 62.1977 59.829 61.8051C61.5093 61.4103 62.878 61.1153 62.8876 61.1457Z" fill="black"/>
</g>
<g opacity="0.4">
<path d="M61.9552 73.9301C61.9552 73.9301 61.9432 73.8975 61.9288 73.8325C61.9144 73.7544 61.9 73.6589 61.8808 73.5461C61.8593 73.4225 61.8377 73.2685 61.8233 73.0906C61.8089 72.9128 61.7826 72.7111 61.7802 72.4855C61.7562 72.0365 61.7658 71.5007 61.8161 70.9064C61.8737 70.3143 61.9767 69.6657 62.1469 68.9955C62.3219 68.3274 62.5448 67.7027 62.7797 67.1474C63.0242 66.5943 63.2759 66.1085 63.5156 65.7159C63.6283 65.5163 63.7505 65.3428 63.8488 65.191C63.9471 65.037 64.0429 64.909 64.122 64.8049C64.1939 64.7116 64.2539 64.6335 64.3042 64.5684C64.3473 64.5142 64.3713 64.4882 64.3737 64.4904C64.3761 64.4925 64.3593 64.5229 64.3234 64.5815C64.2778 64.6487 64.2251 64.7311 64.1604 64.8287C64.0885 64.935 63.9998 65.0652 63.9063 65.2235C63.8128 65.3797 63.6978 65.5532 63.5899 65.7549C63.3598 66.1518 63.1201 66.6377 62.8828 67.1865C62.6551 67.7396 62.4369 68.3599 62.262 69.0215C62.0942 69.6852 61.9887 70.3294 61.924 70.9173C61.8689 71.5051 61.8473 72.0387 61.8617 72.4855C61.8617 72.7089 61.8784 72.9106 61.888 73.0885C61.8952 73.2663 61.9096 73.4182 61.924 73.544C61.9336 73.6568 61.9432 73.7522 61.948 73.8325C61.9528 73.8975 61.9528 73.9344 61.948 73.9344L61.9552 73.9301Z" fill="black"/>
</g>
<g opacity="0.4">
<path d="M71.2699 71.7372C71.2699 71.7372 71.2051 71.6439 71.1045 71.4639C71.0038 71.286 70.8767 71.0192 70.7377 70.683C70.5963 70.3468 70.4573 69.9369 70.3326 69.477C70.2152 69.015 70.1145 68.4988 70.057 67.9522C70.0042 67.4056 70.0019 66.8807 70.0258 66.4078C70.057 65.9328 70.1121 65.5077 70.1864 65.1541C70.2559 64.8006 70.3302 64.5164 70.3926 64.3255C70.4549 64.1325 70.4908 64.0284 70.5004 64.0306C70.5076 64.0306 70.486 64.1412 70.4405 64.3364C70.3902 64.5316 70.3326 64.8157 70.2727 65.1671C70.2128 65.5185 70.1648 65.9415 70.1409 66.4122C70.1217 66.8829 70.1289 67.4013 70.1816 67.9414C70.2392 68.4814 70.335 68.9933 70.4453 69.4532C70.5628 69.9109 70.6922 70.3208 70.8216 70.657C70.9487 70.9932 71.0637 71.2643 71.15 71.4465C71.2339 71.6309 71.277 71.735 71.2699 71.7394V71.7372Z" fill="black"/>
</g>
<g opacity="0.4">
<path d="M77.8281 70.3923C77.8281 70.3923 77.7634 70.3163 77.6675 70.171C77.5692 70.0257 77.4422 69.8066 77.3032 69.5268C77.1617 69.2492 77.0227 68.9065 76.8933 68.5182C76.771 68.1278 76.6656 67.6918 76.6008 67.2298C76.5409 66.7656 76.5265 66.3188 76.5409 65.9132C76.5625 65.5076 76.6056 65.1453 76.668 64.8438C76.7279 64.5423 76.7926 64.3016 76.8501 64.1389C76.9053 63.9762 76.9388 63.8873 76.9484 63.8894C76.97 63.896 76.8549 64.2582 76.7567 64.8568C76.7063 65.1562 76.6704 65.5162 76.656 65.9153C76.6488 66.3144 76.6656 66.7548 76.7255 67.2146C76.7902 67.6723 76.8909 68.1039 77.0059 68.49C77.1258 68.8739 77.2576 69.2166 77.3871 69.4964C77.6435 70.0561 77.8521 70.3836 77.8329 70.3944L77.8281 70.3923Z" fill="black"/>
</g>
<path d="M34.5743 25.1763C34.7541 25.5645 34.6534 26.0482 34.3274 26.3497C34.0038 26.6512 33.4741 26.7575 33.0378 26.6057C32.2108 26.3172 32.0023 25.3455 32.0694 24.5473C32.1365 23.749 32.3355 22.8836 31.892 22.1917C31.5517 21.6624 30.9093 21.3653 30.3891 20.9705C29.4855 20.2851 28.9246 19.2136 29.0061 18.1486C29.0876 17.0836 29.8498 16.0619 30.9476 15.6715C32.0694 15.2724 33.5268 15.4633 34.301 14.6282C34.8619 14.023 34.7996 13.1207 35.2071 12.4223C35.8423 11.3377 37.4051 11.0319 38.7594 11.0731C40.1137 11.1165 41.5184 11.379 42.7936 10.9625C43.8578 10.6154 44.6776 9.84327 45.6556 9.32486C47.7721 8.2013 50.6677 8.43772 52.5278 9.88665C54.3878 11.3356 55.0782 13.8885 54.1673 15.9513C53.8389 16.691 53.2493 18.7993 50.7396 19.0032" fill="#263238"/>
<path d="M33.2152 16.7277L33.4117 18.3523L36.1779 42.6978C36.499 45.524 39.4402 47.5261 42.7816 47.1899C46.1565 46.8515 48.6686 44.2617 48.3977 41.4028C48.1125 38.4009 47.8704 35.2362 47.8704 35.2362C47.8704 35.2362 52.0795 34.2493 52.4654 29.1325C52.6572 26.5882 52.1131 22.4866 51.5474 19.144C51.0392 16.1356 47.8656 14.114 44.5649 14.704L33.2128 16.7277H33.2152Z" fill="#FFBE9D"/>
<path d="M46.5281 27.0415C46.5209 27.0024 46.9907 26.8897 47.7577 26.7356C47.9519 26.7009 48.1341 26.6511 48.1556 26.5274C48.1892 26.3951 48.0885 26.2107 47.9735 26.0112C47.7458 25.5969 47.5085 25.1609 47.2592 24.7054C46.262 22.8444 45.5213 21.3065 45.6052 21.2696C45.6891 21.2349 46.564 22.7142 47.5612 24.5753C47.8033 25.0351 48.0334 25.4733 48.2515 25.8919C48.345 26.0871 48.496 26.3062 48.4217 26.5816C48.381 26.7183 48.2467 26.8267 48.1245 26.868C48.0022 26.9135 47.892 26.9244 47.7961 26.9374C47.0195 27.0393 46.5377 27.0805 46.5305 27.0415H46.5281Z" fill="#263238"/>
<path d="M47.8728 35.2363C47.8728 35.2363 44.1454 35.7591 40.2288 34.0369C40.2288 34.0369 42.4316 37.3447 47.9639 36.4207L47.8704 35.2342L47.8728 35.2363Z" fill="#EB996E"/>
<path d="M42.8607 19.9076C42.8032 20.1029 42.0266 20.0747 41.1349 20.246C40.2384 20.4022 39.5337 20.6993 39.397 20.5388C39.3347 20.4629 39.445 20.2742 39.7206 20.066C39.9939 19.8599 40.4421 19.6474 40.9791 19.5497C41.516 19.4521 42.0194 19.4912 42.3597 19.5845C42.7025 19.6777 42.8847 19.8144 42.8607 19.9055V19.9076Z" fill="#263238"/>
<path d="M50.2938 19.3719C50.174 19.541 49.6274 19.4196 48.9898 19.463C48.3498 19.4868 47.8225 19.6647 47.6835 19.5085C47.6211 19.4326 47.6907 19.2678 47.9112 19.0986C48.1293 18.9315 48.5056 18.7775 48.9443 18.7537C49.3829 18.7298 49.776 18.8426 50.0157 18.9879C50.2578 19.1333 50.3465 19.2894 50.2938 19.3719Z" fill="#263238"/>
<path d="M51.5138 16.8926C51.5138 16.8926 48.8004 18.4716 44.8214 17.1897C42.2111 16.3481 39.2676 16.1204 38.6947 16.6366C38.1218 17.155 38.2968 19.4651 35.9478 20.4021C35.9478 20.4021 36.7028 24.7641 34.7517 24.8183C32.8005 24.8747 32.2252 16.0445 32.2252 16.0445L37.5394 15.3547L42.573 13.908L47.5109 13.9947L51.3916 14.5131L51.5138 16.8926Z" fill="#263238"/>
<path d="M31.9712 14.8016C31.9376 14.7365 32.3786 14.5457 32.9324 14.678C33.4861 14.806 33.7665 15.1704 33.7042 15.2116C33.6443 15.2658 33.3231 15.038 32.858 14.9339C32.3978 14.819 31.9951 14.8754 31.9712 14.8016Z" fill="#263238"/>
<path d="M33.4333 13.188C33.5244 13.188 33.5436 13.7042 33.7042 14.2921C33.86 14.882 34.1884 15.2898 34.1237 15.3397C34.0733 15.3939 33.5963 15.0144 33.4189 14.3571C33.2464 13.7086 33.3638 13.1837 33.4309 13.188H33.4333Z" fill="#263238"/>
<path d="M34.6869 23.0007C34.603 22.9725 31.3671 22.2632 31.6235 25.2066C31.88 28.1522 35.0944 27.3106 35.092 27.226C35.092 27.1414 34.6869 23.0007 34.6869 23.0007Z" fill="#FFBE9D"/>
<path d="M34.0013 26.1806C33.987 26.1719 33.9486 26.2196 33.8551 26.2674C33.764 26.3129 33.6058 26.352 33.4333 26.3064C33.0785 26.2175 32.7477 25.7446 32.6854 25.2132C32.6542 24.9464 32.6926 24.6861 32.7789 24.4671C32.8604 24.2436 32.9994 24.0831 33.172 24.0419C33.3422 23.9942 33.4716 24.0788 33.5196 24.159C33.5699 24.2393 33.5555 24.2979 33.5723 24.3022C33.5819 24.3087 33.637 24.248 33.601 24.1287C33.5819 24.0723 33.5387 24.005 33.4572 23.953C33.3733 23.9009 33.2559 23.8792 33.136 23.9009C32.8867 23.9335 32.6782 24.159 32.5847 24.3998C32.4769 24.6427 32.4241 24.9334 32.4601 25.2349C32.532 25.827 32.9179 26.3585 33.3973 26.4474C33.6298 26.4843 33.8168 26.4083 33.9079 26.3324C34.0013 26.2522 34.0133 26.1849 34.0013 26.1806Z" fill="#EB996E"/>
<path d="M47.9207 8.58515C47.9207 8.58515 47.9447 8.58298 47.9927 8.58515C48.0406 8.58949 48.1101 8.58949 48.2012 8.60684C48.3834 8.63287 48.6518 8.70011 48.9634 8.85411C49.2703 9.00811 49.6202 9.26189 49.8983 9.64364C50.1787 10.0189 50.3825 10.546 50.2986 11.1251C50.2219 11.6999 49.8647 12.2986 49.275 12.7237C48.9778 12.9341 48.6183 13.0924 48.2204 13.164C47.8201 13.2313 47.3886 13.1792 46.9979 13.0143C46.6144 12.856 46.25 12.5372 46.1877 12.1099C46.1566 11.9038 46.1949 11.6847 46.298 11.4938C46.401 11.303 46.5593 11.1403 46.739 11.0058C47.1034 10.7412 47.5516 10.5763 48.019 10.4983C48.484 10.4202 48.9658 10.4028 49.4476 10.4484C50.4112 10.5373 51.3293 10.9169 51.9621 11.5264C52.5973 12.125 52.9544 12.9319 52.9137 13.6998C52.8753 14.4698 52.4966 15.153 52.0196 15.6671C51.5378 16.1855 50.9505 16.5499 50.3753 16.7842C49.2127 17.2483 48.1676 17.2961 47.4749 17.3134C47.1249 17.3199 46.8517 17.3069 46.6671 17.2982C46.5832 17.2917 46.5137 17.2874 46.4586 17.283C46.4106 17.2787 46.3867 17.2765 46.3867 17.2722C46.3867 17.27 46.4106 17.2679 46.4586 17.2679C46.5161 17.2679 46.5832 17.2679 46.6671 17.2679C46.8517 17.2679 47.1225 17.2679 47.4701 17.2548C48.1604 17.2201 49.1935 17.1551 50.3273 16.6887C50.8882 16.4545 51.4539 16.0944 51.9165 15.589C52.3768 15.088 52.7363 14.4264 52.7675 13.6933C52.8034 12.9623 52.4606 12.1944 51.8494 11.6196C51.243 11.0362 50.3633 10.6739 49.4308 10.5872C48.508 10.5113 47.5252 10.6154 46.8349 11.1121C46.4945 11.3507 46.2716 11.7216 46.3339 12.0882C46.3843 12.4547 46.7007 12.7432 47.0578 12.8929C47.4174 13.0469 47.8225 13.0968 48.1916 13.036C48.5631 12.9688 48.9059 12.8235 49.1912 12.6261C49.7568 12.2248 50.1068 11.6565 50.1859 11.1078C50.2722 10.5568 50.0876 10.0493 49.8216 9.68269C49.5579 9.30961 49.2247 9.05583 48.9299 8.89749C48.3258 8.58081 47.9088 8.60684 47.9183 8.58081L47.9207 8.58515Z" fill="white"/>
<path d="M43.539 27.8766C43.5055 27.8506 43.6133 27.6857 43.7763 27.5079C43.9417 27.33 44.1023 27.2064 44.1335 27.2302C44.167 27.2563 44.0592 27.4211 43.8962 27.599C43.7308 27.7768 43.5702 27.9005 43.539 27.8766Z" fill="#263238"/>
<path d="M44.2389 28.0197C44.203 27.998 44.2893 27.8331 44.4283 27.6553C44.5697 27.4774 44.7111 27.3516 44.7471 27.3733C44.7831 27.395 44.6968 27.5598 44.5577 27.7377C44.4163 27.9155 44.2749 28.0413 44.2389 28.0197Z" fill="#263238"/>
<path d="M44.8717 28.3147C44.831 28.3039 44.8646 28.0956 44.9844 27.8657C45.1067 27.6358 45.2649 27.4818 45.2984 27.5035C45.3344 27.5252 45.2409 27.7074 45.1258 27.9265C45.0084 28.1455 44.9125 28.3256 44.8717 28.3147Z" fill="#263238"/>
<path d="M45.6627 28.2801C45.6196 28.2714 45.6268 28.0892 45.6771 27.8701C45.7274 27.6532 45.8042 27.4819 45.8449 27.4905C45.888 27.4992 45.8809 27.6814 45.8305 27.9005C45.7802 28.1174 45.7035 28.2888 45.6627 28.2801Z" fill="#263238"/>
<path d="M46.31 28.5404C46.2668 28.5339 46.2716 28.3257 46.322 28.0762C46.3723 27.8268 46.4466 27.6316 46.4874 27.6381C46.5305 27.6446 46.5257 27.8528 46.4754 28.1023C46.4274 28.3517 46.3507 28.5469 46.31 28.5404Z" fill="#263238"/>
<path d="M47.089 28.5381C47.0458 28.5381 47.0147 28.3689 47.0218 28.1629C47.029 27.9568 47.0674 27.7898 47.1105 27.7898C47.1537 27.7898 47.1848 27.959 47.1777 28.165C47.1705 28.3711 47.1321 28.5381 47.089 28.5381Z" fill="#263238"/>
<path d="M47.7434 28.7724C47.7002 28.7724 47.6619 28.5381 47.6163 28.254C47.5708 27.9676 47.5348 27.7334 47.5756 27.7225C47.6163 27.7117 47.7242 27.9373 47.7697 28.2323C47.8177 28.5273 47.7841 28.7724 47.741 28.7724H47.7434Z" fill="#263238"/>
<path d="M48.3594 28.5491C48.3162 28.5556 48.2515 28.3886 48.2131 28.1782C48.1748 27.9678 48.1796 27.7899 48.2227 27.7834C48.2659 27.7769 48.3306 27.9439 48.3689 28.1543C48.4073 28.3647 48.4025 28.5426 48.3594 28.5491Z" fill="#263238"/>
<path d="M49.0449 28.4667C49.0018 28.4754 48.9419 28.3604 48.9107 28.2129C48.8795 28.0654 48.8867 27.9374 48.9299 27.9309C48.973 27.9244 49.0329 28.0372 49.0641 28.1847C49.0953 28.3322 49.0881 28.458 49.0449 28.4667Z" fill="#263238"/>
<path d="M48.1652 31.8287C48.1509 31.846 48.0142 31.7701 47.7745 31.6942C47.5372 31.6183 47.1897 31.551 46.8109 31.5879C46.4322 31.6248 46.1086 31.7592 45.8953 31.8785C45.6796 32 45.5645 32.0998 45.5453 32.0846C45.5309 32.0738 45.6196 31.9458 45.8306 31.7961C46.0391 31.6465 46.3795 31.4859 46.7918 31.4469C47.204 31.4057 47.5756 31.4968 47.8153 31.6009C48.0574 31.7072 48.1748 31.8135 48.1628 31.8265L48.1652 31.8287Z" fill="#EB996E"/>
<path d="M43.5486 21.9942C43.5606 21.9898 43.6062 22.0397 43.6373 22.1482C43.6709 22.2544 43.6925 22.4236 43.6445 22.6232C43.5942 22.8206 43.4815 23.0548 43.2538 23.2435C43.0309 23.4387 42.6857 23.545 42.3478 23.5515C41.6694 23.5645 41.0917 23.3889 40.7034 23.2197C40.3151 23.0461 40.1186 22.8791 40.1353 22.8574C40.1569 22.8292 40.3846 22.9442 40.7729 23.0722C41.1565 23.198 41.7221 23.3368 42.3358 23.326C42.6402 23.3173 42.911 23.237 43.1004 23.0874C43.2946 22.9399 43.4096 22.749 43.4743 22.582C43.5966 22.2393 43.5079 22.0028 43.5486 21.9942Z" fill="#263238"/>
<path d="M50.9937 21.2697C51.0177 21.2589 51.1519 21.4693 51.1016 21.8402C51.0752 22.0224 50.9985 22.2393 50.8307 22.4389C50.7444 22.5386 50.6365 22.6319 50.4975 22.7013C50.3609 22.7707 50.2051 22.8098 50.0469 22.8228C49.4165 22.8597 48.8915 22.671 48.5512 22.4974C48.2084 22.3196 48.043 22.1547 48.0622 22.133C48.0837 22.1048 48.2851 22.222 48.6279 22.3543C48.9658 22.4822 49.4788 22.6297 50.0205 22.5972C50.289 22.5755 50.5047 22.4671 50.6509 22.3066C50.7995 22.1482 50.8834 21.966 50.9266 21.8077C51.0153 21.4888 50.9505 21.2763 50.9913 21.2676L50.9937 21.2697Z" fill="#263238"/>
<path d="M46.9835 29.343C46.9955 29.369 46.8588 29.458 46.5976 29.5252C46.3387 29.5925 45.9528 29.6185 45.5453 29.5317C45.1402 29.4428 44.8094 29.2584 44.6129 29.0914C44.4139 28.9244 44.3372 28.7856 44.3612 28.7682C44.4139 28.7227 44.8574 29.1565 45.6028 29.3127C46.3435 29.484 46.9595 29.2801 46.9835 29.3452V29.343Z" fill="#263238"/>
<path d="M47.6427 30.2323C47.6427 30.2323 47.6738 30.1932 47.7433 30.1152C47.8153 30.0349 47.9183 29.9221 48.0526 29.7746C48.1221 29.7009 48.194 29.6119 48.2875 29.5273C48.3833 29.4449 48.4864 29.3538 48.6015 29.254C48.7165 29.1586 48.8316 29.0437 48.973 28.9439C49.1168 28.8441 49.2702 28.7356 49.4308 28.6229C50.0924 28.1912 50.9817 27.7422 52.1035 27.4429C52.3791 27.3561 52.6788 27.3084 52.9808 27.2433C53.2876 27.1956 53.604 27.1392 53.9348 27.1154C54.594 27.0546 55.2987 27.0329 56.0369 27.1132H56.0585L56.0681 27.1305C56.4852 27.8138 56.8304 28.5686 57.1971 29.3603C57.559 30.1542 57.9162 30.9936 58.2757 31.8721C58.6425 32.7484 58.8247 33.7592 58.5802 34.7613C58.3189 35.7525 57.5902 36.6787 56.5403 37.2166L56.5691 37.1494C57.7436 39.7479 59.0284 42.5959 60.3731 45.5696L60.306 45.5349C61.1354 45.4287 62.0246 45.3397 62.9307 45.3224C63.1992 45.3202 63.4676 45.3224 63.7361 45.3462C64.0022 45.3766 64.2802 45.3961 64.5247 45.5545C64.5535 45.5783 64.5798 45.6 64.6062 45.6347C64.635 45.6738 64.635 45.7236 64.6254 45.7627C64.6014 45.8386 64.5535 45.8907 64.5079 45.9384C64.4121 46.0317 64.3042 46.1054 64.1939 46.1748C63.9734 46.3136 63.7457 46.4308 63.5132 46.5435C62.5855 46.9882 61.6315 47.3483 60.6799 47.6758C60.2029 47.8385 59.7283 47.9881 59.2489 48.1204C59.0092 48.1855 58.7695 48.2463 58.5226 48.294C58.4004 48.3157 58.2781 48.3374 58.1487 48.346C58.084 48.3482 58.0193 48.3504 57.9426 48.3308C57.9018 48.3222 57.8539 48.2788 57.8443 48.2463C57.8251 48.2137 57.8203 48.179 57.8179 48.1465C57.8203 47.8927 57.9498 47.6953 58.0552 47.4958C58.1703 47.2984 58.2973 47.1118 58.4315 46.9296C58.6976 46.5652 58.9781 46.216 59.2705 45.8798L59.2633 45.934C57.8131 42.9082 56.4876 40.1427 55.337 37.7415L55.3898 37.7676C54.4358 37.9194 53.477 37.8261 52.6812 37.4921C52.475 37.4227 52.2952 37.3121 52.1059 37.2253C51.9333 37.1147 51.7487 37.0214 51.5929 36.9C51.5114 36.8414 51.4323 36.785 51.3532 36.7264C51.2789 36.6635 51.2046 36.6028 51.1327 36.5421C50.9817 36.4249 50.8546 36.2883 50.7204 36.1646C50.2027 35.6484 49.8072 35.104 49.474 34.5899C49.1456 34.0737 48.8843 33.5813 48.671 33.1301C48.2443 32.2278 47.9998 31.4968 47.8416 31.0001C47.7649 30.7507 47.7122 30.5598 47.681 30.4297C47.6475 30.2995 47.6379 30.2323 47.6379 30.2323C47.6379 30.2323 47.6594 30.2974 47.6954 30.4253C47.7338 30.5533 47.7889 30.7442 47.8704 30.9915C48.0358 31.486 48.2875 32.2148 48.7213 33.1106C48.9394 33.5574 49.2007 34.0476 49.5315 34.5595C49.8647 35.0693 50.2626 35.6072 50.7779 36.1169C50.9122 36.2384 51.0392 36.3729 51.1878 36.49C51.2597 36.5507 51.334 36.6115 51.4084 36.6722C51.4875 36.7286 51.5666 36.785 51.6457 36.8414C51.7991 36.9607 51.9812 37.0518 52.1514 37.1602C52.336 37.247 52.5158 37.3533 52.7171 37.4205C53.4985 37.7459 54.4382 37.8348 55.373 37.683L55.4113 37.6765L55.4257 37.7068C56.5811 40.1058 57.9138 42.8692 59.3712 45.8928L59.3856 45.921L59.364 45.9471C59.0763 46.2811 58.7935 46.6281 58.5322 46.9882C58.4004 47.1682 58.2757 47.3548 58.1631 47.5456C58.0576 47.7344 57.9378 47.9426 57.9402 48.1378C57.945 48.1833 57.9593 48.2224 57.9857 48.2246C58.0289 48.2354 58.0888 48.2376 58.1463 48.2332C58.2638 48.2267 58.3836 48.2072 58.5035 48.1833C58.7432 48.1378 58.9805 48.0771 59.2178 48.012C59.6924 47.8819 60.167 47.73 60.6416 47.5695C61.586 47.2442 62.54 46.8841 63.458 46.4438C63.6858 46.3331 63.9135 46.2139 64.1244 46.0815C64.2299 46.0143 64.3329 45.9427 64.4168 45.8625C64.4576 45.8213 64.4935 45.7757 64.5055 45.7367C64.5055 45.7171 64.5103 45.7041 64.4983 45.6911C64.4888 45.6759 64.4648 45.6564 64.4456 45.6412C64.2562 45.5154 63.9782 45.4851 63.7241 45.459C63.4628 45.4352 63.1968 45.433 62.9331 45.4352C62.0366 45.4503 61.1497 45.5414 60.3252 45.6456L60.2772 45.6521L60.2581 45.6109C58.9181 42.6349 57.6333 39.787 56.4636 37.1884L56.4444 37.1451L56.4924 37.1212C57.5063 36.605 58.223 35.7005 58.4771 34.7374C58.7168 33.7635 58.5418 32.7701 58.1823 31.9025C57.8251 31.024 57.4704 30.1846 57.1132 29.3907C56.7537 28.599 56.4061 27.8398 56.001 27.1674L56.0322 27.1848C55.3083 27.1045 54.6059 27.124 53.9516 27.1804C53.6232 27.2043 53.3092 27.2585 53.0024 27.3041C52.7003 27.3691 52.4031 27.4147 52.1298 27.4993C51.0152 27.7921 50.1284 28.2303 49.4668 28.6554C49.3038 28.766 49.1528 28.8723 49.009 28.9699C48.8651 29.0675 48.7501 29.1825 48.635 29.2757C48.52 29.3733 48.4145 29.4623 48.3186 29.5425C48.2251 29.625 48.1532 29.7117 48.0813 29.7833C47.9423 29.9265 47.8368 30.0371 47.7625 30.1152C47.6906 30.1889 47.6499 30.228 47.6499 30.228L47.6427 30.2323Z" fill="#263238"/>
<path d="M50.9337 35.6181C51.533 36.1256 52.2641 36.6809 53.0431 36.913C53.906 37.169 54.896 37.1212 55.7109 36.7525C56.4229 36.4315 57.0988 35.8675 57.456 35.2255C57.7196 34.7505 57.9402 34.1214 57.9234 33.5922C57.909 33.0608 57.4392 32.5163 56.943 32.2322C56.454 31.9502 55.8236 31.9611 55.2531 32.0543C54.7737 32.1324 54.2727 32.2582 53.8149 32.1151C53.3787 31.9784 53.0766 31.627 52.7483 31.332C52.2113 30.8505 51.5474 30.4861 50.8259 30.2822C50.4543 30.1781 50.0468 30.1152 49.6849 30.2453C49.2774 30.3907 49.0066 30.7616 48.9203 31.1498C48.834 31.5381 48.9059 31.9415 49.0257 32.3211C49.3997 33.5271 50.1427 34.5965 50.9361 35.6224" fill="#E8505B"/>
<path opacity="0.2" d="M50.9337 35.6181C51.533 36.1256 52.2641 36.6809 53.0431 36.913C53.906 37.169 54.896 37.1212 55.7109 36.7525C56.4229 36.4315 57.0988 35.8675 57.456 35.2255C57.7196 34.7505 57.9402 34.1214 57.9234 33.5922C57.909 33.0608 57.4392 32.5163 56.943 32.2322C56.454 31.9502 55.8236 31.9611 55.2531 32.0543C54.7737 32.1324 54.2727 32.2582 53.8149 32.1151C53.3787 31.9784 53.0766 31.627 52.7483 31.332C52.2113 30.8505 51.5474 30.4861 50.8259 30.2822C50.4543 30.1781 50.0468 30.1152 49.6849 30.2453C49.2774 30.3907 49.0066 30.7616 48.9203 31.1498C48.834 31.5381 48.9059 31.9415 49.0257 32.3211C49.3997 33.5271 50.1427 34.5965 50.9361 35.6224" fill="black"/>
<path d="M56.0154 27.0568C56.0154 27.0568 55.9315 27.15 55.7637 27.3019C55.6798 27.3799 55.5767 27.471 55.4473 27.5708C55.3203 27.6706 55.1788 27.7921 55.0087 27.907C54.6779 28.1521 54.2632 28.4167 53.7838 28.6857C53.2996 28.9482 52.7507 29.2106 52.149 29.4405C51.5474 29.6661 50.9529 29.8331 50.4064 29.9589C49.8575 30.0782 49.3565 30.1563 48.9323 30.1975C48.7213 30.2236 48.5272 30.2301 48.3594 30.2409C48.1916 30.2539 48.0454 30.2561 47.9255 30.2539C47.6882 30.2539 47.5564 30.2518 47.5564 30.2431C47.5564 30.2344 47.6882 30.2236 47.9231 30.2106C48.0406 30.204 48.1868 30.1954 48.3522 30.178C48.52 30.1607 48.7117 30.1498 48.9203 30.1173C49.3398 30.0674 49.8359 29.9806 50.3777 29.857C50.917 29.7269 51.5042 29.5577 52.1011 29.3343C52.6956 29.1065 53.2421 28.8506 53.7239 28.5946C54.2033 28.3322 54.6203 28.0762 54.9535 27.8419C55.1261 27.7292 55.2699 27.6164 55.3994 27.5209C55.5312 27.4255 55.6391 27.3387 55.7278 27.2672C55.9051 27.124 56.0058 27.0481 56.013 27.0546L56.0154 27.0568Z" fill="#263238"/>
<path d="M50.3129 44.1402L54.2679 38.5571C54.2679 38.5571 60.6511 36.4965 61.0203 37.1255C61.3918 37.7567 60.644 38.4985 60.644 38.4985C60.644 38.4985 62.039 38.8586 61.8472 39.8607C61.6555 40.8628 61.4302 41.0125 61.4302 41.0125C61.4302 41.0125 62.4968 41.2511 62.2571 41.687C62.0174 42.123 61.5476 42.6544 61.5476 42.6544C61.5476 42.6544 62.3171 43.0514 62.1541 43.5351C61.9911 44.0188 60.4258 45.459 60.4258 45.459L56.0729 46.8667L56.1064 48.0706L50.0085 46.1162L50.3153 44.1402H50.3129Z" fill="#FFBE9D"/>
<g opacity="0.2">
<path d="M55.7493 28.7985C56.5307 29.8917 56.8016 30.8547 57.1036 32.128C57.3385 33.117 57.4104 34.1821 56.9646 35.1082C56.5187 36.0344 55.4353 36.7654 54.3327 36.6157C53.9947 36.5702 53.6591 36.4379 53.4458 36.1949C53.2348 35.952 53.1749 35.5898 53.3619 35.3295C53.6112 34.9846 54.1409 34.9521 54.5604 34.7959C55.3226 34.5096 55.7637 33.7396 55.7829 32.9934C55.802 32.2473 55.4664 31.5293 55.0398 30.8916C54.8193 30.5619 54.5676 30.2387 54.4453 29.87C54.3231 29.5012 54.3495 29.0609 54.6419 28.7768C54.9343 28.4926 55.524 28.4731 55.7517 28.8006" fill="white"/>
</g>
<path d="M10.0147 66.3643C11.2372 66.412 12.3781 67.0215 13.1763 67.8609C13.9745 68.7003 14.4587 69.7501 14.7655 70.8217C15.3576 72.8953 14.9597 75.3333 14.2861 77.3874C11.8196 76.5675 10.3143 74.1663 9.63596 72.9061C8.56451 70.9128 7.96286 66.7222 10.0123 66.3643" fill="#455A64"/>
<path d="M17.8265 79.9229C17.0546 78.9013 17.0498 77.4914 17.6779 76.3917C18.3059 75.2941 19.4996 74.5068 20.8083 74.1532C21.4148 73.9905 22.1147 73.9255 22.6372 74.2465C23.1262 74.548 23.3324 75.1315 23.2629 75.6629C23.1933 76.1943 22.8913 76.678 22.5366 77.1053C21.3189 78.5694 19.8447 79.7862 17.8241 79.9207" fill="#455A64"/>
<path d="M17.582 85.2785C17.5508 85.2828 17.4166 84.7579 17.2799 83.8881C17.2128 83.4543 17.1985 82.9186 17.2632 82.3416C17.3303 81.7668 17.3926 81.1334 17.5652 80.474C17.8984 79.1553 18.5839 78.0599 19.2407 77.407C19.5667 77.0773 19.8759 76.8517 20.094 76.7042C20.3193 76.5654 20.4512 76.5003 20.4608 76.5133C20.4895 76.5481 19.9862 76.8496 19.3845 77.5176C18.7829 78.1813 18.1477 79.2485 17.8241 80.5304C17.6563 81.166 17.5868 81.7972 17.5077 82.3655C17.431 82.9337 17.4238 83.4413 17.4669 83.8729C17.5532 84.7362 17.6227 85.2741 17.582 85.2785Z" fill="#263238"/>
<path d="M10.7841 69.5202C10.8009 69.5137 10.9255 69.7415 11.1388 70.1601C11.3522 70.5787 11.6494 71.1882 12.0137 71.9431C12.7376 73.4549 13.7108 75.5524 14.7247 77.8906C15.7363 80.231 16.5872 82.374 17.1673 83.9357C17.4573 84.7166 17.6826 85.35 17.8289 85.7924C17.9775 86.2328 18.0494 86.48 18.0326 86.4844C18.0158 86.4887 17.908 86.2545 17.7306 85.8228C17.5388 85.35 17.2895 84.734 16.9899 83.9921C16.3667 82.4456 15.4894 80.3178 14.4779 77.9774C13.4567 75.6652 12.5339 73.5742 11.8412 72.006C11.5176 71.2707 11.2515 70.6612 11.0454 70.1948C10.8608 69.7653 10.7673 69.5246 10.7841 69.5181V69.5202Z" fill="#263238"/>
<path d="M15.3576 81.6538C13.591 79.5954 10.6691 78.3937 7.79266 78.5412C7.05918 78.5781 6.20346 78.7928 5.96376 79.4197C5.72406 80.0487 6.25859 80.6973 6.82188 81.1224C9.16854 82.8967 12.7473 83.1895 15.4079 81.8273" fill="#455A64"/>
<path d="M9.21405 79.999C9.21405 79.9816 9.36266 79.9794 9.63113 79.9881C9.89959 79.9946 10.2831 80.025 10.7601 80.0749C11.6997 80.1963 13.0373 80.4046 14.3412 81.0531C14.9884 81.3785 15.5421 81.7863 15.976 82.2157C16.4122 82.6452 16.7023 83.1007 16.9228 83.489C17.1265 83.8837 17.2656 84.2134 17.3279 84.4499C17.3998 84.6841 17.431 84.8143 17.4118 84.8186C17.3614 84.8338 17.2008 84.3154 16.755 83.567C16.5201 83.2005 16.2229 82.7688 15.7962 82.3654C15.3719 81.962 14.8374 81.5759 14.2142 81.2635C12.9606 80.6388 11.6566 80.4046 10.7337 80.2419C9.80131 80.0944 9.21405 80.0358 9.21884 79.9968L9.21405 79.999Z" fill="#263238"/>
<path d="M68.7746 74.6956C68.7746 74.6956 67.1806 82.5671 72.4707 83.5779L72.6409 91.8398C72.6409 91.8398 69.7861 92.8636 69.9036 93.2974C70.021 93.7291 76.5696 93.8657 76.3946 93.2172C76.2196 92.5686 73.6189 91.8854 73.6189 91.8854L73.6573 83.4694C73.6573 83.4694 77.0274 83.246 77.1832 79.5001C77.339 75.7541 77.1569 74.7477 77.1569 74.7477C77.1569 74.7477 72.9717 72.468 68.7794 74.7L68.7746 74.6956Z" fill="white"/>
<path d="M68.7746 74.6956C68.7746 74.6956 68.8177 74.6717 68.9064 74.6283C68.9999 74.5828 69.1317 74.5199 69.3043 74.4353C69.393 74.3941 69.4889 74.3399 69.6015 74.2986C69.7166 74.2574 69.8412 74.214 69.9755 74.1663C70.1121 74.1208 70.2535 74.0579 70.4165 74.0188C70.5795 73.9798 70.7497 73.9364 70.9343 73.8909C71.6702 73.7325 72.605 73.6327 73.6812 73.7347C73.9521 73.7499 74.2254 73.8041 74.5106 73.8431C74.791 73.9017 75.0859 73.9538 75.3783 74.0384C75.9656 74.1989 76.5768 74.4049 77.176 74.7064L77.1952 74.7151V74.7325C77.2863 75.4504 77.2887 76.2074 77.2911 77.0013C77.2911 77.7952 77.2671 78.6281 77.2336 79.4935C77.2048 80.3611 76.9651 81.2852 76.3659 82.0638C75.7546 82.8274 74.7719 83.387 73.6597 83.5128L73.7124 83.4607C73.7028 86.0592 73.6908 88.905 73.6788 91.8766L73.6333 91.8224C74.2997 92.0068 75.0044 92.228 75.6731 92.549C75.8865 92.6553 76.0974 92.7724 76.2772 92.9351C76.3203 92.9763 76.3611 93.0219 76.3946 93.0739C76.4114 93.1 76.4282 93.126 76.4378 93.1564C76.4474 93.1824 76.4641 93.2236 76.4522 93.267C76.4282 93.3516 76.3587 93.3885 76.3035 93.4188C76.246 93.447 76.1861 93.4687 76.1286 93.4882C75.6564 93.6184 75.1794 93.6444 74.7047 93.6769C73.7579 93.7268 72.8231 93.7182 71.9051 93.6748C71.4448 93.6509 70.9894 93.6184 70.5412 93.5533C70.4285 93.536 70.3159 93.5164 70.2056 93.4926C70.1505 93.4796 70.0929 93.4644 70.0378 93.4449C69.9827 93.4232 69.9251 93.408 69.8676 93.3494C69.8101 93.2692 69.846 93.1954 69.8772 93.1477C69.9108 93.0956 69.9515 93.0566 69.9923 93.0176C70.0762 92.9438 70.1696 92.8831 70.2631 92.8245C70.6394 92.5989 71.0349 92.4211 71.4281 92.2519C71.8236 92.0849 72.2191 91.9287 72.617 91.7834L72.581 91.8333C72.5235 88.7857 72.4684 85.9942 72.4228 83.5713L72.4612 83.6125C71.5863 83.4369 70.8024 83.0508 70.2511 82.5107C70.1025 82.3849 69.9899 82.2352 69.8652 82.0985C69.7597 81.9489 69.6399 81.8101 69.5536 81.6561C69.5081 81.5801 69.4625 81.5064 69.417 81.4327C69.3786 81.3567 69.3379 81.2786 69.2995 81.2049C69.2156 81.0552 69.1605 80.8991 69.0934 80.7494C68.8513 80.1421 68.7242 79.5499 68.6427 79.0055C68.5612 78.4589 68.5325 77.9535 68.5253 77.5002C68.5133 76.5913 68.59 75.8886 68.6499 75.4114C68.6811 75.1728 68.7123 74.9927 68.7338 74.8713C68.7554 74.7498 68.7746 74.6891 68.7746 74.6891C68.7746 74.6891 68.7674 74.752 68.7482 74.8734C68.7314 74.9949 68.7051 75.1771 68.6763 75.4135C68.626 75.8886 68.5565 76.5935 68.578 77.498C68.59 77.9492 68.6236 78.4524 68.7051 78.9968C68.7914 79.5391 68.9208 80.1269 69.1629 80.7255C69.23 80.873 69.2851 81.027 69.369 81.1745C69.4074 81.2483 69.4457 81.3242 69.4865 81.4001C69.532 81.4739 69.5776 81.5454 69.6231 81.6214C69.7094 81.7732 69.8269 81.9077 69.9323 82.0552C70.057 82.1875 70.1672 82.335 70.3135 82.4586C70.8552 82.9857 71.6222 83.3609 72.4803 83.5301L72.5187 83.5366V83.5713C72.5714 85.9942 72.6337 88.7836 72.6985 91.8333V91.8701L72.6625 91.8831C72.2694 92.0263 71.8739 92.1825 71.4808 92.3495C71.0901 92.5187 70.6946 92.6944 70.3326 92.9156C70.2439 92.972 70.1552 93.0306 70.0785 93.0956C70.0426 93.1282 70.0066 93.165 69.9851 93.1998C69.9563 93.2345 69.9587 93.2778 69.9659 93.2822C70.0138 93.3256 70.1361 93.3603 70.2367 93.3841C70.3422 93.408 70.4525 93.4275 70.5627 93.4427C71.0038 93.5056 71.4592 93.5381 71.9146 93.562C72.8279 93.6054 73.7603 93.614 74.7 93.562C75.1674 93.5316 75.6468 93.5013 76.0902 93.3798C76.1909 93.3494 76.3203 93.2952 76.3323 93.241C76.3395 93.2258 76.3155 93.1672 76.2892 93.1303C76.2628 93.0891 76.2268 93.0501 76.1885 93.0132C76.0279 92.8657 75.8241 92.7508 75.6156 92.6488C74.9636 92.3343 74.2589 92.1131 73.6021 91.9309L73.5566 91.9178V91.8766C73.571 88.905 73.5854 86.0592 73.5973 83.4607V83.4152L73.6501 83.4087C74.7167 83.2915 75.6827 82.7471 76.2748 82.0074C76.8596 81.2504 77.0969 80.3481 77.1281 79.4914C77.1641 78.6259 77.1904 77.7952 77.1952 77.0013C77.1952 76.2096 77.1952 75.4482 77.1113 74.7455L77.1305 74.7715C76.5432 74.4722 75.9344 74.2639 75.3543 74.1034C75.0643 74.0188 74.7743 73.9646 74.4962 73.906C74.2134 73.8648 73.9425 73.8106 73.674 73.7933C72.6074 73.687 71.6773 73.7802 70.9463 73.9299C70.7641 73.9733 70.5915 74.0145 70.4309 74.0514C70.2703 74.0882 70.1265 74.1511 69.9899 74.1924C69.8556 74.2379 69.7286 74.2813 69.6159 74.3203C69.5033 74.3615 69.4074 74.4114 69.3187 74.4505C69.1437 74.5286 69.0119 74.5893 68.916 74.6327C68.8249 74.6739 68.7746 74.6934 68.7746 74.6934V74.6956Z" fill="#263238"/>
<path d="M77.176 74.6565C77.176 74.6565 77.0682 74.7107 76.8644 74.7866C76.7638 74.8257 76.6391 74.8712 76.4905 74.9168C76.3419 74.9623 76.1741 75.0209 75.9847 75.0664C75.606 75.1706 75.1482 75.266 74.6328 75.3419C74.1175 75.4113 73.5446 75.4612 72.9405 75.4656C72.3365 75.4656 71.7636 75.42 71.2459 75.3528C70.7305 75.279 70.2703 75.1857 69.8916 75.0838C69.6998 75.0382 69.532 74.9818 69.3834 74.9385C69.2348 74.8951 69.1078 74.8495 69.0071 74.8105C68.8033 74.7346 68.6931 74.689 68.6955 74.6825C68.6979 74.676 68.8153 74.7064 69.0239 74.7693C69.1269 74.8018 69.254 74.8409 69.405 74.8777C69.5536 74.9168 69.7238 74.9667 69.9132 75.0057C70.2919 75.0968 70.7497 75.1814 71.2603 75.2486C71.7732 75.3094 72.3413 75.3506 72.9382 75.3528C73.535 75.3484 74.1007 75.3029 74.6137 75.24C75.1242 75.1684 75.582 75.0838 75.9584 74.9905C76.1501 74.9493 76.3179 74.8973 76.4665 74.8582C76.6175 74.8192 76.7422 74.7801 76.8477 74.7476C77.0562 74.6825 77.1712 74.65 77.176 74.6587V74.6565Z" fill="#263238"/>
<path d="M69.0814 78.0815C69.2611 79.0532 69.4601 80.0401 69.9659 80.9121C70.4716 81.784 71.3393 82.5389 72.4084 82.7167C73.6548 82.925 74.9564 82.2851 75.6491 81.3242C76.3419 80.3633 76.7853 79.038 76.6007 77.9036C76.584 77.806 76.5552 77.7127 76.3802 77.665C76.1573 77.6043 75.8097 77.5153 75.5844 77.5696C75.3591 77.6238 75.1673 77.7496 74.9588 77.8472C74.0431 78.2745 72.9405 78.1032 71.929 77.9253C70.9175 77.7474 70.1408 77.4589 69.0814 78.0836" fill="#E8505B"/>
<path opacity="0.2" d="M69.0814 78.0815C69.2611 79.0532 69.4601 80.0401 69.9659 80.9121C70.4716 81.784 71.3393 82.5389 72.4084 82.7167C73.6548 82.925 74.9564 82.2851 75.6491 81.3242C76.3419 80.3633 76.7853 79.038 76.6007 77.9036C76.584 77.806 76.5552 77.7127 76.3802 77.665C76.1573 77.6043 75.8097 77.5153 75.5844 77.5696C75.3591 77.6238 75.1673 77.7496 74.9588 77.8472C74.0431 78.2745 72.9405 78.1032 71.929 77.9253C70.9175 77.7474 70.1408 77.4589 69.0814 78.0836" fill="black"/>
<g opacity="0.2">
<path d="M76.27 76.0599C76.5097 77.2442 76.3683 78.1552 76.131 79.3395C75.9464 80.2591 75.5916 81.194 74.8486 81.8425C74.1055 82.4911 72.895 82.7709 72.0081 82.2915C71.7373 82.144 71.5024 81.9228 71.4137 81.6495C71.3274 81.374 71.4185 81.0443 71.6797 80.8838C72.0273 80.6691 72.4923 80.8101 72.9118 80.8101C73.674 80.8101 74.3548 80.2917 74.6616 79.6583C74.9684 79.0249 74.9636 78.3048 74.8462 77.6216C74.7862 77.268 74.6976 76.9123 74.7359 76.5566C74.7743 76.2008 74.9708 75.8343 75.3304 75.6846C75.6899 75.5349 76.2029 75.7063 76.27 76.0599Z" fill="white"/>
</g>
</g>
<defs>
<clipPath id="clip0_34_894">
<rect width="100.257" height="96" fill="white"/>
</clipPath>
</defs>
</svg>
