<svg width="101" height="96" viewBox="0 0 101 96" fill="none" xmlns="http://www.w3.org/2000/svg">
<g clip-path="url(#clip0_34_2445)">
<path d="M22.6179 24.7786C22.5388 25.0471 21.1775 27.189 19.2167 27.9196C17.2559 28.6481 15.7967 29.4537 16.3421 30.4153C16.8874 31.377 19.2958 30.8525 19.2958 30.8525C19.2958 30.8525 14.4083 36.1666 19.0085 39.2035C24.6203 42.9066 30.486 29.6514 30.486 29.6514L22.6179 24.7806V24.7786Z" fill="#EBEBEB"/>
<path d="M29.5639 31.4686C29.5494 31.4935 27.6989 30.3903 25.4321 29.0061C23.1653 27.6198 21.3398 26.4771 21.3544 26.4521C21.369 26.4271 23.2194 27.5303 25.4862 28.9145C27.753 30.2987 29.5785 31.4436 29.5639 31.4686Z" fill="#E0E0E0"/>
<path d="M28.6938 33.0569C28.6793 33.0819 26.681 31.91 24.231 30.4383C21.7811 28.9667 19.8057 27.7532 19.8224 27.7282C19.8369 27.7032 21.8352 28.8751 24.2872 30.3488C26.7372 31.8205 28.7105 33.034 28.6959 33.059L28.6938 33.0569Z" fill="#E0E0E0"/>
<path d="M27.6448 34.5637C27.6302 34.5887 25.3863 33.269 22.6325 31.6142C19.8786 29.9594 17.6597 28.5981 17.6743 28.5731C17.6888 28.5481 19.9327 29.8678 22.6866 31.5226C25.4384 33.1754 27.6593 34.5367 27.6448 34.5617V34.5637Z" fill="#E0E0E0"/>
<path d="M26.3355 36.4269C26.3209 36.4518 24.5807 35.3903 22.4513 34.0581C20.3219 32.7238 18.6068 31.6227 18.6234 31.5998C18.638 31.5748 20.3781 32.6364 22.5075 33.9686C24.6369 35.3008 26.35 36.4019 26.3355 36.4269Z" fill="#E0E0E0"/>
<path d="M24.7972 38.2272C24.7806 38.2522 23.1611 37.2072 21.1795 35.8938C19.1979 34.5804 17.6056 33.4959 17.6201 33.4709C17.6368 33.4459 19.2562 34.4908 21.2378 35.8043C23.2194 37.1177 24.8118 38.2022 24.7951 38.2272H24.7972Z" fill="#E0E0E0"/>
<path d="M22.8344 39.4762C22.8344 39.4762 22.7428 39.4408 22.5887 39.3617C22.4347 39.2826 22.212 39.1618 21.9414 39.0078C21.3981 38.7018 20.6592 38.2626 19.8599 37.7506C19.0606 37.2364 18.3528 36.7473 17.847 36.383C17.5952 36.1998 17.3933 36.05 17.2559 35.9417C17.1185 35.8356 17.0436 35.7731 17.0498 35.7669C17.054 35.7606 17.1372 35.8106 17.2808 35.9084C17.4432 36.0167 17.6472 36.1561 17.8907 36.3206C18.4049 36.6703 19.1188 37.149 19.9161 37.6611C20.7154 38.1731 21.446 38.6207 21.9789 38.9433C22.2307 39.0973 22.441 39.2243 22.6075 39.3263C22.7553 39.4179 22.8364 39.472 22.8323 39.4782L22.8344 39.4762Z" fill="#E0E0E0"/>
<path d="M18.2321 30.9712C18.2238 30.9962 17.7075 30.8318 17.1476 30.4737C16.5856 30.1178 16.2193 29.7181 16.238 29.7015C16.2609 29.6786 16.6543 30.0366 17.2038 30.3842C17.7533 30.736 18.2425 30.9421 18.2321 30.9712Z" fill="#E0E0E0"/>
<path d="M30.1218 29.3726C30.1218 29.3726 30.101 29.4142 30.051 29.487C29.9948 29.5682 29.922 29.6744 29.8325 29.8055C29.641 30.0803 29.3599 30.4737 29.0082 30.9566C28.3025 31.9224 27.3096 33.2442 26.1752 34.6742C25.0387 36.1042 23.9792 37.3719 23.1965 38.2773C22.8052 38.7311 22.4867 39.0933 22.2619 39.341C22.1558 39.4576 22.0684 39.5512 22.0017 39.6262C21.9414 39.6907 21.9081 39.724 21.906 39.7198C21.9039 39.7177 21.931 39.6803 21.9851 39.6116C22.0475 39.5346 22.1287 39.4367 22.2307 39.3139C22.4534 39.0475 22.7615 38.6791 23.1403 38.2274C23.9063 37.3094 24.9575 36.0355 26.094 34.6076C27.2285 33.1797 28.2318 31.8662 28.9499 30.9129C29.3037 30.4425 29.5931 30.0595 29.8012 29.7826C29.897 29.6577 29.9761 29.5557 30.0364 29.4766C30.0906 29.4079 30.1218 29.3726 30.1239 29.3746L30.1218 29.3726Z" fill="#E0E0E0"/>
<path d="M28.5315 28.238C28.5544 28.2568 26.6061 30.8004 24.179 33.9185C21.7499 37.0387 19.7641 39.5532 19.7412 39.5345C19.7183 39.5157 21.6666 36.9721 24.0958 33.8519C26.5228 30.7317 28.5107 28.2172 28.5336 28.2359L28.5315 28.238Z" fill="#E0E0E0"/>
<path d="M26.3126 26.9808C26.3126 26.9808 26.2938 27.0266 26.2501 27.1078C26.2002 27.1973 26.1336 27.3138 26.0503 27.4595C25.8734 27.7634 25.609 28.1985 25.2677 28.7251C24.587 29.7804 23.5733 31.1917 22.3785 32.6904C21.1858 34.1912 20.0555 35.5088 19.2416 36.4621C18.8378 36.9305 18.5089 37.3135 18.2716 37.5883C18.1613 37.7131 18.0718 37.8131 18.0031 37.8901C17.9407 37.9588 17.9074 37.9941 17.9032 37.99C17.9011 37.9879 17.9282 37.9484 17.9865 37.8755C18.051 37.7943 18.1343 37.6902 18.2383 37.5591C18.4694 37.2781 18.7899 36.8889 19.1834 36.4122C19.9827 35.4443 21.1025 34.1204 22.2952 32.6217C23.488 31.1251 24.5079 29.7242 25.2052 28.6814C25.5549 28.161 25.8276 27.7322 26.0149 27.4366C26.1044 27.2951 26.1773 27.1827 26.2314 27.0953C26.2814 27.0183 26.3105 26.9787 26.3126 26.9808Z" fill="#E0E0E0"/>
<path d="M24.4913 25.9381C24.5142 25.9568 22.8531 28.1549 20.7799 30.8505C18.7067 33.5461 17.0082 35.715 16.9853 35.6984C16.9624 35.6796 18.6234 33.4815 20.6966 30.786C22.7698 28.0925 24.4684 25.9214 24.4913 25.9381Z" fill="#E0E0E0"/>
<path d="M23.1216 25.045C23.1216 25.045 23.0654 25.1533 22.9468 25.3385C22.8885 25.4322 22.8135 25.5446 22.722 25.6695C22.6304 25.7944 22.5284 25.9422 22.4014 26.0941C22.1599 26.4043 21.8456 26.7561 21.4772 27.1224C21.1046 27.4846 20.6716 27.8634 20.1887 28.2215C19.7017 28.5753 19.2125 28.8751 18.7546 29.1228C18.2925 29.3642 17.8657 29.5578 17.4973 29.6973C17.3162 29.7722 17.1455 29.8242 16.9978 29.8763C16.85 29.9283 16.7209 29.9658 16.6148 29.9928C16.4024 30.0511 16.2838 30.0782 16.2817 30.0719C16.2817 30.0657 16.3941 30.022 16.6023 29.9533C16.7063 29.92 16.8333 29.8763 16.979 29.8201C17.1247 29.7639 17.2912 29.7077 17.4703 29.6286C17.8324 29.4829 18.255 29.283 18.7088 29.0374C19.1605 28.7876 19.6455 28.4879 20.1263 28.1361C20.605 27.7802 21.0359 27.4097 21.4106 27.0516C21.7811 26.6915 22.0975 26.3481 22.3452 26.0463C22.4742 25.8985 22.5783 25.7569 22.6762 25.6341C22.774 25.5134 22.8531 25.4052 22.9155 25.3156C23.0446 25.1387 23.1174 25.0409 23.1237 25.045H23.1216Z" fill="#E0E0E0"/>
<path d="M32.6446 22.1162H6.54016V24.8722H32.6446V22.1162Z" fill="#E0E0E0"/>
<path d="M14.8163 24.7786C14.7372 25.0471 13.3759 27.189 11.4151 27.9196C9.45429 28.6481 7.99514 29.4537 8.5405 30.4153C9.08586 31.377 11.4942 30.8525 11.4942 30.8525C11.4942 30.8525 6.60676 36.1666 11.2069 39.2035C16.8187 42.9066 22.6845 29.6514 22.6845 29.6514L14.8163 24.7806V24.7786Z" fill="#F5F5F5"/>
<path d="M21.7603 31.4686C21.7457 31.4935 19.8952 30.3903 17.6284 29.0061C15.3616 27.6198 13.5361 26.4771 13.5507 26.4521C13.5653 26.4271 15.4158 27.5303 17.6825 28.9145C19.9493 30.2987 21.7748 31.4436 21.7603 31.4686Z" fill="#E0E0E0"/>
<path d="M20.8923 33.0569C20.8777 33.0819 18.8794 31.91 16.4295 30.4383C13.9795 28.9667 12.0041 27.7532 12.0208 27.7282C12.0354 27.7032 14.0336 28.8751 16.4857 30.3488C18.9356 31.8205 20.9089 33.034 20.8943 33.059L20.8923 33.0569Z" fill="#E0E0E0"/>
<path d="M19.8432 34.5637C19.8286 34.5887 17.5847 33.269 14.8309 31.6142C12.077 29.9594 9.85809 28.5981 9.87266 28.5731C9.88723 28.5481 12.1311 29.8678 14.885 31.5226C17.6368 33.1754 19.8577 34.5367 19.8432 34.5617V34.5637Z" fill="#E0E0E0"/>
<path d="M18.5339 36.4269C18.5193 36.4518 16.7792 35.3903 14.6498 34.0581C12.5204 32.7238 10.8052 31.6227 10.8218 31.5998C10.8364 31.5748 12.5766 32.6364 14.706 33.9686C16.8354 35.3008 18.5485 36.4019 18.5339 36.4269Z" fill="#E0E0E0"/>
<path d="M16.9957 38.2272C16.979 38.2522 15.3596 37.2072 13.378 35.8938C11.3963 34.5804 9.80398 33.4959 9.81855 33.4709C9.8352 33.4459 11.4546 34.4908 13.4362 35.8043C15.4179 37.1177 17.0102 38.2022 16.9936 38.2272H16.9957Z" fill="#E0E0E0"/>
<path d="M15.0307 39.4762C15.0307 39.4762 14.9391 39.4408 14.7851 39.3617C14.6311 39.2826 14.4083 39.1618 14.1377 39.0078C13.5945 38.7018 12.8555 38.2626 12.0562 37.7506C11.2569 37.2364 10.5492 36.7473 10.0434 36.383C9.7915 36.1998 9.58959 36.05 9.45221 35.9417C9.31483 35.8356 9.2399 35.7731 9.24406 35.7669C9.24822 35.7606 9.33149 35.8106 9.47511 35.9084C9.63747 36.0167 9.84146 36.1561 10.085 36.3206C10.5991 36.6703 11.3131 37.149 12.1103 37.6611C12.9096 38.1731 13.6402 38.6207 14.1731 38.9433C14.425 39.0973 14.6352 39.2243 14.8017 39.3263C14.9495 39.4179 15.0307 39.472 15.0265 39.4782L15.0307 39.4762Z" fill="#E0E0E0"/>
<path d="M10.4284 30.9712C10.4201 30.9962 9.9039 30.8318 9.34397 30.4737C8.78196 30.1178 8.41561 29.7181 8.43434 29.7015C8.45724 29.6786 8.85065 30.0366 9.40017 30.3842C9.94969 30.736 10.4389 30.9421 10.4284 30.9712Z" fill="#E0E0E0"/>
<path d="M22.3202 29.3726C22.3202 29.3726 22.2994 29.4142 22.2494 29.487C22.1932 29.5682 22.1204 29.6744 22.0309 29.8055C21.8394 30.0803 21.5584 30.4737 21.2066 30.9566C20.5009 31.9224 19.5081 33.2442 18.3736 34.6742C17.2371 36.1042 16.1776 37.3719 15.395 38.2773C15.0036 38.7311 14.6852 39.0933 14.4604 39.341C14.3542 39.4576 14.2668 39.5512 14.2002 39.6262C14.1398 39.6907 14.1065 39.724 14.1044 39.7198C14.1023 39.7177 14.1294 39.6803 14.1835 39.6116C14.246 39.5346 14.3271 39.4367 14.4291 39.3139C14.6519 39.0475 14.9599 38.6791 15.3388 38.2274C16.1048 37.3094 17.1559 36.0355 18.2925 34.6076C19.4269 33.1797 20.4302 31.8662 21.1504 30.9129C21.5042 30.4425 21.7936 30.0595 22.0017 29.7826C22.0975 29.6577 22.1766 29.5557 22.2369 29.4766C22.2911 29.4079 22.3223 29.3726 22.3244 29.3746L22.3202 29.3726Z" fill="#E0E0E0"/>
<path d="M20.7299 28.238C20.7528 28.2568 18.8045 30.8004 16.3774 33.9185C13.9483 37.0387 11.9625 39.5532 11.9396 39.5345C11.9167 39.5157 13.865 36.9721 16.2942 33.8519C18.7212 30.7317 20.7091 28.2172 20.732 28.2359L20.7299 28.238Z" fill="#E0E0E0"/>
<path d="M18.5089 26.9808C18.5089 26.9808 18.4902 27.0266 18.4465 27.1078C18.3965 27.1973 18.3299 27.3138 18.2467 27.4595C18.0697 27.7634 17.8054 28.1985 17.464 28.7251C16.7834 29.7804 15.7696 31.1917 14.5749 32.6904C13.3821 34.1912 12.2519 35.5088 11.438 36.4621C11.0342 36.9305 10.7053 37.3135 10.468 37.5883C10.3577 37.7131 10.2682 37.8131 10.1995 37.8901C10.137 37.9588 10.1037 37.9941 10.0996 37.99C10.0975 37.9879 10.1245 37.9484 10.1828 37.8755C10.2474 37.7943 10.3306 37.6902 10.4347 37.5591C10.6657 37.2781 10.9863 36.8889 11.3797 36.4122C12.179 35.4443 13.2989 34.1204 14.4895 32.6217C15.6822 31.1251 16.7022 29.7242 17.3995 28.6814C17.7492 28.161 18.0219 27.7322 18.2092 27.4366C18.2987 27.2951 18.3695 27.1827 18.4257 27.0953C18.4756 27.0183 18.5048 26.9787 18.5069 26.9808H18.5089Z" fill="#E0E0E0"/>
<path d="M16.6897 25.9381C16.7126 25.9568 15.0515 28.1549 12.9783 30.8505C10.9051 33.5461 9.20657 35.715 9.18368 35.6984C9.16078 35.6796 10.8218 33.4815 12.895 30.786C14.9682 28.0925 16.6668 25.9214 16.6897 25.9381Z" fill="#E0E0E0"/>
<path d="M15.318 25.045C15.318 25.045 15.2618 25.1533 15.1431 25.3385C15.0848 25.4322 15.0099 25.5446 14.9183 25.6695C14.8267 25.7944 14.7247 25.9422 14.5977 26.0941C14.3563 26.4043 14.042 26.7561 13.6735 27.1224C13.301 27.4846 12.868 27.8634 12.3851 28.2215C11.898 28.5753 11.4088 28.8751 10.9509 29.1228C10.4888 29.3642 10.0621 29.5578 9.69367 29.6973C9.51258 29.7722 9.34189 29.8242 9.1941 29.8763C9.04631 29.9283 8.91726 29.9658 8.8111 29.9928C8.59879 30.0511 8.48014 30.0782 8.47806 30.0719C8.47806 30.0657 8.59046 30.022 8.79861 29.9533C8.90269 29.92 9.02966 29.8763 9.17537 29.8201C9.32108 29.7639 9.4876 29.7077 9.66661 29.6286C10.0288 29.4829 10.4513 29.283 10.9051 29.0374C11.3568 28.7876 11.8418 28.4879 12.3226 28.1361C12.8014 27.7802 13.2323 27.4097 13.6069 27.0516C13.9775 26.6915 14.2938 26.3481 14.5415 26.0463C14.6706 25.8985 14.7747 25.7569 14.8725 25.6341C14.9703 25.5134 15.0494 25.4052 15.1119 25.3156C15.2409 25.1387 15.3138 25.0409 15.32 25.045H15.318Z" fill="#E0E0E0"/>
<path d="M20.4406 8.32422H18.7712V9.9936H20.4406V8.32422Z" fill="#E0E0E0"/>
<path d="M27.4262 12.2166H11.8668V22.0372H27.4262V12.2166Z" fill="#F5F5F5"/>
<path d="M11.8668 12.2166C11.8668 12.2166 14.2481 9.7292 20.22 9.82703C26.1919 9.92694 27.4241 12.2166 27.4241 12.2166H11.8668Z" fill="#F5F5F5"/>
<path d="M27.3658 12.3747C27.3658 12.4038 23.8689 12.4288 19.5539 12.4288C15.2388 12.4288 11.7419 12.4059 11.7419 12.3747C11.7419 12.3435 15.2388 12.3206 19.5539 12.3206C23.8689 12.3206 27.3658 12.3435 27.3658 12.3747Z" fill="#E0E0E0"/>
<path d="M27.3658 12.3768H30.869C31.1875 12.3768 31.4435 12.6349 31.4435 12.9513V13.1449C31.4435 13.4634 31.1854 13.7194 30.869 13.7194H27.3658V12.3748V12.3768Z" fill="#E0E0E0"/>
<path d="M11.923 13.7194H8.41976C8.10129 13.7194 7.84526 13.4612 7.84526 13.1449V12.9513C7.84526 12.6328 8.10337 12.3768 8.41976 12.3768H11.923V13.7214V13.7194Z" fill="#E0E0E0"/>
<path d="M21.3398 7.84326H17.9532C17.7255 7.84326 17.541 8.02778 17.541 8.2554V8.39278C17.541 8.6204 17.7255 8.80493 17.9532 8.80493H21.3398C21.5674 8.80493 21.7519 8.6204 21.7519 8.39278V8.2554C21.7519 8.02778 21.5674 7.84326 21.3398 7.84326Z" fill="#E0E0E0"/>
<path d="M95.4859 71.8003H5.61597V95.9085H95.4859V71.8003Z" fill="#F5F5F5"/>
<path d="M96.1082 70.7991H4.47321V73.7319H96.1082V70.7991Z" fill="#E0E0E0"/>
<path d="M32.809 77.6638H9.1712V84.9637H32.809V77.6638Z" fill="#EBEBEB"/>
<path d="M20.9901 81.9246C21.3269 81.9246 21.6 81.6516 21.6 81.3147C21.6 80.9779 21.3269 80.7048 20.9901 80.7048C20.6533 80.7048 20.3802 80.9779 20.3802 81.3147C20.3802 81.6516 20.6533 81.9246 20.9901 81.9246Z" fill="#E0E0E0"/>
<path d="M32.809 86.5042H9.1712V93.8041H32.809V86.5042Z" fill="#EBEBEB"/>
<path d="M20.9901 90.763C21.3269 90.763 21.6 90.4899 21.6 90.1531C21.6 89.8163 21.3269 89.5432 20.9901 89.5432C20.6533 89.5432 20.3802 89.8163 20.3802 90.1531C20.3802 90.4899 20.6533 90.763 20.9901 90.763Z" fill="#E0E0E0"/>
<path d="M90.7108 77.6638H67.073V84.9637H90.7108V77.6638Z" fill="#EBEBEB"/>
<path d="M78.8919 81.9246C79.2288 81.9246 79.5018 81.6516 79.5018 81.3147C79.5018 80.9779 79.2288 80.7048 78.8919 80.7048C78.5551 80.7048 78.282 80.9779 78.282 81.3147C78.282 81.6516 78.5551 81.9246 78.8919 81.9246Z" fill="#E0E0E0"/>
<path d="M90.7108 86.5042H67.073V93.8041H90.7108V86.5042Z" fill="#EBEBEB"/>
<path d="M78.8919 90.763C79.2288 90.763 79.5018 90.4899 79.5018 90.1531C79.5018 89.8163 79.2288 89.5432 78.8919 89.5432C78.5551 89.5432 78.282 89.8163 78.282 90.1531C78.282 90.4899 78.5551 90.763 78.8919 90.763Z" fill="#E0E0E0"/>
<path d="M33.5417 95.9499C33.5417 95.9499 33.5396 95.8417 33.5376 95.6294C33.5376 95.4129 33.5355 95.0944 33.5334 94.6781C33.5313 93.8393 33.5272 92.607 33.523 91.0251C33.5167 87.8507 33.5105 83.2755 33.5001 77.6637V77.6221H33.5417C41.8553 77.6179 52.6481 77.6138 64.4045 77.6096H64.4607V77.6637C64.4607 84.1394 64.4586 90.3215 64.4566 95.9479V95.9978H64.4066C55.3478 95.9874 47.6253 95.9791 42.1676 95.9728C39.4449 95.9666 37.2864 95.9624 35.8064 95.9583C35.0716 95.9562 34.5034 95.9541 34.1183 95.952C33.9289 95.952 33.7853 95.9499 33.6853 95.9499C33.5875 95.9499 33.5396 95.9479 33.5396 95.9479C33.5396 95.9479 33.5917 95.9479 33.6895 95.9458C33.7894 95.9458 33.9372 95.9458 34.1287 95.9437C34.5159 95.9437 35.0862 95.9395 35.8272 95.9375C37.3093 95.9333 39.472 95.9291 42.1988 95.9229C47.6503 95.9166 55.3582 95.9083 64.4045 95.8979L64.3546 95.9479C64.3546 90.3215 64.3525 84.1394 64.3504 77.6637L64.4045 77.7179H64.4024C52.646 77.7137 41.8533 77.7095 33.5396 77.7054L33.5813 77.6637C33.5729 83.263 33.5646 87.8299 33.5584 90.998C33.5542 92.5841 33.55 93.8185 33.548 94.6594C33.548 95.0778 33.5438 95.3983 33.5438 95.6169C33.5438 95.8334 33.5396 95.9479 33.5396 95.9479L33.5417 95.9499Z" fill="#EBEBEB"/>
<path d="M19.6309 62.044C19.6309 63.3179 18.5984 64.3524 17.3225 64.3524C16.0465 64.3524 15.014 63.32 15.014 62.044C15.014 60.768 16.0465 59.7356 17.3225 59.7356C18.5984 59.7356 19.6309 60.768 19.6309 62.044Z" fill="#E0E0E0"/>
<path d="M21.8248 64.3151C23.0997 64.3151 24.1332 63.2816 24.1332 62.0067C24.1332 60.7318 23.0997 59.6982 21.8248 59.6982C20.5499 59.6982 19.5164 60.7318 19.5164 62.0067C19.5164 63.2816 20.5499 64.3151 21.8248 64.3151Z" fill="#F5F5F5"/>
<path d="M12.8201 64.3151C14.095 64.3151 15.1285 63.2816 15.1285 62.0067C15.1285 60.7318 14.095 59.6982 12.8201 59.6982C11.5452 59.6982 10.5117 60.7318 10.5117 62.0067C10.5117 63.2816 11.5452 64.3151 12.8201 64.3151Z" fill="#F5F5F5"/>
<path d="M9.75195 62.502H24.8264C24.8264 62.502 24.6723 68.7174 20.6238 69.4792L20.5613 70.7989H13.7735V69.4543C13.7735 69.4543 9.75195 68.426 9.75195 62.502Z" fill="#EBEBEB"/>
<path d="M20.6238 69.4792C20.6238 69.5001 19.0855 69.5188 17.1872 69.5188C15.2888 69.5188 13.7506 69.5021 13.7506 69.4792C13.7506 69.4564 15.2888 69.4397 17.1872 69.4397C19.0855 69.4397 20.6238 69.4564 20.6238 69.4792Z" fill="white"/>
<path d="M24.2415 65.7055C24.2415 65.7055 24.2082 65.7117 24.1457 65.718C24.0791 65.7242 23.9854 65.7325 23.8605 65.7429C23.6128 65.7575 23.2361 65.7887 22.7657 65.6888C22.5325 65.6389 22.2744 65.5535 22.0288 65.3932C21.7853 65.235 21.5459 65.004 21.4043 64.6897C21.3357 64.5315 21.2961 64.3546 21.2982 64.1693C21.3065 63.9841 21.3648 63.7946 21.4897 63.6385C21.5521 63.5615 21.6312 63.4928 21.7249 63.4512C21.8186 63.4095 21.9268 63.395 22.033 63.4096C22.2432 63.4449 22.4305 63.5886 22.5388 63.7801C22.647 63.9736 22.6658 64.2109 22.6262 64.4337C22.5867 64.6585 22.4909 64.8729 22.366 65.0727C22.1141 65.4703 21.7207 65.8033 21.2441 65.9802C20.7695 66.1613 20.2095 66.1592 19.7037 65.9636C19.4519 65.8658 19.2125 65.7242 19.0043 65.5369C18.8024 65.3475 18.6109 65.1247 18.5298 64.8416C18.4902 64.7022 18.4881 64.5461 18.5318 64.4024C18.5756 64.2609 18.6692 64.1256 18.8087 64.0527C19.0897 63.9091 19.4435 64.0153 19.6475 64.2442C19.8578 64.4732 19.9494 64.7771 19.9993 65.0748C20.0472 65.3766 20.0347 65.6888 19.9723 65.9927C19.8453 66.5985 19.5102 67.1792 18.9981 67.5705C18.7442 67.7662 18.4465 67.9119 18.1322 67.9952C17.8158 68.0743 17.4848 68.0972 17.158 68.0597C16.5044 67.991 15.8821 67.6746 15.4658 67.1834C15.2597 66.9377 15.1056 66.6442 15.0515 66.3279C14.9953 66.0135 15.064 65.6763 15.2451 65.4161C15.42 65.1559 15.7176 64.9603 16.0403 64.9769C16.3546 64.9957 16.6522 65.183 16.7813 65.4703C16.8479 65.6118 16.852 65.7783 16.8125 65.924C16.7688 66.0718 16.6814 66.203 16.5752 66.305C16.3608 66.511 16.086 66.6338 15.8113 66.7067C14.706 67.0085 13.532 66.6734 12.8139 65.9573C12.637 65.7762 12.4912 65.566 12.408 65.3329C12.3226 65.1018 12.3102 64.8479 12.3664 64.6168C12.4226 64.3858 12.5495 64.1735 12.7369 64.0361C12.9221 63.8966 13.1615 63.8508 13.3759 63.88C13.5924 63.9091 13.7943 64.0194 13.9254 64.1818C14.0566 64.3442 14.1273 64.5461 14.1294 64.7438C14.1336 64.9416 14.0628 65.131 13.9525 65.2788C13.8442 65.4286 13.7006 65.541 13.5549 65.6305C13.2614 65.8075 12.9513 65.8928 12.6703 65.9636C12.3872 66.0323 12.1249 66.0718 11.8876 66.0947C11.413 66.1384 11.0404 66.1135 10.7906 66.0885C10.5409 66.0614 10.4118 66.0302 10.4118 66.0302C10.4118 66.0302 10.4451 66.0323 10.5076 66.0406C10.5721 66.0489 10.6658 66.0614 10.7906 66.0718C11.0404 66.0926 11.4109 66.1135 11.8834 66.0635C12.1187 66.0385 12.3809 65.9969 12.6599 65.9282C12.9388 65.8553 13.2448 65.77 13.5299 65.5952C13.6715 65.5077 13.8089 65.3974 13.9109 65.2538C14.0149 65.1122 14.0795 64.9332 14.0753 64.7459C14.0732 64.5606 14.0045 64.3691 13.8796 64.2172C13.7568 64.0652 13.5674 63.9632 13.3634 63.9362C13.1594 63.9091 12.9367 63.9528 12.766 64.084C12.5912 64.2109 12.4725 64.4128 12.4205 64.6314C12.3664 64.852 12.3788 65.0914 12.4621 65.3121C12.5412 65.5348 12.6827 65.7367 12.8555 65.9115C13.557 66.6068 14.7102 66.9336 15.7884 66.6359C16.0548 66.5651 16.3192 66.4444 16.5211 66.2508C16.621 66.1551 16.7001 66.0364 16.7396 65.9032C16.775 65.77 16.7729 65.6264 16.7126 65.4994C16.5981 65.2434 16.3192 65.0685 16.0361 65.0519C15.8925 65.0415 15.7509 65.0873 15.6239 65.158C15.4991 65.233 15.3887 65.335 15.3076 65.4578C15.139 65.7034 15.0744 66.0156 15.1285 66.3133C15.1806 66.613 15.3284 66.894 15.5282 67.1313C15.9299 67.6059 16.5336 67.914 17.1705 67.9806C17.489 68.016 17.8116 67.9952 18.1176 67.9181C18.4236 67.837 18.7088 67.6975 18.9565 67.5081C19.4519 67.1292 19.7787 66.5631 19.9036 65.9761C19.966 65.6805 19.9785 65.3766 19.9306 65.0852C19.8848 64.7958 19.7912 64.5044 19.5997 64.2942C19.4165 64.084 19.0918 63.9924 18.8503 64.1173C18.7317 64.1797 18.6484 64.2963 18.6089 64.4253C18.5693 64.5544 18.5693 64.6939 18.6068 64.8229C18.6796 65.0852 18.8649 65.3037 19.0585 65.4848C19.2583 65.6659 19.4914 65.8033 19.735 65.8991C20.2241 66.0906 20.7674 66.0926 21.2274 65.9199C21.6916 65.7513 22.0746 65.4265 22.3223 65.0415C22.443 64.8479 22.5367 64.6397 22.5762 64.4253C22.6158 64.213 22.5991 63.9882 22.4992 63.8092C22.3993 63.6302 22.2245 63.497 22.035 63.4637C21.9393 63.4491 21.8435 63.4637 21.7561 63.4991C21.6708 63.5386 21.5979 63.599 21.5396 63.6718C21.4231 63.8175 21.3648 63.9986 21.3565 64.1735C21.3523 64.3504 21.3877 64.5211 21.4543 64.673C21.5896 64.979 21.8227 65.2059 22.06 65.362C22.2994 65.5202 22.5533 65.6056 22.7823 65.6576C23.2465 65.7617 23.6212 65.7346 23.8689 65.7242C23.9917 65.718 24.0874 65.7117 24.154 65.7076C24.2186 65.7034 24.2519 65.7034 24.2519 65.7034L24.2415 65.7055Z" fill="white"/>
<path d="M78.5693 0H62.4978V12.2685H78.5693V0Z" fill="#F5F5F5"/>
<path d="M43.4977 25.6549L62.4978 12.2686H78.5693L98.3875 25.6549V27.522H43.4977V25.6549Z" fill="#F5F5F5"/>
<path d="M98.3875 25.6548H43.4977V27.5219H98.3875V25.6548Z" fill="#EBEBEB"/>
<path d="M65.8865 12.3872L57.6791 25.6548H71.3214L68.9006 12.3872V0H65.8199L65.8865 12.3872Z" fill="#FAFAFA"/>
<path d="M78.3403 12.3871C78.3403 12.4163 74.7414 12.4412 70.3056 12.4412C65.8699 12.4412 62.2689 12.4163 62.2689 12.3871C62.2689 12.358 65.8657 12.333 70.3056 12.333C74.7455 12.333 78.3403 12.358 78.3403 12.3871Z" fill="#E0E0E0"/>
<path d="M5.61596 43.8245H0V49.4404H5.61596V43.8245Z" fill="#FAFAFA"/>
<path d="M5.61596 50.1169H0V55.7329H5.61596V50.1169Z" fill="#FAFAFA"/>
<path d="M11.9438 43.8245H6.32785V49.4404H11.9438V43.8245Z" fill="#FAFAFA"/>
<path d="M11.9438 50.1169H6.32785V55.7329H11.9438V50.1169Z" fill="#FAFAFA"/>
<path d="M18.2737 43.8245H12.6578V49.4404H18.2737V43.8245Z" fill="#FAFAFA"/>
<path d="M18.2737 50.1169H12.6578V55.7329H18.2737V50.1169Z" fill="#FAFAFA"/>
<path d="M24.6016 43.8245H18.9856V49.4404H24.6016V43.8245Z" fill="#FAFAFA"/>
<path d="M24.6016 50.1169H18.9856V55.7329H24.6016V50.1169Z" fill="#FAFAFA"/>
<path d="M30.8336 43.8245H25.2177V49.4404H30.8336V43.8245Z" fill="#FAFAFA"/>
<path d="M30.8336 50.1169H25.2177V55.7329H30.8336V50.1169Z" fill="#FAFAFA"/>
<path d="M37.1636 43.8245H31.5476V49.4404H37.1636V43.8245Z" fill="#FAFAFA"/>
<path d="M37.1636 50.1169H31.5476V55.7329H37.1636V50.1169Z" fill="#FAFAFA"/>
<path d="M43.4914 43.8245H37.8755V49.4404H43.4914V43.8245Z" fill="#FAFAFA"/>
<path d="M43.4914 50.1169H37.8755V55.7329H43.4914V50.1169Z" fill="#FAFAFA"/>
<path d="M49.8213 43.8245H44.2054V49.4404H49.8213V43.8245Z" fill="#FAFAFA"/>
<path d="M49.8213 50.1169H44.2054V55.7329H49.8213V50.1169Z" fill="#FAFAFA"/>
<path d="M56.0514 43.8245H50.4354V49.4404H56.0514V43.8245Z" fill="#FAFAFA"/>
<path d="M56.0514 50.1169H50.4354V55.7329H56.0514V50.1169Z" fill="#FAFAFA"/>
<path d="M62.3813 43.8245H56.7653V49.4404H62.3813V43.8245Z" fill="#FAFAFA"/>
<path d="M62.3813 50.1169H56.7653V55.7329H62.3813V50.1169Z" fill="#FAFAFA"/>
<path d="M68.7091 43.8245H63.0931V49.4404H68.7091V43.8245Z" fill="#FAFAFA"/>
<path d="M68.7091 50.1169H63.0931V55.7329H68.7091V50.1169Z" fill="#FAFAFA"/>
<path d="M75.039 43.8245H69.4231V49.4404H75.039V43.8245Z" fill="#FAFAFA"/>
<path d="M75.039 50.1169H69.4231V55.7329H75.039V50.1169Z" fill="#FAFAFA"/>
<path d="M81.2711 43.8245H75.6552V49.4404H81.2711V43.8245Z" fill="#FAFAFA"/>
<path d="M81.2711 50.1169H75.6552V55.7329H81.2711V50.1169Z" fill="#FAFAFA"/>
<path d="M87.5989 43.8245H81.983V49.4404H87.5989V43.8245Z" fill="#FAFAFA"/>
<path d="M87.5989 50.1169H81.983V55.7329H87.5989V50.1169Z" fill="#FAFAFA"/>
<path d="M93.9268 43.8245H88.3108V49.4404H93.9268V43.8245Z" fill="#FAFAFA"/>
<path d="M93.9268 50.1169H88.3108V55.7329H93.9268V50.1169Z" fill="#FAFAFA"/>
<path d="M100.257 43.8245H94.6407V49.4404H100.257V43.8245Z" fill="#FAFAFA"/>
<path d="M100.257 50.1169H94.6407V55.7329H100.257V50.1169Z" fill="#FAFAFA"/>
<path d="M95.8938 95.9084C95.8938 95.9375 75.5178 95.9625 50.3896 95.9625C25.2614 95.9625 4.88116 95.9375 4.88116 95.9084C4.88116 95.8792 25.2531 95.8542 50.3896 95.8542C75.5261 95.8542 95.8938 95.8792 95.8938 95.9084Z" fill="#263238"/>
<path d="M55.1022 27.3596L57.0505 27.3492C57.7374 28.2235 58.6678 28.9229 59.7898 29.3329C63.012 30.5152 66.5818 28.8604 67.7641 25.6382C68.9464 22.416 67.2916 18.8462 64.0694 17.6639C60.8472 16.4816 57.2774 18.1364 56.0951 21.3586C55.6017 22.7033 55.6038 24.1104 56.0076 25.378L55.1043 27.3596H55.1022Z" fill="white"/>
<path d="M55.1022 27.3595C55.1022 27.3595 55.1251 27.3137 55.1646 27.2284C55.2063 27.141 55.2645 27.014 55.3416 26.8496C55.4977 26.5144 55.7246 26.0232 56.0222 25.3842H55.9889V25.3904C55.9952 25.3987 56.0056 25.4029 56.016 25.3967C56.0243 25.3925 56.0264 25.3821 56.0243 25.3738C55.7828 24.5994 55.6163 23.5316 55.8578 22.316C55.9181 22.0142 56.0014 21.704 56.1159 21.3939C56.2449 21.09 56.3677 20.7694 56.5509 20.4655C56.8965 19.8535 57.371 19.2603 57.9747 18.7587C58.5762 18.257 59.3069 17.849 60.1228 17.6013C60.9367 17.3515 61.8359 17.2641 62.7414 17.3828C64.5482 17.6034 66.3549 18.7462 67.3187 20.5071C67.8057 21.4022 68.0867 22.3951 68.093 23.3776C68.1096 24.358 67.8932 25.3155 67.4977 26.1543C67.1043 26.9973 66.5173 27.7113 65.8491 28.2608C65.1789 28.8124 64.4212 29.1975 63.6593 29.4223C62.8954 29.6471 62.1294 29.7117 61.4217 29.6555C61.3322 29.6471 61.2448 29.6388 61.1573 29.6305C61.0699 29.6242 60.9825 29.6138 60.8992 29.593C60.7306 29.5597 60.5641 29.5264 60.3997 29.4931C60.0812 29.3932 59.769 29.3099 59.4859 29.1829C58.341 28.6959 57.5563 27.959 57.063 27.3387C57.0588 27.3345 57.0547 27.3325 57.0484 27.3325C56.4198 27.3408 55.9348 27.347 55.6038 27.3512C55.4415 27.3533 55.3166 27.3554 55.2292 27.3574C55.1438 27.3574 55.1001 27.3616 55.1001 27.3616C55.1001 27.3616 55.1396 27.3616 55.2229 27.3637C55.3082 27.3637 55.4311 27.3637 55.5934 27.3637C55.9265 27.3637 56.4156 27.3637 57.0505 27.3679L57.0359 27.3616C57.5272 27.9902 58.3119 28.7375 59.4651 29.2371C59.7502 29.3661 60.0645 29.4494 60.3851 29.5535C60.5495 29.5868 60.7181 29.6221 60.8888 29.6575C60.9742 29.6783 61.0616 29.6888 61.149 29.695C61.2364 29.7033 61.3259 29.7137 61.4154 29.7221C62.1315 29.7824 62.9079 29.7221 63.6802 29.4952C64.4524 29.2704 65.2205 28.8811 65.9011 28.3254C66.5797 27.7696 67.175 27.0473 67.5747 26.1939C67.9764 25.3425 68.1991 24.3725 68.1804 23.3796C68.1742 22.3847 67.8911 21.3751 67.3957 20.4697C67.3416 20.3552 67.2708 20.2511 67.2 20.145L66.9939 19.8286L66.7587 19.5351C66.6817 19.4372 66.6047 19.3394 66.5152 19.252C66.4278 19.1625 66.3424 19.073 66.2571 18.9855C66.1738 18.894 66.0718 18.8232 65.9802 18.7399C65.8845 18.6629 65.795 18.5776 65.6972 18.5068C65.5972 18.4381 65.4952 18.3673 65.3953 18.2986C64.5856 17.7574 63.6697 17.4182 62.7539 17.3037C61.838 17.1829 60.9263 17.2745 60.102 17.5285C59.2756 17.7824 58.5367 18.1966 57.9289 18.7045C57.319 19.2124 56.8423 19.814 56.4926 20.4343C56.3095 20.7403 56.1846 21.065 56.0555 21.3731C55.941 21.6874 55.8578 22.0017 55.7995 22.3056C55.5622 23.5337 55.737 24.6098 55.9868 25.3862L56.0222 25.3696C56.016 25.3571 56.0056 25.355 55.9952 25.3613C55.991 25.3613 55.9889 25.3675 55.9868 25.3696C55.6975 26.019 55.4748 26.5186 55.3228 26.8579C55.25 27.0223 55.1938 27.1493 55.1542 27.2367C55.1168 27.3221 55.1001 27.3616 55.1001 27.3616L55.1022 27.3595Z" fill="#263238"/>
<path d="M58.7657 23.769L59.6336 22.8094L61.4758 24.2873L64.2109 21.1462L65.1039 22.0163L61.4342 26.0566L58.7657 23.769Z" fill="#FF725E"/>
<path d="M48.9471 26.7124L33.2545 27.6491C32.2761 31.1336 32.1367 34.4952 33.2045 37.9485C33.5084 38.933 33.9601 39.9738 34.9946 40.5462C35.9209 41.0583 37.124 41.0895 38.2522 41.077C43.7204 41.0187 49.1865 40.3776 54.4611 39.1745C53.4224 38.5979 52.825 37.5405 52.9624 36.5226C53.412 37.5197 54.6879 38.2003 56.0035 38.242C57.319 38.2836 58.6199 37.7278 59.4255 36.8807C54.9627 34.8491 49.0553 30.863 48.9492 26.7124H48.9471Z" fill="#263238"/>
<path d="M59.3297 33.3025C59.3297 33.3025 59.2819 33.3067 59.1924 33.3067C59.1028 33.3046 58.9717 33.3046 58.801 33.2942C58.4617 33.2775 57.9705 33.2421 57.3689 33.1589C56.1721 32.9944 54.4964 32.6281 52.8687 31.7101C52.061 31.248 51.3596 30.6923 50.7996 30.1136C50.2397 29.5329 49.8151 28.9355 49.5257 28.4005C49.2343 27.8656 49.0616 27.4014 48.97 27.0725C48.9159 26.9101 48.895 26.779 48.8742 26.6937C48.8555 26.6062 48.8472 26.5604 48.8493 26.5584C48.8597 26.5563 48.9055 26.7374 49.0095 27.06C49.1136 27.3806 49.2968 27.8364 49.5924 28.3631C49.8859 28.8897 50.3126 29.4746 50.8704 30.0449C51.4283 30.6153 52.1235 31.1606 52.9228 31.6186C54.5318 32.5261 56.1908 32.9029 57.3814 33.086C57.9788 33.1776 58.468 33.2255 58.8052 33.2546C58.9655 33.2692 59.0945 33.2796 59.1944 33.2879C59.2839 33.2963 59.3297 33.3025 59.3297 33.3067V33.3025Z" fill="#263238"/>
<path d="M62.0462 63.6656C61.9879 63.6802 57.4168 62.2273 57.4168 62.2273L55.9806 63.3617L59.9001 65.0644C59.9001 65.0644 61.6299 65.2622 62.4604 65.7513C63.2888 66.2405 62.0482 63.6656 62.0482 63.6656H62.0462Z" fill="#263238"/>
<path d="M61.3426 63.9487C61.3426 63.9487 61.3509 63.9945 61.3717 64.0757C61.5049 64.5524 62.1565 66.2551 64.8604 67.2375C68.0285 68.3865 74.935 68.7071 76.0819 68.5281C78.3008 68.1784 80.3719 66.4486 80.2845 66.0157" fill="#263238"/>
<path d="M80.2866 66.0157C80.2096 66.7192 75.907 66.8275 70.6762 66.2571C65.4453 65.6868 61.2677 64.6523 61.3426 63.9487C61.4196 63.2452 65.7221 63.1369 70.953 63.7073C76.1839 64.2776 80.3615 65.3121 80.2866 66.0157Z" fill="#455A64"/>
<path d="M73.6424 65.5245C73.99 65.1749 74.4833 64.9667 74.2252 64.5608C74.1544 64.6982 73.8068 64.694 73.6861 64.8002C73.5653 64.9063 73.2302 64.7794 73.0658 64.7377C72.8618 64.6836 72.7515 64.4796 72.7639 64.2944C72.7764 64.1091 72.8826 63.9405 72.9887 63.7802C73.2052 63.4534 73.4342 63.1329 73.6757 62.8206C73.7631 62.7062 73.8547 62.5875 73.8755 62.4522C73.8963 62.3169 73.8234 62.1587 73.6715 62.1192C73.5362 62.0838 73.3967 62.1504 73.2802 62.217C72.7619 62.5105 72.254 62.8831 72.0646 63.3972C71.9459 63.7199 71.9626 64.0758 71.8168 64.3922C71.6732 64.7086 71.2569 64.9792 70.9072 64.8272C70.6928 64.7336 70.5908 64.5171 70.5346 64.3131C70.4784 64.1091 70.4472 63.8926 70.3057 63.7219C70.1641 63.5513 69.8644 63.4597 69.6833 63.5971C69.3731 63.8302 69.7686 64.3422 69.5043 64.6149C69.3919 64.7315 69.19 64.7523 69.0234 64.7065C68.8569 64.6607 68.7195 64.5587 68.5926 64.4546C67.7204 63.7448 67.0793 62.8227 66.7629 61.8194C66.7234 61.6904 66.6859 61.5592 66.6005 61.4489C66.5152 61.3386 66.3695 61.2533 66.2175 61.2699C65.9782 61.297 65.8699 61.5509 65.8699 61.7632C65.8699 62.3606 66.3071 62.881 66.7275 63.3556C67.2104 63.8989 67.6933 64.4442 68.1742 64.9875L68.8319 65.7473L71.6587 66.3696L73.5716 65.9742L73.6444 65.5245H73.6424Z" fill="#FF725E"/>
<g opacity="0.6">
<path d="M73.6424 65.5245C73.99 65.1749 74.4833 64.9667 74.2252 64.5608C74.1544 64.6982 73.8068 64.694 73.6861 64.8002C73.5653 64.9063 73.2302 64.7794 73.0658 64.7377C72.8618 64.6836 72.7515 64.4796 72.7639 64.2944C72.7764 64.1091 72.8826 63.9405 72.9887 63.7802C73.2052 63.4534 73.4342 63.1329 73.6757 62.8206C73.7631 62.7062 73.8547 62.5875 73.8755 62.4522C73.8963 62.3169 73.8234 62.1587 73.6715 62.1192C73.5362 62.0838 73.3967 62.1504 73.2802 62.217C72.7619 62.5105 72.254 62.8831 72.0646 63.3972C71.9459 63.7199 71.9626 64.0758 71.8168 64.3922C71.6732 64.7086 71.2569 64.9792 70.9072 64.8272C70.6928 64.7336 70.5908 64.5171 70.5346 64.3131C70.4784 64.1091 70.4472 63.8926 70.3057 63.7219C70.1641 63.5513 69.8644 63.4597 69.6833 63.5971C69.3731 63.8302 69.7686 64.3422 69.5043 64.6149C69.3919 64.7315 69.19 64.7523 69.0234 64.7065C68.8569 64.6607 68.7195 64.5587 68.5926 64.4546C67.7204 63.7448 67.0793 62.8227 66.7629 61.8194C66.7234 61.6904 66.6859 61.5592 66.6005 61.4489C66.5152 61.3386 66.3695 61.2533 66.2175 61.2699C65.9782 61.297 65.8699 61.5509 65.8699 61.7632C65.8699 62.3606 66.3071 62.881 66.7275 63.3556C67.2104 63.8989 67.6933 64.4442 68.1742 64.9875L68.8319 65.7473L71.6587 66.3696L73.5716 65.9742L73.6444 65.5245H73.6424Z" fill="white"/>
</g>
<path d="M74.4458 66.6298C74.5083 66.2489 74.8538 65.9158 75.2826 65.8243C75.4262 65.793 75.5823 65.7868 75.7114 65.7223C75.8405 65.6577 75.93 65.5037 75.8467 65.3955C75.7655 65.2893 75.5865 65.2976 75.4408 65.3184C75.1098 65.3663 74.781 65.4142 74.45 65.46C74.7164 65.1935 74.9829 64.925 75.2472 64.6586C75.3534 64.5524 75.4637 64.4088 75.3867 64.2839C75.3138 64.1653 75.1202 64.1611 74.9683 64.1882C74.4479 64.2798 73.9733 64.5462 73.659 64.9167C73.378 65.2497 73.2177 65.6661 72.8618 65.9367C72.5391 66.1823 72.0708 66.2718 71.6587 66.1698C71.2465 66.0678 70.901 65.7764 70.7719 65.4184C70.7178 65.2664 70.6949 65.0978 70.5742 64.9792C70.3473 64.7523 69.8852 64.8501 69.6854 65.0957C69.4876 65.3413 69.4835 65.6661 69.5105 65.9679C68.6009 64.7835 67.5872 63.5471 66.0698 63.0246C65.8033 62.933 65.514 62.8643 65.2309 62.908C64.9499 62.9517 64.6793 63.1328 64.6335 63.3785C64.5815 63.6657 64.8312 63.928 65.1039 64.0966C65.6222 64.4171 66.2571 64.5566 66.817 64.8189C67.377 65.0811 67.9848 65.4725 67.9494 66.0262C67.9494 66.0262 70.6803 66.4404 72.0333 66.4758C73.3863 66.5112 74.4437 66.6236 74.4437 66.6236L74.4458 66.6298Z" fill="#FF725E"/>
<g opacity="0.8">
<path d="M74.4458 66.6298C74.5083 66.2489 74.8538 65.9158 75.2826 65.8243C75.4262 65.793 75.5823 65.7868 75.7114 65.7223C75.8405 65.6577 75.93 65.5037 75.8467 65.3955C75.7655 65.2893 75.5865 65.2976 75.4408 65.3184C75.1098 65.3663 74.781 65.4142 74.45 65.46C74.7164 65.1935 74.9829 64.925 75.2472 64.6586C75.3534 64.5524 75.4637 64.4088 75.3867 64.2839C75.3138 64.1653 75.1202 64.1611 74.9683 64.1882C74.4479 64.2798 73.9733 64.5462 73.659 64.9167C73.378 65.2497 73.2177 65.6661 72.8618 65.9367C72.5391 66.1823 72.0708 66.2718 71.6587 66.1698C71.2465 66.0678 70.901 65.7764 70.7719 65.4184C70.7178 65.2664 70.6949 65.0978 70.5742 64.9792C70.3473 64.7523 69.8852 64.8501 69.6854 65.0957C69.4876 65.3413 69.4835 65.6661 69.5105 65.9679C68.6009 64.7835 67.5872 63.5471 66.0698 63.0246C65.8033 62.933 65.514 62.8643 65.2309 62.908C64.9499 62.9517 64.6793 63.1328 64.6335 63.3785C64.5815 63.6657 64.8312 63.928 65.1039 64.0966C65.6222 64.4171 66.2571 64.5566 66.817 64.8189C67.377 65.0811 67.9848 65.4725 67.9494 66.0262C67.9494 66.0262 70.6803 66.4404 72.0333 66.4758C73.3863 66.5112 74.4437 66.6236 74.4437 66.6236L74.4458 66.6298Z" fill="white"/>
</g>
<path d="M64.4378 68.3409C64.4358 68.3534 64.2817 68.3409 64.0444 68.2743C63.8071 68.2077 63.4866 68.0724 63.1744 67.8538C62.8642 67.6352 62.6269 67.3813 62.4812 67.1815C62.3355 66.9816 62.2731 66.8401 62.2835 66.8338C62.3126 66.813 62.6269 67.3438 63.2368 67.7643C63.8404 68.1931 64.4482 68.3055 64.4378 68.3388V68.3409Z" fill="#263238"/>
<path d="M63.9216 68.8321C63.9195 68.8446 63.7655 68.8321 63.5282 68.7655C63.2909 68.6989 62.9703 68.5636 62.6581 68.345C62.348 68.1264 62.1107 67.8725 61.965 67.6727C61.8193 67.4728 61.7568 67.3313 61.7672 67.3251C61.7964 67.3042 62.1107 67.835 62.7206 68.2555C63.3242 68.6843 63.932 68.7967 63.9216 68.83V68.8321Z" fill="#263238"/>
<path d="M82.2245 66.7609C82.2245 66.7609 82.212 66.8212 82.1724 66.9211C82.1329 67.0231 82.0642 67.1647 81.9705 67.3354C81.7832 67.6767 81.471 68.1243 81.0422 68.5406C80.6113 68.9548 80.1554 69.2545 79.8078 69.4294C79.635 69.5189 79.4893 69.5813 79.3873 69.6167C79.2854 69.6542 79.2271 69.6708 79.225 69.6646C79.2187 69.6479 79.4394 69.5543 79.7724 69.3607C80.1055 69.1692 80.5468 68.8674 80.9672 68.4615C81.3877 68.0535 81.7041 67.6226 81.9039 67.2958C82.1058 66.969 82.2078 66.7504 82.2245 66.7588V66.7609Z" fill="#263238"/>
<path d="M83.2236 67.1898C83.2361 67.194 83.1924 67.3397 83.0862 67.5582C82.9801 67.7768 82.8011 68.0661 82.5534 68.3451C82.3057 68.624 82.0434 68.8384 81.8394 68.9737C81.6354 69.109 81.498 69.1693 81.4918 69.1569C81.4731 69.1277 81.9934 68.8238 82.4722 68.2743C82.9572 67.7289 83.1924 67.1732 83.2236 67.1898Z" fill="#263238"/>
<path d="M78.2113 53.4766L80.145 52.9416C80.145 52.9416 81.7415 53.1831 82.1537 52.8771C82.5658 52.5711 82.3702 52.3942 82.3702 52.3942C83.2402 52.0653 82.9301 51.6802 82.9301 51.6802C82.9301 51.6802 83.7939 51.6136 83.8106 50.933C83.8189 50.5354 80.5155 49.8776 80.5155 49.8776C80.5155 49.8776 80.5467 49.4509 80.8839 49.2095C81.2211 48.968 83.1695 49.4363 83.7669 49.2532C84.3643 49.0721 84.3226 48.483 84.3226 48.483C84.3226 48.483 80.2345 47.6525 79.3748 48.0105C78.5131 48.3685 74.3813 50.092 73.7505 50.9267L75.1244 53.793C75.1244 53.793 75.2076 53.8367 75.8924 54.0219C76.5773 54.2093 78.2154 53.4787 78.2154 53.4787L78.2113 53.4766Z" fill="#FFBF9D"/>
<path d="M75.9903 52.7667C75.9903 52.7501 76.1485 52.7543 76.4295 52.7147C76.7084 52.6752 77.1143 52.5857 77.5597 52.3525C77.7825 52.236 78.0114 52.0819 78.23 51.8863C78.3403 51.7905 78.4444 51.6781 78.5443 51.5595C78.6463 51.4387 78.7441 51.3034 78.8753 51.1785C79.0002 51.0557 79.1937 50.9475 79.3957 50.9558C79.5872 50.9579 79.7662 50.9954 79.9493 51.0328C80.3157 51.1078 80.6737 51.2327 81.0401 51.1785C81.2774 51.1473 81.5063 51.0537 81.6749 50.9038C81.8456 50.7622 81.9497 50.5291 81.8623 50.3834L81.9143 50.423C80.7507 50.1419 79.712 50.0171 78.9793 49.9088C78.638 49.8589 78.3528 49.8172 78.1176 49.7839C77.9178 49.7506 77.8075 49.7298 77.8095 49.7194C77.8095 49.709 77.9219 49.7111 78.1238 49.7256C78.3258 49.7402 78.6213 49.7652 78.9918 49.8006C79.7308 49.8797 80.7736 49.9796 81.9559 50.2543L81.9892 50.2627L82.008 50.2939C82.0892 50.425 82.0767 50.5853 82.0267 50.7123C81.9767 50.8413 81.8914 50.9496 81.7915 51.0391C81.5917 51.2181 81.3294 51.3243 81.0609 51.3596C80.8548 51.3888 80.6508 51.368 80.4572 51.3347C80.272 51.293 80.0888 51.2493 79.9098 51.2098C79.7329 51.1723 79.5559 51.1348 79.3936 51.1328C79.2375 51.1244 79.1022 51.1994 78.9856 51.3055C78.869 51.4117 78.7712 51.5428 78.663 51.6656C78.5547 51.7884 78.4444 51.9029 78.3258 52.0028C78.0926 52.2047 77.8491 52.3567 77.6139 52.4712C77.1434 52.7001 76.7209 52.7709 76.4336 52.7896C76.1443 52.8063 75.9861 52.7792 75.9861 52.7709L75.9903 52.7667Z" fill="#FF9A6C"/>
<path d="M79.9431 51.1683C79.9889 51.1849 79.8952 51.57 79.685 52.0092C79.4748 52.4484 79.2333 52.7627 79.1917 52.7378C79.148 52.7107 79.3186 52.361 79.5226 51.9322C79.7287 51.5034 79.8952 51.1516 79.9431 51.1683Z" fill="#FF9A6C"/>
<path d="M82.187 52.3129C82.1766 52.3629 81.6416 52.2984 80.9839 52.2255C80.324 52.1506 79.7891 52.0965 79.7911 52.0444C79.7911 51.9966 80.3386 51.9716 81.0047 52.0465C81.6708 52.1194 82.1974 52.263 82.1891 52.3109L82.187 52.3129Z" fill="#FF9A6C"/>
<path d="M83.1799 51.7135C83.1736 51.7634 82.4888 51.7051 81.652 51.5865C80.8152 51.4678 80.1429 51.3325 80.1492 51.2826C80.1554 51.2326 80.8402 51.2909 81.677 51.4096C82.5138 51.5282 83.1861 51.6635 83.1799 51.7135Z" fill="#FF9A6C"/>
<path d="M80.4385 48.9368C80.4864 48.9368 80.5238 49.1865 80.4864 49.4905C80.451 49.7944 80.3552 50.0275 80.3074 50.0171C80.2595 50.0067 80.2741 49.7631 80.3074 49.4696C80.3427 49.1761 80.3865 48.9368 80.4364 48.9368H80.4385Z" fill="#FF9A6C"/>
<path d="M57.4668 49.8713L63.1285 52.875L74.1814 50.731L75.7509 53.9803C75.7509 53.9803 65.6493 58.4056 62.8288 58.4556C60.0083 58.5034 54.8795 55.1792 54.8795 55.1792L57.4647 49.8713H57.4668Z" fill="#FFBF9D"/>
<path d="M71.1195 53.0248C71.1195 53.0248 69.7769 52.7646 69.5334 53.7679C69.2898 54.7712 70.4951 55.0231 70.4951 55.0231C70.4951 55.0231 70.2723 55.7162 71.4338 56.0784C72.5932 56.4406 72.8201 55.1813 72.8201 55.1813C72.8201 55.1813 73.9108 55.5393 73.9941 54.8357C74.1169 53.7929 73.2697 53.7096 73.2697 53.7096C73.2697 53.7096 74.1065 52.6897 72.7389 52.2859C71.3714 51.882 71.1195 53.0248 71.1195 53.0248ZM72.5703 52.7271C73.3592 52.8937 72.8409 53.8782 72.8409 53.8782C72.8409 53.8782 73.7339 54.0822 73.557 54.6088C73.38 55.1355 72.5016 54.792 72.5016 54.792C72.5016 54.792 72.8243 55.6912 71.7419 55.7016C70.6595 55.7121 71.107 54.7816 71.107 54.7816C71.107 54.7816 70.2286 54.8628 70.0434 54.0281C69.856 53.1934 71.3735 53.4411 71.3735 53.4411C71.4193 52.7334 71.7794 52.5606 72.5703 52.7271Z" fill="#FF725E"/>
<g opacity="0.3">
<path d="M71.1195 53.0248C71.1195 53.0248 69.7769 52.7646 69.5334 53.7679C69.2898 54.7712 70.4951 55.0231 70.4951 55.0231C70.4951 55.0231 70.2723 55.7162 71.4338 56.0784C72.5932 56.4406 72.8201 55.1813 72.8201 55.1813C72.8201 55.1813 73.9108 55.5393 73.9941 54.8357C74.1169 53.7929 73.2697 53.7096 73.2697 53.7096C73.2697 53.7096 74.1065 52.6897 72.7389 52.2859C71.3714 51.882 71.1195 53.0248 71.1195 53.0248ZM72.5703 52.7271C73.3592 52.8937 72.8409 53.8782 72.8409 53.8782C72.8409 53.8782 73.7339 54.0822 73.557 54.6088C73.38 55.1355 72.5016 54.792 72.5016 54.792C72.5016 54.792 72.8243 55.6912 71.7419 55.7016C70.6595 55.7121 71.107 54.7816 71.107 54.7816C71.107 54.7816 70.2286 54.8628 70.0434 54.0281C69.856 53.1934 71.3735 53.4411 71.3735 53.4411C71.4193 52.7334 71.7794 52.5606 72.5703 52.7271Z" fill="black"/>
</g>
<path d="M71.1403 52.7647C71.1403 52.7647 69.7977 52.5024 69.5542 53.5057C69.3107 54.509 70.5159 54.7609 70.5159 54.7609C70.5159 54.7609 70.2931 55.454 71.4546 55.8162C72.614 56.1784 72.843 54.9191 72.843 54.9191C72.843 54.9191 73.9337 55.2771 74.017 54.5735C74.1398 53.5307 73.2926 53.4474 73.2926 53.4474C73.2926 53.4474 74.1294 52.4275 72.7618 52.0237C71.3943 51.6198 71.1424 52.7626 71.1424 52.7626L71.1403 52.7647ZM72.5911 52.467C73.3821 52.6356 72.8617 53.6202 72.8617 53.6202C72.8617 53.6202 73.7547 53.8242 73.5778 54.3487C73.4009 54.8753 72.5224 54.5319 72.5224 54.5319C72.5224 54.5319 72.8451 55.4311 71.7627 55.4436C70.6803 55.4561 71.1278 54.5215 71.1278 54.5215C71.1278 54.5215 70.2494 54.6027 70.0642 53.7701C69.8768 52.9354 71.3943 53.1831 71.3943 53.1831C71.4359 52.4753 71.8002 52.3026 72.5911 52.4691V52.467Z" fill="#FF725E"/>
<path d="M71.7523 43.4584C71.7523 43.4584 70.4014 43.6707 70.5159 44.6969C70.6304 45.7231 71.8481 45.5482 71.8481 45.5482C71.8481 45.5482 71.8772 46.2747 73.0907 46.2206C74.3043 46.1665 74.0878 44.903 74.0878 44.903C74.0878 44.903 75.2347 44.8676 75.0724 44.1786C74.833 43.1566 74.0066 43.3668 74.0066 43.3668C74.0066 43.3668 74.4458 42.1221 73.022 42.2095C71.5983 42.2948 71.7523 43.4563 71.7523 43.4563V43.4584ZM73.0137 42.6841C73.813 42.5717 73.6611 43.6749 73.6611 43.6749C73.6611 43.6749 74.5686 43.5604 74.5832 44.1162C74.5978 44.6719 73.6528 44.649 73.6528 44.649C73.6528 44.649 74.2626 45.3838 73.2489 45.7647C72.2352 46.1436 72.3372 45.1153 72.3372 45.1153C72.3372 45.1153 71.54 45.492 71.08 44.7698C70.62 44.0475 72.1312 43.7644 72.1312 43.7644C71.9334 43.0837 72.2123 42.7986 73.0137 42.6861V42.6841Z" fill="#FF725E"/>
<g opacity="0.3">
<path d="M71.7523 43.4584C71.7523 43.4584 70.4014 43.6707 70.5159 44.6969C70.6304 45.7231 71.8481 45.5482 71.8481 45.5482C71.8481 45.5482 71.8772 46.2747 73.0907 46.2206C74.3043 46.1665 74.0878 44.903 74.0878 44.903C74.0878 44.903 75.2347 44.8676 75.0724 44.1786C74.833 43.1566 74.0066 43.3668 74.0066 43.3668C74.0066 43.3668 74.4458 42.1221 73.022 42.2095C71.5983 42.2948 71.7523 43.4563 71.7523 43.4563V43.4584ZM73.0137 42.6841C73.813 42.5717 73.6611 43.6749 73.6611 43.6749C73.6611 43.6749 74.5686 43.5604 74.5832 44.1162C74.5978 44.6719 73.6528 44.649 73.6528 44.649C73.6528 44.649 74.2626 45.3838 73.2489 45.7647C72.2352 46.1436 72.3372 45.1153 72.3372 45.1153C72.3372 45.1153 71.54 45.492 71.08 44.7698C70.62 44.0475 72.1312 43.7644 72.1312 43.7644C71.9334 43.0837 72.2123 42.7986 73.0137 42.6861V42.6841Z" fill="black"/>
</g>
<path d="M71.6815 43.2085C71.6815 43.2085 70.3306 43.4208 70.4451 44.447C70.5596 45.4732 71.7773 45.2984 71.7773 45.2984C71.7773 45.2984 71.8064 46.0248 73.02 45.9707C74.2335 45.9166 74.0191 44.6552 74.0191 44.6552C74.0191 44.6552 75.166 44.6198 75.0037 43.9308C74.7643 42.9088 73.9379 43.119 73.9379 43.119C73.9379 43.119 74.3771 41.8742 72.9534 41.9617C71.5296 42.047 71.6815 43.2085 71.6815 43.2085ZM72.9429 42.4342C73.7443 42.3218 73.5903 43.425 73.5903 43.425C73.5903 43.425 74.4979 43.3105 74.5124 43.8663C74.527 44.42 73.582 44.3991 73.582 44.3991C73.582 44.3991 74.1919 45.136 73.1802 45.5148C72.1665 45.8958 72.2685 44.8654 72.2685 44.8654C72.2685 44.8654 71.4713 45.2422 71.0113 44.522C70.5513 43.8017 72.0625 43.5166 72.0625 43.5166C71.8606 42.838 72.1436 42.5507 72.9429 42.4363V42.4342Z" fill="#FF725E"/>
<path d="M69.6396 48.3977C69.6396 48.3977 68.7861 48.4351 68.7362 49.0534C68.6841 49.6716 68.9235 50.6832 70.4056 50.9038C71.8855 51.1245 72.0645 49.2802 72.0645 49.2802C72.0645 49.2802 71.6378 48.3144 69.6396 48.3977Z" fill="#E0E0E0"/>
<g opacity="0.21">
<path d="M70.4784 50.0648C71.2985 50.1023 71.7856 49.7484 72.0291 49.4883C72.0541 49.3613 72.0645 49.2822 72.0645 49.2822C72.0645 49.2822 71.6357 48.3164 69.6395 48.3996C69.6395 48.3996 68.7861 48.4371 68.7362 49.0553C68.7362 49.0969 68.7362 49.1406 68.7299 49.1823C69.0421 49.5236 69.6375 50.0253 70.4805 50.0648H70.4784Z" fill="#263238"/>
</g>
<path d="M69.8019 47.9959L69.5584 49.0637C69.5584 49.0637 69.983 49.5654 70.6033 49.53C71.2236 49.4946 71.2215 49.2635 71.2215 49.2635L71.4776 48.1687C71.4776 48.1687 70.9301 47.7669 70.3285 47.7503C69.727 47.7336 69.804 47.9938 69.804 47.9938L69.8019 47.9959Z" fill="#E0E0E0"/>
<path d="M65.1872 55.5957C65.1872 55.5957 64.646 56.2555 65.0727 56.7051C65.4994 57.1548 66.4132 57.6522 67.5643 56.6947C68.7154 55.7372 67.4602 54.3759 67.4602 54.3759C67.4602 54.3759 66.4548 54.0512 65.1851 55.5936L65.1872 55.5957Z" fill="#E0E0E0"/>
<g opacity="0.21">
<path d="M66.9898 56.0806C67.5643 55.4957 67.6267 54.8962 67.5955 54.5403C67.5164 54.4362 67.4643 54.3759 67.4643 54.3759C67.4643 54.3759 66.459 54.0511 65.1892 55.5956C65.1892 55.5956 64.648 56.2555 65.0748 56.7051C65.106 56.7322 65.1393 56.7613 65.1663 56.7946C65.6284 56.7904 66.3986 56.6801 66.9918 56.0786L66.9898 56.0806Z" fill="#263238"/>
</g>
<path d="M64.9957 55.2042L65.6305 56.0993C65.6305 56.0993 66.2883 56.1159 66.6755 55.633C67.0626 55.148 66.8878 54.994 66.8878 54.994L66.2425 54.074C66.2425 54.074 65.5785 54.2155 65.1663 54.6526C64.7521 55.0898 64.9977 55.2063 64.9977 55.2063L64.9957 55.2042Z" fill="#E0E0E0"/>
<path d="M74.7664 55.5499C74.7664 55.5499 75.345 55.9579 75.6885 55.5791C76.034 55.2002 76.39 54.4155 75.5303 53.5204C74.6706 52.6254 73.6215 53.7452 73.6215 53.7452C73.6215 53.7452 73.4154 54.5966 74.7664 55.5499Z" fill="#E0E0E0"/>
<g opacity="0.21">
<path d="M75.0578 54.0325C74.706 53.7057 74.2252 53.5558 73.7485 53.6245C73.6694 53.6932 73.6215 53.7432 73.6215 53.7432C73.6215 53.7432 73.4154 54.5945 74.7664 55.5478C74.7664 55.5478 75.345 55.9558 75.6885 55.577C75.7114 55.552 75.7343 55.5229 75.7572 55.4937C75.7239 54.9338 75.472 54.4072 75.0557 54.0325H75.0578Z" fill="#263238"/>
</g>
<path d="M74.4541 55.7373L75.1535 55.1587C75.1306 54.8298 74.9662 54.5259 74.7039 54.324C74.2793 54.0347 74.1648 54.1866 74.1648 54.1866L73.4425 54.7757C73.5445 55.1046 73.7318 55.4001 73.9837 55.6312C74.3729 55.9393 74.452 55.7353 74.452 55.7353L74.4541 55.7373Z" fill="#E0E0E0"/>
<path d="M71.3964 62.6999C71.3964 62.6999 69.9247 63.2848 68.9422 61.4218C67.9598 59.5568 68.1076 57.8125 69.4418 57.417C70.7761 57.0194 71.2132 57.6876 71.4859 58.1705C71.7585 58.6534 72.4122 59.7316 72.5308 60.7079C72.5912 61.2574 72.2873 62.4272 71.3964 62.702V62.6999Z" fill="#AE7461"/>
<path opacity="0.3" d="M71.3735 62.1607C71.6586 62.0316 71.8938 61.8131 72.0416 61.5362L72.0354 61.5466L72.0458 61.5321L72.0687 61.4967C72.0833 61.4738 72.0937 61.4447 72.1041 61.4197L72.1166 61.3989L72.1062 61.4155C72.1915 61.1699 72.2123 60.9076 72.1686 60.6516C72.1519 60.4976 72.1145 60.3477 72.0562 60.2061C71.9979 60.0646 71.8876 59.948 71.7481 59.8835C71.5879 59.8231 71.4068 59.8398 71.2611 59.9314C71.1174 60.023 71.0071 60.1562 70.9447 60.3165C70.8843 60.4622 70.8593 60.6183 70.8052 60.7661C70.7615 60.918 70.6574 61.0471 70.52 61.1241C70.4014 61.1782 70.264 61.1699 70.1412 61.2136C69.9247 61.301 69.8061 61.5342 69.8623 61.761C69.9185 61.9671 70.1121 62.1066 70.3098 62.1836C70.6553 62.3168 71.0383 62.3085 71.3776 62.1628L71.3735 62.1607Z" fill="#6F4439"/>
<path opacity="0.3" d="M69.8644 57.6292C69.5542 57.675 69.269 57.8228 69.0547 58.0476L69.0609 58.0372L69.0505 58.0518L69.0213 58.083C69.0068 58.108 68.9839 58.1267 68.9672 58.1475L68.9547 58.1684L68.9651 58.1517C68.8153 58.3619 68.7195 58.6055 68.6883 58.8615C68.6612 59.0114 68.655 59.1654 68.6737 59.3174C68.6925 59.4714 68.7653 59.6109 68.8819 59.7128C69.0193 59.8148 69.1962 59.8481 69.3606 59.8024C69.523 59.7545 69.6666 59.6546 69.7707 59.5193C69.8685 59.3965 69.9351 59.2528 70.0246 59.1238C70.11 58.9906 70.2432 58.8948 70.3993 58.8594C70.5263 58.8407 70.6574 58.8865 70.7886 58.8761C71.0196 58.8511 71.1986 58.6617 71.209 58.4285C71.2111 58.2142 71.0654 58.0289 70.8947 57.8998C70.5991 57.6813 70.2307 57.5855 69.8664 57.6334L69.8644 57.6292Z" fill="#6F4439"/>
<path opacity="0.3" d="M70.1058 60.0688C70.0476 60.0688 69.9893 60.0813 69.9352 60.1042L69.5979 60.2187C69.5105 60.2479 69.4127 60.2895 69.3836 60.3811C69.3669 60.4414 69.3877 60.506 69.4398 60.5414C69.4897 60.5767 69.5522 60.5892 69.6104 60.5726H69.5959C69.7811 60.5643 69.9601 60.5081 70.1162 60.4081C70.162 60.3832 70.1995 60.3478 70.2307 60.3041C70.2599 60.2604 70.2661 60.2062 70.2474 60.1563C70.2203 60.1042 70.1662 60.0688 70.1058 60.0688Z" fill="#6F4439"/>
<path d="M68.6758 58.3286C68.6758 58.3286 68.6404 58.4389 68.5946 58.62C68.476 59.0925 68.4885 59.5879 68.63 60.0521C68.6841 60.2311 68.732 60.3352 68.7258 60.3394C68.7091 60.3186 68.6966 60.2936 68.6862 60.2686C68.6529 60.202 68.6258 60.1333 68.6009 60.0625C68.4406 59.5942 68.4281 59.0884 68.5655 58.6117C68.5863 58.5409 68.6113 58.4702 68.6404 58.4015C68.6487 58.3744 68.6612 58.3515 68.6779 58.3286H68.6758Z" fill="white"/>
<path d="M69.0734 57.8292C69.0734 57.8292 69.0401 57.8958 68.9776 57.9603C68.9173 58.0248 68.8611 58.0665 68.8486 58.0582C68.8361 58.0498 68.8819 57.9915 68.9443 57.927C69.0068 57.8625 69.0651 57.8209 69.0734 57.8292Z" fill="white"/>
<path d="M69.4293 61.7404C69.2899 61.6551 69.19 61.5177 69.1525 61.3574C69.2025 61.4178 69.2482 61.4823 69.2878 61.551C69.3398 61.6114 69.3856 61.6738 69.4293 61.7404Z" fill="white"/>
<path d="M73.2947 48.4934C73.2947 48.4934 72.1415 47.9522 72.6932 46.3474C73.2468 44.7425 74.3521 43.8703 75.32 44.4323C76.288 44.9964 76.136 45.6209 76.0049 46.0476C75.8716 46.4743 75.599 47.4526 75.0911 48.0584C74.8017 48.3977 73.9483 48.8618 73.2947 48.4913V48.4934Z" fill="#AE7461"/>
<path opacity="0.3" d="M73.5986 48.1831C73.8317 48.281 74.0899 48.2976 74.3334 48.231H74.323H74.3376L74.3709 48.2248C74.3938 48.2206 74.4146 48.2102 74.4354 48.2019L74.4541 48.1977H74.4375C74.629 48.1145 74.7934 47.9833 74.9204 47.8168C75.0016 47.7231 75.0682 47.6191 75.1202 47.5046C75.1702 47.3922 75.1785 47.2631 75.1389 47.1445C75.0869 47.0175 74.9766 46.9197 74.8434 46.8843C74.7102 46.8489 74.5707 46.8593 74.4437 46.9113C74.3251 46.9551 74.2189 47.0279 74.1023 47.0779C73.9879 47.1361 73.8567 47.1466 73.7339 47.107C73.6382 47.0675 73.5674 46.9821 73.4716 46.9342C73.301 46.8551 73.0991 46.9134 72.9971 47.0716C72.9076 47.2173 72.9304 47.4088 72.9971 47.567C73.1095 47.8418 73.3239 48.0624 73.5965 48.1811L73.5986 48.1831Z" fill="#6F4439"/>
<path opacity="0.3" d="M75.4262 44.8008C75.2284 44.6447 74.9849 44.5593 74.733 44.5552H74.7434H74.7289H74.6956C74.6727 44.5593 74.6498 44.5552 74.6269 44.5593L74.6081 44.5635H74.6248C74.4187 44.5885 74.2231 44.6676 74.0545 44.7883C73.9504 44.8549 73.8588 44.9361 73.7776 45.0298C73.6985 45.1255 73.6548 45.2462 73.6611 45.3711C73.6756 45.5085 73.7547 45.6313 73.8734 45.7021C73.992 45.7708 74.1294 45.7999 74.2647 45.7874C74.3896 45.777 74.5124 45.7375 74.6373 45.7187C74.7622 45.6938 74.8933 45.7208 74.9995 45.7916C75.0807 45.8561 75.1264 45.9581 75.2035 46.0289C75.345 46.1517 75.5552 46.1517 75.6989 46.0289C75.8258 45.9123 75.855 45.725 75.8362 45.5522C75.8029 45.2587 75.6552 44.9881 75.4262 44.8008Z" fill="#6F4439"/>
<path opacity="0.3" d="M74.1273 46.2849C74.094 46.2515 74.0565 46.2245 74.0128 46.2037L73.7589 46.0684C73.6944 46.033 73.6152 45.9976 73.5466 46.0309C73.5028 46.0538 73.4758 46.1017 73.482 46.1516C73.4883 46.1995 73.5153 46.2432 73.5591 46.2682L73.5507 46.2599C73.6569 46.364 73.7901 46.4368 73.9337 46.4743C73.9733 46.4868 74.0149 46.4909 74.0565 46.4847C74.0982 46.4784 74.1336 46.4514 74.1523 46.4139C74.1689 46.3681 74.1585 46.3182 74.1273 46.2828V46.2849Z" fill="#6F4439"/>
<path d="M74.3625 44.4866C74.3625 44.4866 74.2772 44.5261 74.1481 44.599C73.8068 44.7884 73.5216 45.0694 73.3259 45.4087C73.251 45.5377 73.2156 45.6252 73.2115 45.6231C73.2156 45.6023 73.2219 45.5794 73.2302 45.5606C73.251 45.5044 73.276 45.4503 73.3051 45.3983C73.4925 45.0465 73.7818 44.7593 74.1377 44.5782C74.1898 44.5511 74.246 44.5261 74.3022 44.5074C74.323 44.497 74.3438 44.4907 74.3646 44.4887L74.3625 44.4866Z" fill="white"/>
<path d="M74.8746 44.4448C74.8746 44.4448 74.8163 44.4614 74.7455 44.4614C74.6748 44.4614 74.6186 44.451 74.6165 44.4385C74.6144 44.426 74.6748 44.4219 74.7476 44.4219C74.8205 44.4219 74.8767 44.4344 74.8767 44.4427L74.8746 44.4448Z" fill="white"/>
<path d="M72.7722 46.8094C72.7452 46.6803 72.7722 46.545 72.8451 46.4368C72.8368 46.4992 72.8243 46.5617 72.8055 46.622C72.7993 46.6845 72.7889 46.7469 72.7722 46.8094Z" fill="white"/>
<path d="M68.4926 48.5684C67.8182 48.9306 66.9752 48.6788 66.613 48.0023C66.2508 47.3279 66.5027 46.4848 67.1792 46.1227C67.8515 45.7605 68.6883 46.0102 69.0546 46.6805C69.421 47.3528 69.1733 48.1959 68.501 48.5643C68.4989 48.5643 68.4947 48.5664 68.4926 48.5684Z" fill="#FF9A6C"/>
<g opacity="0.5">
<path d="M68.4926 48.5684C67.8182 48.9306 66.9752 48.6788 66.613 48.0023C66.2508 47.3279 66.5027 46.4848 67.1792 46.1227C67.8515 45.7605 68.6883 46.0102 69.0546 46.6805C69.421 47.3528 69.1733 48.1959 68.501 48.5643C68.4989 48.5643 68.4947 48.5664 68.4926 48.5684Z" fill="#FF725E"/>
</g>
<path d="M68.3656 48.3311C67.6912 48.6933 66.8482 48.4415 66.486 47.765C66.1238 47.0906 66.3757 46.2475 67.0522 45.8853C67.7245 45.5232 68.5613 45.7729 68.9277 46.4432C69.294 47.1155 69.0463 47.9585 68.374 48.327C68.3719 48.327 68.3677 48.3291 68.3656 48.3311Z" fill="#FF9A6C"/>
<g opacity="0.3">
<path d="M68.093 47.8356C67.6996 48.0479 67.2083 47.9043 66.996 47.5109C66.7837 47.1175 66.9273 46.6262 67.3207 46.4139C67.7141 46.2016 68.2054 46.3452 68.4177 46.7386C68.63 47.1321 68.4843 47.6212 68.093 47.8356Z" fill="white"/>
</g>
<path d="M67.9535 47.5713C67.5643 47.6484 67.25 47.5547 67.2541 47.3632C67.1188 47.1134 67.2125 46.7991 67.4623 46.6638C67.7121 46.5285 68.0264 46.6222 68.1617 46.8719C68.297 47.1217 68.2054 47.434 67.9556 47.5693C67.9556 47.5693 67.9556 47.5693 67.9535 47.5693V47.5713Z" fill="#FF9A6C"/>
<path d="M75.9424 49.3593C76.5544 49.0575 77.2975 49.3094 77.5993 49.9213C77.9011 50.5333 77.6493 51.2764 77.0373 51.5782C76.4253 51.88 75.6822 51.6282 75.3804 51.0162C75.0786 50.4042 75.3304 49.6611 75.9424 49.3593Z" fill="#FF9A6C"/>
<g opacity="0.5">
<path d="M75.9424 49.3593C76.5544 49.0575 77.2975 49.3094 77.5993 49.9213C77.9011 50.5333 77.6493 51.2764 77.0373 51.5782C76.4253 51.88 75.6822 51.6282 75.3804 51.0162C75.0786 50.4042 75.3304 49.6611 75.9424 49.3593Z" fill="#FF725E"/>
</g>
<path d="M76.9644 51.3513C76.365 51.6739 75.6156 51.4491 75.293 50.8476C74.9703 50.2481 75.1951 49.4987 75.7967 49.1761C76.3941 48.8555 77.1393 49.0762 77.464 49.6715C77.7908 50.2689 77.5702 51.0203 76.9728 51.3451C76.9707 51.3451 76.9686 51.3471 76.9665 51.3492L76.9644 51.3513Z" fill="#FF9A6C"/>
<g opacity="0.3">
<path d="M75.6947 50.0691C75.8092 49.6902 76.2088 49.4738 76.5877 49.5883C76.9665 49.7027 77.183 50.1024 77.0685 50.4812C76.954 50.8601 76.5544 51.0765 76.1755 50.9621C75.7967 50.8476 75.5802 50.4479 75.6947 50.0691Z" fill="white"/>
</g>
<path d="M76.6002 50.6769C76.3774 50.7976 76.0985 50.7143 75.9799 50.4916C75.8591 50.2689 75.9424 49.99 76.1651 49.8713C76.3878 49.7506 76.6647 49.8338 76.7854 50.0566C76.9061 50.2793 76.825 50.5582 76.6022 50.6789L76.6002 50.6769Z" fill="#FF9A6C"/>
<path d="M64.6168 58.1079C64.5544 58.7699 64.8063 59.4235 65.2975 59.871C65.7638 60.3123 66.4132 60.4996 67.0418 60.3726C67.0959 59.1737 66.1697 58.1579 64.9728 58.1038C64.8541 58.0975 64.7355 58.1038 64.6168 58.1163V58.11V58.1079Z" fill="#455A64"/>
<path d="M65.1601 58.5639C65.1809 58.5472 65.5556 59.0343 66.0989 59.5547C66.6421 60.0751 67.1417 60.4352 67.1251 60.456C67.0023 60.4019 66.8857 60.3311 66.7816 60.2458C66.255 59.8648 65.7825 59.4111 65.3828 58.899C65.2912 58.7991 65.2163 58.6867 65.158 58.5639H65.1601Z" fill="#263238"/>
<path d="M69.1129 41.6868C68.6675 42.1801 68.4802 42.8545 68.6051 43.506C68.7154 44.1388 69.1254 44.6758 69.7062 44.9506C70.4659 44.0222 70.3306 42.6547 69.4023 41.8949C69.3107 41.82 69.2129 41.7513 69.1088 41.693L69.1129 41.6868Z" fill="#455A64"/>
<path d="M69.2753 42.3779C69.3024 42.3779 69.3107 42.992 69.4377 43.733C69.5646 44.474 69.7457 45.0631 69.7228 45.0693C69.6562 44.9528 69.6063 44.8258 69.573 44.6968C69.3773 44.0765 69.2711 43.4312 69.2566 42.7817C69.2441 42.6464 69.2503 42.5111 69.2774 42.38L69.2753 42.3779Z" fill="#263238"/>
<path d="M82.0226 53.4141C81.344 52.8895 80.4573 52.7147 79.6309 52.9395C78.8274 53.1456 78.1717 53.7284 77.8762 54.5027C79.1521 55.3915 80.9069 55.0793 81.7957 53.8033C81.881 53.6805 81.958 53.5494 82.0226 53.4141Z" fill="#455A64"/>
<path d="M81.1546 53.693C81.1587 53.7283 80.3698 53.7949 79.4248 54.0364C78.4798 54.2779 77.7429 54.5693 77.7284 54.536C77.8741 54.4381 78.0323 54.3611 78.1988 54.307C78.588 54.1488 78.9877 54.0197 79.3957 53.9198C79.8036 53.8158 80.2179 53.7429 80.6363 53.6971C80.809 53.6721 80.9818 53.6701 81.1546 53.693Z" fill="#263238"/>
<path d="M68.0493 52.2777C68.0451 52.5733 67.5851 52.8064 67.0231 52.7981C66.4611 52.7897 66.0094 52.542 66.0135 52.2485C66.0031 52.3609 66.0011 52.4754 66.0073 52.5878C66.0031 52.8834 66.4548 53.1311 67.0168 53.1394C67.5788 53.1498 68.0389 52.9167 68.043 52.619C68.0514 52.5046 68.0534 52.3901 68.0493 52.2777Z" fill="#455A64"/>
<path d="M67.0356 52.0653C67.4852 52.0716 67.864 52.2319 67.9952 52.4483C68.0306 52.3984 68.0493 52.3401 68.0514 52.2797C68.0555 51.9841 67.6038 51.7364 67.0418 51.7281C66.4798 51.7177 66.0198 51.9508 66.0135 52.2506C66.0135 52.3109 66.0302 52.3692 66.0635 52.4213C66.203 52.209 66.586 52.0591 67.0356 52.0674V52.0653Z" fill="#263238"/>
<path d="M74.0524 49.6425C74.169 49.7549 74.0899 50.0275 73.8755 50.2503C73.6611 50.473 73.3905 50.5625 73.2739 50.4501C73.3155 50.4959 73.3592 50.5396 73.4071 50.5792C73.5237 50.6916 73.7943 50.6041 74.0087 50.3814C74.2231 50.1587 74.3022 49.886 74.1856 49.7715C74.144 49.7257 74.0982 49.682 74.0503 49.6404L74.0524 49.6425Z" fill="#455A64"/>
<path d="M73.5841 49.9692C73.7568 49.7901 73.9629 49.6986 74.0982 49.7256C74.0919 49.6923 74.0753 49.6632 74.0503 49.6403C73.9337 49.5279 73.6631 49.6153 73.4487 49.838C73.2343 50.0607 73.1553 50.3334 73.2739 50.4479C73.2989 50.4708 73.328 50.4854 73.3613 50.4916C73.328 50.3563 73.4113 50.1461 73.5841 49.9671V49.9692Z" fill="#263238"/>
<path d="M75.6177 39.1287C75.6968 39.3597 75.4075 39.6678 74.9703 39.8176C74.5332 39.9675 74.1148 39.903 74.0357 39.6761C74.0586 39.7656 74.0899 39.8551 74.1252 39.9405C74.2043 40.1715 74.6227 40.234 75.0598 40.0841C75.497 39.9342 75.7863 39.6241 75.7072 39.3951C75.6822 39.3056 75.6531 39.2161 75.6156 39.1287H75.6177Z" fill="#455A64"/>
<path d="M74.7747 39.2494C75.1244 39.1287 75.4616 39.1453 75.6218 39.2765C75.6343 39.2286 75.6323 39.1786 75.6177 39.1308C75.5386 38.8997 75.1202 38.8373 74.6831 38.9871C74.246 39.137 73.9566 39.4472 74.0357 39.6782C74.0524 39.724 74.0815 39.7656 74.1211 39.7948C74.1689 39.5908 74.4229 39.3701 74.7726 39.2494H74.7747Z" fill="#263238"/>
<path d="M76.5086 56.1494L73.6278 58.4723C73.5383 58.5431 73.5216 58.6722 73.5861 58.7658C73.7714 59.0323 74.0566 59.2862 74.4666 59.5131C76.5481 60.6642 77.8553 58.5056 77.566 57.2484C77.4723 56.8446 77.1851 56.4324 76.7688 56.141C76.6897 56.0848 76.5835 56.0911 76.5086 56.1514V56.1494Z" fill="#FF725E"/>
<path opacity="0.3" d="M76.5086 56.1494L73.6278 58.4723C73.5383 58.5431 73.5216 58.6722 73.5861 58.7658C73.7714 59.0323 74.0566 59.2862 74.4666 59.5131C76.5481 60.6642 77.8553 58.5056 77.566 57.2484C77.4723 56.8446 77.1851 56.4324 76.7688 56.141C76.6897 56.0848 76.5835 56.0911 76.5086 56.1514V56.1494Z" fill="black"/>
<path d="M76.3566 56.0099L73.4758 58.3329C73.3863 58.4037 73.3697 58.5328 73.4342 58.6264C73.6194 58.8929 73.9046 59.1468 74.3147 59.3737C76.3962 60.5248 77.7034 58.3662 77.4141 57.109C77.3204 56.7052 77.0331 56.293 76.6168 56.0016C76.5377 55.9454 76.4316 55.9517 76.3566 56.012V56.0099Z" fill="#FF725E"/>
<path opacity="0.3" d="M76.1131 56.2868C76.1881 56.1786 77.1268 56.5158 77.1227 57.3005C77.1185 58.0832 76.8979 58.6681 76.5502 58.6868C76.2026 58.7055 75.7676 58.0665 75.7509 57.4816C75.7343 56.8967 76.0236 56.4159 76.1131 56.2868Z" fill="black"/>
<path opacity="0.3" d="M73.7735 58.2933C73.7797 58.1414 74.5707 57.7084 75.0953 57.8062C75.6219 57.9041 76.2297 58.7721 76.2068 59.0031C76.1839 59.2425 75.2035 59.3695 74.7143 59.2029C74.2252 59.0364 73.7631 58.5181 73.7714 58.2933H73.7735Z" fill="black"/>
<path d="M74.7331 58.0541C74.6706 57.9874 74.0649 58.3871 74.2002 58.5245C74.3355 58.6619 74.8684 58.1977 74.7331 58.0541Z" fill="#FF725E"/>
<path d="M75.5178 58.3767C75.6031 58.3517 75.9008 58.9991 75.6802 59.0095C75.4595 59.0178 75.4345 58.4017 75.5178 58.3767Z" fill="#FF725E"/>
<path d="M75.1598 58.1935C75.2638 58.2143 75.1702 59.0594 74.885 59.0303C74.5998 59.0011 75.0557 58.1727 75.1598 58.1935Z" fill="#FF725E"/>
<path d="M76.0777 57.2214C76.0257 57.0611 76.8042 56.8696 76.8271 57.0382C76.85 57.2068 76.1464 57.4358 76.0777 57.2214Z" fill="#FF725E"/>
<path d="M76.0715 56.9113C76.1589 56.9821 76.5565 56.6615 76.442 56.5616C76.3275 56.4617 75.984 56.8405 76.0715 56.9113Z" fill="#FF725E"/>
<path d="M76.0319 57.5502C76.0257 57.6148 76.723 57.775 76.7001 57.6377C76.6793 57.5003 76.0486 57.39 76.0319 57.5502Z" fill="#FF725E"/>
<path d="M75.9403 57.8145C75.8633 57.9373 76.2838 58.4036 76.392 58.3058C76.5003 58.2059 76.0486 57.6397 75.9403 57.8145Z" fill="#FF725E"/>
<path d="M75.7801 56.5741C75.7801 56.5741 75.7655 56.5949 75.7322 56.6303C75.701 56.6657 75.6531 56.7156 75.5948 56.776C75.4762 56.8967 75.3055 57.057 75.1077 57.2235C74.91 57.3901 74.7206 57.5274 74.5811 57.6232C74.5103 57.6711 74.4541 57.7085 74.4125 57.7335C74.3729 57.7585 74.35 57.771 74.348 57.771C74.348 57.771 74.3688 57.7543 74.4062 57.7252C74.4479 57.694 74.5041 57.6544 74.5686 57.6086C74.706 57.5087 74.8912 57.3692 75.089 57.2027C75.2867 57.0383 75.4595 56.8801 75.5802 56.7614C75.6385 56.7052 75.6864 56.6594 75.7239 56.622C75.7572 56.5887 75.778 56.572 75.778 56.572L75.7801 56.5741Z" fill="white"/>
<path d="M48.5433 39.5347C48.5433 39.5347 51.4449 41.841 52.367 43.2752C53.2892 44.7114 60.6702 49.7383 60.5682 49.9152C60.4663 50.0922 56.0576 57.3713 56.0576 57.3713L53.6076 56.1348L48.5433 39.7907" fill="#FF725E"/>
<path d="M38.2314 66.4302C38.2314 66.4302 32.7279 75.1143 32.1721 78.4218L38.2314 80.903V66.4302Z" fill="#FF725E"/>
<path d="M34.5762 38.3336C34.5762 38.5522 33.5396 41.279 33.5396 41.279L28.1381 47.2259L38.5582 64.1945L39.5948 66.7589L55.635 65.8306C55.635 65.8306 53.3433 53.6641 53.1809 51.645C53.0165 49.6259 48.5433 39.5326 48.5433 39.5326L43.1417 40.1321L41.5597 39.5867L34.5762 38.3315V38.3336Z" fill="#FF725E"/>
<path d="M37.8984 66.5133C37.6964 66.4321 36.6474 69.9353 34.8656 76.3423C33.0838 82.7492 34.3036 95.8399 34.3036 95.8399H61.967C61.967 95.8399 60.1374 81.3463 57.7478 74.2982C55.3894 67.3438 55.5143 62.9726 54.9898 63.0184C54.4652 63.0642 37.9004 66.5112 37.9004 66.5112L37.8984 66.5133Z" fill="#263238"/>
<path d="M53.9781 56.7323C53.9781 56.7323 53.9719 56.7177 53.9636 56.6865C53.9553 56.649 53.9448 56.6032 53.9324 56.5491C53.9074 56.4263 53.8699 56.2473 53.8158 56.0183C53.7076 55.5583 53.5389 54.8964 53.2663 54.0971C52.9957 53.2998 52.6376 52.3569 52.1173 51.3723C51.5698 50.4023 50.8954 49.3741 50.1294 48.3416C48.5995 46.2684 46.9884 44.5678 45.7311 43.4438C45.1067 42.8755 44.5655 42.4592 44.1929 42.1699C44.0076 42.0346 43.8619 41.9284 43.7537 41.8514C43.7079 41.8181 43.6704 41.789 43.6413 41.7661C43.6163 41.7474 43.6038 41.7349 43.6038 41.7349C43.6038 41.7349 43.6184 41.7411 43.6455 41.7578C43.6788 41.7786 43.7162 41.8036 43.7641 41.8348C43.8744 41.9097 44.0264 42.0096 44.2158 42.1387C44.5967 42.4197 45.1483 42.8256 45.7811 43.3897C47.055 44.5012 48.6827 46.1997 50.2147 48.2813C50.9828 49.3199 51.6572 50.3503 52.2026 51.3307C52.723 52.3257 53.0748 53.2748 53.337 54.0783C53.6014 54.8839 53.7596 55.55 53.8553 56.0141C53.9032 56.2452 53.9344 56.4263 53.9532 56.5491C53.9615 56.6053 53.9677 56.6511 53.974 56.6885C53.9781 56.7198 53.9781 56.7364 53.9781 56.7364V56.7323Z" fill="#263238"/>
<path d="M28.1381 47.228C28.1381 47.228 27.1202 48.402 27.4928 51.0476C27.8654 53.6932 32.1721 65.6808 32.1721 65.6808L41.6139 62.496L36.6099 52.5484L33.1421 48.2022L28.136 47.228H28.1381Z" fill="#FF725E"/>
<path d="M53.6076 54.1928C53.6076 54.1928 53.5931 54.1616 53.5743 54.0991C53.5535 54.0242 53.5285 53.9347 53.4994 53.8264C53.4307 53.5725 53.3412 53.2332 53.2309 52.8211C52.9998 51.9739 52.6647 50.8082 52.2442 49.5385C51.8217 48.2667 51.3971 47.1323 51.0765 46.3142C50.9204 45.9187 50.7892 45.5919 50.6935 45.3484C50.6539 45.2443 50.6186 45.1569 50.5915 45.084C50.5686 45.0237 50.5582 44.9904 50.5624 44.9883C50.5665 44.9883 50.5832 45.0174 50.6102 45.0736C50.6435 45.1444 50.6831 45.2277 50.731 45.3297C50.835 45.5524 50.9766 45.8792 51.1473 46.283C51.4866 47.0927 51.9258 48.2271 52.3483 49.501C52.7688 50.7749 53.0956 51.9468 53.3058 52.8002C53.412 53.227 53.4911 53.5725 53.541 53.814C53.5639 53.9243 53.5806 54.0159 53.5972 54.0908C53.6097 54.1553 53.6139 54.1886 53.6097 54.1886L53.6076 54.1928Z" fill="#263238"/>
<path d="M32.1721 65.6787C32.1721 65.6787 32.1867 65.6704 32.2158 65.66C32.2491 65.6475 32.2928 65.6308 32.3469 65.61C32.4697 65.5663 32.6425 65.5059 32.8632 65.4269C33.3211 65.2687 33.9788 65.0418 34.8073 64.7566C36.4788 64.1883 38.8371 63.3849 41.5993 62.4461L41.5702 62.5169C40.7625 60.9266 39.8779 59.1802 38.9495 57.3526C38.4583 56.3826 37.9775 55.4355 37.5154 54.5197C37.2926 54.0555 37.0304 53.6288 36.791 53.1958C36.5475 52.767 36.306 52.3486 36.0666 51.9427C35.5879 51.133 35.1091 50.3753 34.6054 49.7092C34.3514 49.3783 34.0913 49.0702 33.8165 48.7975C33.5438 48.5228 33.2441 48.3042 32.9422 48.119C32.3386 47.7464 31.7308 47.5195 31.1834 47.3863C30.6359 47.251 30.1488 47.2093 29.7513 47.2052C29.3537 47.1989 29.0456 47.2406 28.8375 47.2635C28.7376 47.2801 28.6605 47.2905 28.6023 47.3009C28.5481 47.3093 28.5211 47.3113 28.5211 47.3092C28.5211 47.3092 28.5481 47.3009 28.6002 47.2884C28.6585 47.2759 28.7355 47.2614 28.8354 47.2406C29.0435 47.2114 29.3516 47.1615 29.7513 47.1615C30.1509 47.1594 30.6422 47.1948 31.1979 47.3259C31.7516 47.455 32.3698 47.6777 32.9818 48.0524C33.2878 48.2376 33.5958 48.4603 33.8748 48.7372C34.1537 49.0119 34.4181 49.3221 34.6762 49.6551C35.1861 50.3254 35.669 51.0831 36.152 51.8928C36.3934 52.2987 36.6349 52.7171 36.8784 53.1458C37.1178 53.5767 37.3842 54.0076 37.6069 54.4697C38.0711 55.3856 38.552 56.3327 39.0432 57.3027C39.9695 59.1323 40.8521 60.8787 41.6576 62.4711L41.6847 62.5231L41.6285 62.5419C38.8621 63.4661 36.4996 64.255 34.824 64.8149C33.9913 65.0896 33.3315 65.3061 32.8715 65.4581C32.6488 65.5288 32.4739 65.585 32.3511 65.6246C32.2949 65.6412 32.2512 65.6558 32.2158 65.6662C32.1846 65.6746 32.17 65.6787 32.17 65.6766L32.1721 65.6787Z" fill="#263238"/>
<path d="M41.1206 45.1548C41.106 45.1818 39.4054 44.3326 37.3238 43.2585C35.2402 42.1845 33.5625 41.2915 33.575 41.2665C33.5896 41.2394 35.2881 42.0887 37.3738 43.1628C39.4574 44.2368 41.1351 45.1298 41.1226 45.1548H41.1206Z" fill="#263238"/>
<path d="M43.1709 40.2715C43.2 40.2694 43.2916 41.1686 43.3769 42.2781C43.4602 43.3896 43.5039 44.2909 43.4748 44.293C43.4456 44.2951 43.354 43.3979 43.2687 42.2864C43.1854 41.177 43.1417 40.2736 43.1709 40.2715Z" fill="#263238"/>
<path d="M45.6874 44.01C45.6874 44.01 45.6645 44.0204 45.6208 44.035C45.5709 44.0517 45.5063 44.0725 45.4231 44.0995C45.2482 44.1537 44.9943 44.2369 44.6654 44.3493C44.0097 44.5741 43.0689 44.9217 41.924 45.3963C40.7792 45.8709 39.4304 46.4683 37.9525 47.1781C37.5861 47.3655 37.1782 47.4924 36.8285 47.7235C36.6578 47.84 36.5058 47.992 36.4434 48.1897C36.3747 48.3833 36.3997 48.604 36.4788 48.7996C36.6474 49.1993 36.9991 49.5032 37.3072 49.8446C37.4633 50.0132 37.6215 50.1838 37.7818 50.3566C37.9337 50.5356 38.0857 50.7146 38.2397 50.8957C38.8434 51.6263 39.4012 52.3674 39.8987 53.1084C40.4045 53.8452 40.8562 54.58 41.2746 55.2857C42.103 56.7032 42.7795 58.0166 43.3228 59.1323C43.864 60.248 44.2782 61.1639 44.5551 61.7988C44.6904 62.1131 44.7965 62.3587 44.8715 62.5315C44.9048 62.6106 44.9298 62.6751 44.9506 62.723C44.9672 62.7667 44.9756 62.7896 44.9735 62.7896C44.9735 62.7896 44.961 62.7687 44.9402 62.7271C44.9173 62.6792 44.8881 62.6168 44.8507 62.5398C44.7716 62.367 44.6592 62.1256 44.5155 61.8154C44.2262 61.1868 43.8016 60.2772 43.252 59.1656C42.7004 58.0562 42.0198 56.7469 41.1872 55.3356C40.7688 54.6321 40.315 53.9014 39.8113 53.1667C39.3138 52.4277 38.758 51.6909 38.1586 50.9623C38.0066 50.7833 37.8547 50.6043 37.7027 50.4274C37.5445 50.2567 37.3863 50.086 37.2302 49.9174C36.9263 49.5802 36.5662 49.2721 36.3809 48.8392C36.2935 48.6248 36.2644 48.3771 36.3435 48.1544C36.4163 47.9275 36.5912 47.7589 36.7702 47.6361C37.1407 47.3946 37.5466 47.2697 37.9088 47.0865C39.3908 46.383 40.7438 45.7918 41.8928 45.3256C43.0418 44.8593 43.9889 44.5221 44.6488 44.3098C44.9797 44.2036 45.2378 44.1266 45.4127 44.0787C45.4959 44.0558 45.5625 44.0392 45.6125 44.0246C45.6583 44.0121 45.6812 44.008 45.6812 44.01H45.6874Z" fill="#263238"/>
<path opacity="0.3" d="M41.1664 51.4534C41.5653 51.4534 41.8886 51.13 41.8886 50.7311C41.8886 50.3322 41.5653 50.0088 41.1664 50.0088C40.7674 50.0088 40.4441 50.3322 40.4441 50.7311C40.4441 51.13 40.7674 51.4534 41.1664 51.4534Z" fill="black"/>
<path opacity="0.3" d="M47.9313 48.656C48.3302 48.656 48.6536 48.3326 48.6536 47.9337C48.6536 47.5348 48.3302 47.2114 47.9313 47.2114C47.5324 47.2114 47.209 47.5348 47.209 47.9337C47.209 48.3326 47.5324 48.656 47.9313 48.656Z" fill="black"/>
<path opacity="0.3" d="M45.6874 57.7355C45.6874 58.133 45.3648 58.4578 44.9651 58.4578C44.5655 58.4578 44.2429 58.1351 44.2429 57.7355C44.2429 57.3358 44.5655 57.0132 44.9651 57.0132C45.3648 57.0132 45.6874 57.3358 45.6874 57.7355Z" fill="black"/>
<path opacity="0.3" d="M51.6593 56.1577C52.0582 56.1577 52.3816 55.8343 52.3816 55.4354C52.3816 55.0365 52.0582 54.7131 51.6593 54.7131C51.2604 54.7131 50.937 55.0365 50.937 55.4354C50.937 55.8343 51.2604 56.1577 51.6593 56.1577Z" fill="black"/>
<path d="M56.7154 66.6736C56.7279 66.6444 56.9422 66.7173 57.2108 66.7881C57.4772 66.8609 57.6999 66.9088 57.6958 66.94C57.6937 66.9692 57.4585 66.9692 57.1816 66.8942C56.9048 66.8193 56.7029 66.7006 56.7154 66.6736Z" fill="#FF9A6C"/>
<path d="M33.6624 65.1769C33.6978 65.3642 36.7369 69.673 39.1681 69.673C41.5993 69.673 53.5806 66.0823 53.5806 66.0823L52.1943 62.3689L40.2047 64.1715L39.6135 63.1703L33.6624 65.1769Z" fill="#FFBF9D"/>
<path d="M52.1964 62.3688C52.2588 62.3168 54.4839 61.3551 55.712 61.0866C56.9401 60.8181 57.7436 60.9305 58.5533 61.3593C59.363 61.788 61.1365 62.271 61.5216 62.6644C61.813 62.9641 61.5466 63.4845 61.0012 63.4304C60.4558 63.3783 58.3598 62.91 58.316 62.9142C58.3077 62.9142 58.2952 62.937 58.2848 62.9704C58.1911 63.2389 58.2723 63.5386 58.4805 63.7343L59.9001 65.0644C59.9001 65.0644 59.9209 65.6597 59.5275 65.77C59.1341 65.8803 58.8156 66.0489 58.8156 66.0489C58.8156 66.0489 58.6553 66.8524 58.035 66.9211C57.4127 66.9898 55.5268 66.3861 55.4352 66.3736C55.3436 66.3612 53.5827 66.0801 53.5827 66.0801L52.1964 62.3667V62.3688Z" fill="#FFBF9D"/>
<path d="M57.4168 65.7367C57.4293 65.7075 57.7311 65.8262 58.1141 65.9261C58.4971 66.0281 58.8177 66.0718 58.8156 66.1051C58.8156 66.1342 58.4805 66.1363 58.0871 66.0322C57.6916 65.9302 57.4043 65.7637 57.4168 65.7387V65.7367Z" fill="#FF9A6C"/>
<path d="M54.7566 66.1655C55.429 66.4798 56.1034 66.7921 56.7757 67.1064C56.9193 67.173 57.0775 67.2417 57.2336 67.2105C57.4668 67.1626 57.5979 66.919 57.6957 66.7005" fill="#FFBF9D"/>
<path d="M35.0633 21.5834C37.1532 19.9807 39.2638 19.6997 41.9365 19.7392C43.4435 19.7621 43.6767 18.8983 44.7528 19.223C45.829 19.5477 46.7885 20.1576 47.4068 21.0901C48.1415 22.1975 48.7473 23.4318 48.8513 24.7557C48.9575 26.1149 49.0636 27.4825 48.9179 28.8376C48.9179 28.8521 48.9159 28.8646 48.9138 28.8792C48.6765 31.0107 46.9988 32.6988 44.8756 32.9965L44.0201 33.1172C42.0968 33.1213 40.1464 33.1213 38.2897 32.628C36.4309 32.1326 35.5545 37.1116 34.8531 35.3319C32.4801 29.3142 32.9485 23.207 35.0633 21.5855V21.5834Z" fill="#263238"/>
<path d="M42.7712 20.3157L41.3828 20.1096L35.9792 22.0621C35.2069 22.0767 34.5741 22.6803 34.5221 23.4505L34.9405 38.4604L41.5951 42.6567V44.9506L43.2999 44.3823L42.5172 42.4277C42.5235 41.0144 42.5089 39.218 42.5089 39.218C42.5089 39.218 46.0912 38.9828 47.1237 34.8281C47.6378 32.7611 47.8314 29.3183 47.898 26.4937C47.9583 23.9521 45.9039 20.4239 42.767 20.3136L42.7712 20.3157Z" fill="#FFBF9D"/>
<path d="M45.8935 29.9511C45.8789 30.2383 45.625 30.461 45.3252 30.4506C45.0276 30.4402 44.7965 30.2009 44.8111 29.9157C44.8256 29.6305 45.0796 29.4057 45.3793 29.4161C45.6791 29.4265 45.9101 29.6659 45.8956 29.9511H45.8935Z" fill="#263238"/>
<path d="M46.9009 27.876C46.8281 27.9405 46.4451 27.6033 45.8623 27.5533C45.2815 27.4971 44.8298 27.7573 44.7715 27.6824C44.7424 27.6491 44.8236 27.5263 45.0192 27.4076C45.2128 27.289 45.5375 27.1849 45.8997 27.2182C46.2619 27.2515 46.5554 27.4118 46.7178 27.5637C46.8843 27.7157 46.9342 27.8489 46.8989 27.8781L46.9009 27.876Z" fill="#263238"/>
<path d="M43.0127 32.3261C43.0127 32.2928 43.379 32.2616 43.9722 32.2387C44.1221 32.2366 44.2657 32.2179 44.2991 32.1201C44.3428 32.016 44.2949 31.8495 44.2387 31.6726C44.1304 31.302 44.016 30.9128 43.8973 30.5048C43.4269 28.8417 43.1001 27.4804 43.1688 27.4616C43.2354 27.4429 43.6725 28.7751 44.1409 30.4382C44.2533 30.8483 44.3615 31.2375 44.4635 31.6122C44.5051 31.785 44.5842 31.9848 44.4906 32.2013C44.4406 32.3095 44.324 32.3803 44.2283 32.3969C44.1304 32.4177 44.0472 32.4115 43.9722 32.4094C43.3811 32.3907 43.0147 32.3615 43.0147 32.3282L43.0127 32.3261Z" fill="#263238"/>
<path d="M42.5193 39.2141C42.5193 39.2141 39.6697 39.1516 37.0074 37.22C37.0074 37.22 38.2564 40.2694 42.5068 40.2423L42.5172 39.2141H42.5193Z" fill="#FF9A6C"/>
<path d="M46.7677 25.8297C46.6574 25.9629 46.2203 25.8297 45.6978 25.8297C45.1733 25.811 44.732 25.9275 44.6279 25.7902C44.5821 25.7235 44.6508 25.5903 44.8444 25.4634C45.0338 25.3364 45.3523 25.2323 45.7124 25.2385C46.0725 25.2469 46.3847 25.3634 46.5679 25.4967C46.7552 25.632 46.8156 25.7673 46.7677 25.8318V25.8297Z" fill="#263238"/>
<path d="M39.4241 29.5349C39.3991 29.8201 39.6218 30.0761 39.9195 30.1073C40.2172 30.1386 40.4773 29.9325 40.5023 29.6473C40.5273 29.3622 40.3046 29.1061 40.0069 29.0749C39.7093 29.0437 39.4491 29.2498 39.4241 29.537V29.5349Z" fill="#263238"/>
<path d="M39.0265 27.4012C39.091 27.4762 39.5157 27.191 40.0985 27.2222C40.6813 27.243 41.0935 27.5657 41.1601 27.497C41.1934 27.4678 41.1309 27.3367 40.9519 27.191C40.775 27.0474 40.469 26.8996 40.1068 26.8829C39.7446 26.8663 39.4324 26.9849 39.2492 27.114C39.064 27.243 38.9953 27.3679 39.0286 27.4012H39.0265Z" fill="#263238"/>
<path d="M39.4366 25.5466C39.5448 25.684 40.0007 25.5695 40.5419 25.5903C41.0831 25.5944 41.5369 25.7277 41.6493 25.5944C41.6992 25.5299 41.6326 25.3925 41.439 25.2572C41.2475 25.1219 40.9228 25.0054 40.5502 24.997C40.1776 24.9887 39.8508 25.0928 39.6552 25.2198C39.4574 25.3467 39.3887 25.48 39.4345 25.5466H39.4366Z" fill="#263238"/>
<path d="M35.0238 30.5652C35.0508 30.2509 34.7511 29.4807 34.4472 29.4058C33.6312 29.206 32.1346 29.1415 31.9369 31.2417C31.6683 34.1121 35.0133 33.7395 35.0258 33.6563C35.0362 33.5918 34.9322 31.6476 35.0258 30.5652H35.0238Z" fill="#FFBF9D"/>
<path d="M33.9247 32.5842C33.9122 32.5738 33.8706 32.6155 33.7832 32.6446C33.6978 32.6738 33.5521 32.6883 33.4085 32.6176C33.115 32.4781 32.9048 31.9723 32.9401 31.454C32.9568 31.1917 33.0359 30.9482 33.1462 30.7504C33.2545 30.5485 33.4022 30.4153 33.5584 30.4028C33.7145 30.382 33.8123 30.484 33.8414 30.5673C33.8727 30.6505 33.8498 30.7067 33.8643 30.713C33.8727 30.7213 33.9309 30.6713 33.9185 30.5506C33.9122 30.4923 33.8852 30.4215 33.8227 30.3591C33.7582 30.2967 33.6603 30.2592 33.5521 30.2592C33.3294 30.2529 33.1108 30.4382 32.988 30.6547C32.8527 30.8712 32.759 31.1438 32.7403 31.4394C32.7049 32.0202 32.9505 32.5884 33.3544 32.7466C33.5521 32.8174 33.7249 32.7737 33.8185 32.7133C33.9143 32.6509 33.9351 32.5884 33.9247 32.5822V32.5842Z" fill="#FF9A6C"/>
<path d="M34.3285 29.489L35.0362 30.2696C38.2876 27.3492 44.6945 19.9806 44.3365 20.4219C44.3365 20.4219 42.2029 19.4644 39.8446 19.7891C37.4862 20.1138 32.9963 21.1484 32.9776 23.9168C32.9589 26.6873 34.3306 29.489 34.3306 29.489H34.3285Z" fill="#263238"/>
<path d="M48.0708 22.8074C47.8272 22.2745 48.0937 21.6313 48.5474 21.24C49.0012 20.8487 49.6049 20.653 50.1919 20.4782C50.7788 20.3033 51.3846 20.1326 51.8696 19.7746C52.8291 19.0627 53.0831 17.7743 52.9499 16.6315C52.6938 14.448 51.268 12.4747 49.3738 11.1945C47.4796 9.91649 45.1587 9.28371 42.8357 9.09012C38.0045 8.68839 33.6541 10.3599 29.9532 13.3198C29.3454 13.8048 28.9644 14.5521 28.9291 15.3014C28.902 15.8967 29.2517 16.4421 29.6139 16.9292C30.7275 18.4299 32.0347 19.4665 33.5667 20.5906L33.1358 23.0426L48.0687 22.8053L48.0708 22.8074Z" fill="#FF725E"/>
<path d="M51.5823 15.574C51.5823 15.574 51.5365 15.6468 51.4303 15.7551C51.3242 15.8654 51.1597 16.0132 50.9433 16.1776C50.7247 16.3421 50.4541 16.519 50.1481 16.7063C49.8421 16.8937 49.5029 17.0914 49.1636 17.3225C48.8243 17.5535 48.5225 17.8033 48.2893 18.0676C48.0541 18.332 47.8876 18.6068 47.7835 18.8524C47.5733 19.3478 47.6128 19.6975 47.5899 19.6933C47.5858 19.6933 47.5691 19.6101 47.5754 19.456C47.5816 19.3041 47.6149 19.0813 47.7127 18.8232C47.8106 18.5672 47.9771 18.2779 48.2144 18.0031C48.4517 17.7263 48.7597 17.4702 49.1032 17.235C49.4467 16.9998 49.7901 16.8042 50.0982 16.6231C50.4062 16.442 50.6789 16.2734 50.8996 16.1193C51.3429 15.8113 51.5698 15.5636 51.5844 15.5761L51.5823 15.574Z" fill="#263238"/>
<path d="M49.2323 13.1242C49.2448 13.1429 48.8909 13.349 48.3997 13.7778C48.2769 13.886 48.1436 14.0047 48.0125 14.1441C47.873 14.2774 47.744 14.4335 47.6004 14.5958C47.3277 14.9289 47.055 15.3181 46.8135 15.7511C46.5763 16.1882 46.3972 16.6274 46.2619 17.0354C46.2016 17.2414 46.1391 17.4371 46.1017 17.6244C46.0538 17.8097 46.0247 17.9866 45.9997 18.1469C45.9018 18.7922 45.9185 19.2002 45.8956 19.2002C45.8873 19.2002 45.8831 19.0982 45.8789 18.915C45.8748 18.8234 45.8748 18.711 45.8852 18.5799C45.8935 18.4487 45.8977 18.2989 45.9247 18.1365C45.9456 17.9721 45.9705 17.7931 46.0142 17.6036C46.0475 17.4121 46.1079 17.2144 46.1683 17.0042C46.3015 16.5878 46.4805 16.1403 46.722 15.697C46.9676 15.2557 47.2486 14.8643 47.5275 14.5292C47.6732 14.3669 47.8085 14.2087 47.9521 14.0775C48.0874 13.9381 48.2248 13.8215 48.3539 13.7174C48.4767 13.6071 48.6016 13.5238 48.7077 13.4468C48.8118 13.3677 48.9076 13.3074 48.9867 13.2616C49.1449 13.1658 49.2323 13.1159 49.2364 13.1242H49.2323Z" fill="#263238"/>
<path d="M43.8161 12.0085C43.8161 12.0085 43.8182 12.1043 43.8016 12.275C43.7849 12.4457 43.7641 12.6913 43.7412 12.9952C43.6954 13.603 43.66 14.4439 43.6913 15.3723C43.7246 16.3007 43.8182 17.1374 43.9057 17.7411C43.9494 18.0429 43.9889 18.2864 44.016 18.455C44.043 18.6236 44.0555 18.7173 44.0472 18.7194C44.0389 18.7194 44.0139 18.6299 43.9743 18.4634C43.9327 18.2968 43.8828 18.0554 43.8286 17.7536C43.7204 17.152 43.6142 16.3111 43.5809 15.3765C43.5497 14.4418 43.5976 13.5967 43.6642 12.9889C43.6975 12.685 43.7308 12.4394 43.7599 12.2708C43.7891 12.1022 43.8078 12.0085 43.8161 12.0106V12.0085Z" fill="#263238"/>
<path d="M40.2817 10.9407C40.2817 10.9407 40.2921 11.0593 40.29 11.2758C40.2858 11.4902 40.2858 11.8003 40.29 12.1833C40.2983 12.9493 40.3504 14.0088 40.5023 15.1683C40.6543 16.3277 40.8749 17.3663 41.0623 18.1095C41.1559 18.482 41.235 18.7818 41.2933 18.9879C41.3495 19.1939 41.3786 19.3105 41.3724 19.3126C41.3662 19.3147 41.3225 19.2043 41.2538 19.0003C41.183 18.7964 41.0914 18.4987 40.9873 18.1282C40.7813 17.3872 40.546 16.3485 40.392 15.1828C40.2401 14.0172 40.2005 12.9514 40.2109 12.1833C40.2151 11.7983 40.2276 11.4881 40.2442 11.2737C40.2588 11.0593 40.2713 10.9407 40.2796 10.9407H40.2817Z" fill="#263238"/>
<path d="M33.6083 13.3843C33.6083 13.3843 33.6937 13.4592 33.8311 13.6091C33.9705 13.7569 34.1641 13.9775 34.3972 14.2564C34.8656 14.8122 35.4838 15.6032 36.1082 16.5191C36.7306 17.437 37.2406 18.3029 37.584 18.942C37.7568 19.2625 37.89 19.5227 37.9775 19.7059C38.0649 19.889 38.1107 19.991 38.1044 19.9952C38.0982 19.9994 38.0399 19.9015 37.94 19.7267C37.8297 19.5331 37.6881 19.2812 37.5174 18.9794C37.1573 18.3508 36.639 17.4953 36.0187 16.5794C35.3964 15.6656 34.7906 14.8705 34.339 14.3043C34.1204 14.0337 33.9393 13.8089 33.7998 13.6361C33.6729 13.4779 33.6042 13.3884 33.6104 13.3843H33.6083Z" fill="#263238"/>
<path d="M33.2545 27.649C32.4614 24.9347 32.8777 23.0447 33.3981 21.1089C33.3981 21.1089 39.8238 17.2747 45.1192 18.4862C45.1192 18.4862 48.4267 19.1502 48.8534 20.8674L48.9471 26.7144C48.9471 26.7144 48.587 24.4018 43.7704 24.2187C38.9537 24.0355 33.2545 27.6511 33.2545 27.6511V27.649Z" fill="#FF725E"/>
<path d="M40.5398 33.7228C40.5794 33.5313 40.698 33.369 40.8437 33.2607C41.1351 33.0463 41.5369 33.0526 41.8158 33.2753C42.0947 33.498 42.2321 33.9247 42.1509 34.3077C41.9698 34.5221 41.7075 34.6574 41.4265 34.6616C41.3828 34.6616 41.3391 34.6616 41.2954 34.6574C41.0852 34.6366 40.8749 34.5492 40.723 34.3827C40.5731 34.2162 40.4899 33.9622 40.5377 33.7249L40.5398 33.7228Z" fill="#FF9A6C"/>
<path d="M40.9665 32.7842C41.0498 32.7904 40.9811 33.342 41.4037 33.7937C41.8262 34.2475 42.4215 34.26 42.4174 34.337C42.4215 34.3724 42.2737 34.4265 42.0239 34.4036C41.7783 34.3807 41.4328 34.2579 41.1747 33.9811C40.9166 33.7042 40.8333 33.3691 40.8437 33.1401C40.852 32.907 40.9311 32.7779 40.9686 32.7863L40.9665 32.7842Z" fill="#263238"/>
<path d="M48.7161 20.8882C48.7161 20.8882 48.6828 20.8383 48.6307 20.7405C48.6037 20.6926 48.5766 20.6301 48.5308 20.5614C48.485 20.4928 48.433 20.4157 48.3768 20.3283C48.1311 19.989 47.6899 19.5498 47.0238 19.2022C46.3619 18.8484 45.4918 18.5861 44.5072 18.4529C43.5226 18.3176 42.4194 18.2988 41.2808 18.4529C40.7105 18.5278 40.161 18.6423 39.6364 18.7776C39.1119 18.9129 38.6165 19.0815 38.1419 19.2376C37.1969 19.5561 36.356 19.8766 35.6545 20.1597C34.953 20.4407 34.3931 20.6843 34.0038 20.8508C33.8165 20.9299 33.6687 20.9944 33.5563 21.0423C33.4543 21.086 33.3981 21.1068 33.3981 21.1026C33.3981 21.0985 33.4481 21.0714 33.548 21.0215C33.6583 20.9694 33.804 20.8987 33.9872 20.8112C34.3702 20.6322 34.928 20.3783 35.6253 20.0869C36.3226 19.7954 37.1615 19.4666 38.1086 19.1418C38.5811 18.9816 39.0786 18.8109 39.6073 18.6735C40.136 18.5361 40.6897 18.4175 41.2642 18.3425C42.4132 18.1885 43.5268 18.2093 44.5197 18.3509C45.5126 18.4903 46.391 18.763 47.0592 19.1314C47.7315 19.4936 48.1728 19.9495 48.4122 20.2992C48.4663 20.3887 48.5162 20.4678 48.5599 20.5406C48.6016 20.6114 48.6266 20.6759 48.6515 20.7259C48.6973 20.8279 48.7202 20.882 48.7181 20.882L48.7161 20.8882Z" fill="#263238"/>
</g>
<defs>
<clipPath id="clip0_34_2445">
<rect width="100.257" height="96" fill="white"/>
</clipPath>
</defs>
</svg>
